<svg width="27" height="26" viewBox="0 0 27 26" fill="none" xmlns="http://www.w3.org/2000/svg">
<g id="mingcute:add-line" clip-path="url(#clip0_577_1291)">
<g id="Group">
<path id="Vector" d="M12.6817 21.5463C12.6817 21.8296 12.7943 22.1014 12.9946 22.3017C13.195 22.502 13.4667 22.6146 13.75 22.6146C14.0333 22.6146 14.305 22.502 14.5054 22.3017C14.7057 22.1014 14.8183 21.8296 14.8183 21.5463V14.0684H22.2962C22.5795 14.0684 22.8512 13.9559 23.0515 13.7555C23.2519 13.5552 23.3644 13.2835 23.3644 13.0002C23.3644 12.7168 23.2519 12.4451 23.0515 12.2448C22.8512 12.0444 22.5795 11.9319 22.2962 11.9319H14.8183V4.45401C14.8183 4.17069 14.7057 3.89897 14.5054 3.69863C14.305 3.49829 14.0333 3.38574 13.75 3.38574C13.4667 3.38574 13.195 3.49829 12.9946 3.69863C12.7943 3.89897 12.6817 4.17069 12.6817 4.45401V11.9319H5.20384C4.92052 11.9319 4.6488 12.0444 4.44846 12.2448C4.24812 12.4451 4.13557 12.7168 4.13557 13.0002C4.13557 13.2835 4.24812 13.5552 4.44846 13.7555C4.6488 13.9559 4.92052 14.0684 5.20384 14.0684H12.6817V21.5463Z" fill="white"/>
</g>
</g>
<defs>
<clipPath id="clip0_577_1291">
<rect width="25.6385" height="25.6385" fill="white" transform="translate(0.930771 0.180664)"/>
</clipPath>
</defs>
</svg>
