<svg width="26" height="27" viewBox="0 0 26 27" fill="none" xmlns="http://www.w3.org/2000/svg">
<g clip-path="url(#clip0_899_1183)">
<path d="M11.768 22.2269C11.768 22.5102 11.8805 22.782 12.0808 22.9823C12.2812 23.1826 12.5529 23.2952 12.8362 23.2952C13.1195 23.2952 13.3913 23.1826 13.5916 22.9823C13.7919 22.782 13.9045 22.5102 13.9045 22.2269V14.749H21.3824C21.6657 14.749 21.9374 14.6365 22.1378 14.4362C22.3381 14.2358 22.4506 13.9641 22.4506 13.6808C22.4506 13.3974 22.3381 13.1257 22.1378 12.9254C21.9374 12.7251 21.6657 12.6125 21.3824 12.6125H13.9045V5.13462C13.9045 4.8513 13.7919 4.57958 13.5916 4.37924C13.3913 4.1789 13.1195 4.06635 12.8362 4.06635C12.5529 4.06635 12.2812 4.1789 12.0808 4.37924C11.8805 4.57958 11.768 4.8513 11.768 5.13462V12.6125H4.29007C4.00675 12.6125 3.73503 12.7251 3.53469 12.9254C3.33435 13.1257 3.2218 13.3974 3.2218 13.6808C3.2218 13.9641 3.33435 14.2358 3.53469 14.4362C3.73503 14.6365 4.00675 14.749 4.29007 14.749H11.768V22.2269Z" fill="white"/>
</g>
<defs>
<clipPath id="clip0_899_1183">
<rect width="25.6385" height="25.6385" fill="white" transform="translate(0.0169678 0.861542)"/>
</clipPath>
</defs>
</svg>
