<svg width="23" height="23" viewBox="0 0 23 23" fill="none" xmlns="http://www.w3.org/2000/svg">
<g clip-path="url(#clip0_2953_3361)">
<path fill-rule="evenodd" clip-rule="evenodd" d="M14.8867 13.0258C16.1205 13.0258 17.3038 13.516 18.1762 14.3884C19.0486 15.2608 19.5388 16.4441 19.5388 17.6779V19.5388C19.5388 19.7855 19.4407 20.0222 19.2662 20.1967C19.0918 20.3711 18.8551 20.4692 18.6083 20.4692C18.3616 20.4692 18.1249 20.3711 17.9504 20.1967C17.776 20.0222 17.6779 19.7855 17.6779 19.5388V17.6779C17.6779 16.9376 17.3839 16.2277 16.8604 15.7042C16.3369 15.1808 15.627 14.8867 14.8867 14.8867H7.44334C6.70306 14.8867 5.99309 15.1808 5.46963 15.7042C4.94617 16.2277 4.65209 16.9376 4.65209 17.6779V19.5388C4.65209 19.7855 4.55407 20.0222 4.37958 20.1967C4.20509 20.3711 3.96844 20.4692 3.72168 20.4692C3.47491 20.4692 3.23826 20.3711 3.06377 20.1967C2.88929 20.0222 2.79126 19.7855 2.79126 19.5388V17.6779C2.79126 16.4441 3.28139 15.2608 4.15382 14.3884C5.02626 13.516 6.20953 13.0258 7.44334 13.0258H14.8867ZM18.6083 7.44334C18.8551 7.44334 19.0918 7.54137 19.2662 7.71585C19.4407 7.89034 19.5388 8.127 19.5388 8.37376V9.30417H20.4692C20.7159 9.30417 20.9526 9.4022 21.1271 9.57669C21.3016 9.75117 21.3996 9.98783 21.3996 10.2346C21.3996 10.4814 21.3016 10.718 21.1271 10.8925C20.9526 11.067 20.7159 11.165 20.4692 11.165H19.5388V12.0954C19.5388 12.3422 19.4407 12.5788 19.2662 12.7533C19.0918 12.9278 18.8551 13.0258 18.6083 13.0258C18.3616 13.0258 18.1249 12.9278 17.9504 12.7533C17.776 12.5788 17.6779 12.3422 17.6779 12.0954V11.165H16.7475C16.5007 11.165 16.2641 11.067 16.0896 10.8925C15.9151 10.718 15.8171 10.4814 15.8171 10.2346C15.8171 9.98783 15.9151 9.75117 16.0896 9.57669C16.2641 9.4022 16.5007 9.30417 16.7475 9.30417H17.6779V8.37376C17.6779 8.127 17.776 7.89034 17.9504 7.71585C18.1249 7.54137 18.3616 7.44334 18.6083 7.44334ZM11.165 1.86084C12.3988 1.86084 13.5821 2.35097 14.4545 3.2234C15.327 4.09584 15.8171 5.27911 15.8171 6.51292C15.8171 7.74673 15.327 8.93001 14.4545 9.80244C13.5821 10.6749 12.3988 11.165 11.165 11.165C9.9312 11.165 8.74793 10.6749 7.87549 9.80244C7.00306 8.93001 6.51293 7.74673 6.51293 6.51292C6.51293 5.27911 7.00306 4.09584 7.87549 3.2234C8.74793 2.35097 9.9312 1.86084 11.165 1.86084ZM11.165 3.72167C10.7985 3.72167 10.4355 3.79387 10.0968 3.93414C9.75819 4.07442 9.45049 4.28002 9.1913 4.53921C8.93211 4.7984 8.7265 5.10611 8.58623 5.44476C8.44596 5.78341 8.37376 6.14637 8.37376 6.51292C8.37376 6.87948 8.44596 7.24244 8.58623 7.58109C8.7265 7.91974 8.93211 8.22744 9.1913 8.48664C9.45049 8.74583 9.75819 8.95143 10.0968 9.0917C10.4355 9.23198 10.7985 9.30417 11.165 9.30417C11.9053 9.30417 12.6153 9.0101 13.1387 8.48664C13.6622 7.96317 13.9563 7.25321 13.9563 6.51292C13.9563 5.77264 13.6622 5.06267 13.1387 4.53921C12.6153 4.01575 11.9053 3.72167 11.165 3.72167Z" fill="white"/>
</g>
<defs>
<clipPath id="clip0_2953_3361">
<rect width="22.33" height="22.33" fill="white"/>
</clipPath>
</defs>
</svg>
