<svg width="40" height="40" viewBox="0 0 40 40" fill="none" xmlns="http://www.w3.org/2000/svg">
<path d="M20.0002 13.333V19.9997M20.0002 26.6663H20.0168M3.3335 14.2042V25.7951C3.3335 26.2028 3.3335 26.4066 3.37955 26.5984C3.42037 26.7685 3.48771 26.931 3.5791 27.0801C3.68217 27.2483 3.82629 27.3925 4.11455 27.6807L12.3191 35.8853C12.6074 36.1735 12.7515 36.3177 12.9197 36.4207C13.0688 36.5121 13.2314 36.5795 13.4014 36.6203C13.5933 36.6663 13.7971 36.6663 14.2047 36.6663H25.7956C26.2032 36.6663 26.4071 36.6663 26.5989 36.6203C26.7689 36.5795 26.9315 36.5121 27.0806 36.4207C27.2488 36.3177 27.393 36.1735 27.6812 35.8853L35.8858 27.6807C36.174 27.3925 36.3182 27.2483 36.4212 27.0801C36.5126 26.931 36.58 26.7685 36.6208 26.5984C36.6668 26.4066 36.6668 26.2028 36.6668 25.7951V14.2042C36.6668 13.7966 36.6668 13.5928 36.6208 13.401C36.58 13.2309 36.5126 13.0683 36.4212 12.9192C36.3182 12.751 36.174 12.6069 35.8858 12.3186L27.6812 4.11406C27.393 3.8258 27.2488 3.68168 27.0806 3.57861C26.9315 3.48723 26.7689 3.41989 26.5989 3.37906C26.4071 3.33301 26.2032 3.33301 25.7956 3.33301H14.2047C13.7971 3.33301 13.5933 3.33301 13.4014 3.37906C13.2314 3.41989 13.0688 3.48723 12.9197 3.57861C12.7515 3.68168 12.6074 3.8258 12.3191 4.11406L4.11454 12.3186C3.82629 12.6069 3.68217 12.751 3.5791 12.9192C3.48771 13.0683 3.42037 13.2309 3.37955 13.401C3.3335 13.5928 3.3335 13.7966 3.3335 14.2042Z" stroke="#ECAD0E" stroke-width="3.33333" stroke-linecap="round" stroke-linejoin="round"/>
</svg>
