<svg width="20" height="21" viewBox="0 0 20 21" fill="none" xmlns="http://www.w3.org/2000/svg">
<g clip-path="url(#clip0_1023_3368)">
<g clip-path="url(#clip1_1023_3368)">
<mask id="mask0_1023_3368" style="mask-type:luminance" maskUnits="userSpaceOnUse" x="-4" y="0" width="28" height="21">
<path d="M23.3333 0.5H-3.33337V20.5H23.3333V0.5Z" fill="white"/>
</mask>
<g mask="url(#mask0_1023_3368)">
<path d="M-3.33337 0.5H23.3333V20.5H-3.33337V0.5Z" fill="#74ACDF"/>
<path d="M-3.33337 7.1665H23.3333V13.8332H-3.33337V7.1665Z" fill="white"/>
<path d="M9.87231 10.5518L11.0123 13.0318C11.0123 13.0318 11.0323 13.0798 11.0643 13.0678C11.0963 13.0518 11.0763 13.0038 11.0763 13.0038L10.1283 10.4438M10.1003 11.4118C10.0843 11.7878 10.3163 11.9958 10.2883 12.3318C10.2563 12.6718 10.4403 12.8598 10.4883 12.9918C10.5283 13.1238 10.4403 13.1998 10.4763 13.2198C10.5163 13.2398 10.5963 13.1358 10.5723 12.9478C10.5443 12.7638 10.4043 12.7078 10.4363 12.2958C10.4683 11.8838 10.2683 11.7878 10.3163 11.4158" fill="#F6B40E"/>
<path d="M9.87231 10.5518L11.0123 13.0318C11.0123 13.0318 11.0323 13.0798 11.0643 13.0678C11.0963 13.0518 11.0763 13.0038 11.0763 13.0038L10.1283 10.4438M10.1003 11.4118C10.0843 11.7878 10.3163 11.9958 10.2883 12.3318C10.2563 12.6718 10.4403 12.8598 10.4883 12.9918C10.5283 13.1238 10.4403 13.1998 10.4763 13.2198C10.5163 13.2398 10.5963 13.1358 10.5723 12.9478C10.5443 12.7638 10.4043 12.7078 10.4363 12.2958C10.4683 11.8838 10.2683 11.7878 10.3163 11.4158" stroke="#85340A" stroke-width="0.132"/>
<path d="M9.86231 10.4994L9.96651 13.2269C9.96651 13.2269 9.96661 13.2789 10.0007 13.28C10.0364 13.2775 10.0363 13.2255 10.0363 13.2255L10.1402 10.4976M9.74388 11.3812C9.58518 11.7224 9.71994 12.0034 9.56548 12.3031C9.40581 12.605 9.50384 12.8491 9.49768 12.9894C9.48414 13.1266 9.37374 13.1632 9.39934 13.1954C9.42864 13.2292 9.54238 13.1638 9.59214 12.9809C9.63668 12.8002 9.52878 12.6949 9.71601 12.3265C9.90321 11.9581 9.75518 11.7928 9.94188 11.4675" fill="#F6B40E"/>
<path d="M9.86231 10.4994L9.96651 13.2269C9.96651 13.2269 9.96661 13.2789 10.0007 13.28C10.0364 13.2775 10.0363 13.2255 10.0363 13.2255L10.1402 10.4976M9.74388 11.3812C9.58518 11.7224 9.71994 12.0034 9.56548 12.3031C9.40581 12.605 9.50384 12.8491 9.49768 12.9894C9.48414 13.1266 9.37374 13.1632 9.39934 13.1954C9.42864 13.2292 9.54238 13.1638 9.59214 12.9809C9.63668 12.8002 9.52878 12.6949 9.71601 12.3265C9.90321 11.9581 9.75518 11.7928 9.94188 11.4675" stroke="#85340A" stroke-width="0.132"/>
<path d="M9.87287 10.4463L8.92533 13.006C8.92533 13.006 8.90553 13.0541 8.93663 13.0682C8.9706 13.0796 8.99037 13.0315 8.99037 13.0315L10.1302 10.5509M9.42597 11.2156C9.14877 11.4702 9.16573 11.7813 8.90837 11.9991C8.6453 12.2169 8.6425 12.4799 8.5831 12.6072C8.51803 12.7288 8.40207 12.7203 8.41337 12.7599C8.42753 12.8024 8.55763 12.7854 8.6736 12.6355C8.7839 12.4856 8.7245 12.347 9.03847 12.0783C9.35243 11.8096 9.27887 11.6003 9.57587 11.3712" fill="#F6B40E"/>
<path d="M9.87287 10.4463L8.92533 13.006C8.92533 13.006 8.90553 13.0541 8.93663 13.0682C8.9706 13.0796 8.99037 13.0315 8.99037 13.0315L10.1302 10.5509M9.42597 11.2156C9.14877 11.4702 9.16573 11.7813 8.90837 11.9991C8.6453 12.2169 8.6425 12.4799 8.5831 12.6072C8.51803 12.7288 8.40207 12.7203 8.41337 12.7599C8.42753 12.8024 8.55763 12.7854 8.6736 12.6355C8.7839 12.4856 8.7245 12.347 9.03847 12.0783C9.35243 11.8096 9.27887 11.6003 9.57587 11.3712" stroke="#85340A" stroke-width="0.132"/>
<path d="M9.90277 10.4019L8.0478 12.4042C8.0478 12.4042 8.0111 12.441 8.03444 12.466C8.06147 12.4894 8.09817 12.4526 8.09817 12.4526L10.1005 10.5971M9.19547 10.9416C8.84197 11.0707 8.7386 11.3647 8.41747 11.4674C8.0911 11.5679 7.9878 11.8099 7.88424 11.9047C7.77757 11.9922 7.6737 11.94 7.669 11.9809C7.66584 12.0255 7.7925 12.0596 7.95704 11.9655C8.1163 11.8692 8.11447 11.7184 8.50734 11.5903C8.90024 11.4622 8.9124 11.2407 9.27444 11.1427" fill="#F6B40E"/>
<path d="M9.90277 10.4019L8.0478 12.4042C8.0478 12.4042 8.0111 12.441 8.03444 12.466C8.06147 12.4894 8.09817 12.4526 8.09817 12.4526L10.1005 10.5971M9.19547 10.9416C8.84197 11.0707 8.7386 11.3647 8.41747 11.4674C8.0911 11.5679 7.9878 11.8099 7.88424 11.9047C7.77757 11.9922 7.6737 11.94 7.669 11.9809C7.66584 12.0255 7.7925 12.0596 7.95704 11.9655C8.1163 11.8692 8.11447 11.7184 8.50734 11.5903C8.90024 11.4622 8.9124 11.2407 9.27444 11.1427" stroke="#85340A" stroke-width="0.132"/>
<path d="M10.1722 11.4766C10.1922 11.8366 10.3962 11.9966 10.3562 12.3286C10.4442 12.0686 10.2322 11.8646 10.2442 11.4806M9.93616 10.5286L10.7162 12.2326L10.0642 10.4766" fill="#85340A"/>
<path d="M9.78579 11.4671C9.66653 11.8074 9.79376 12.0333 9.62976 12.3247C9.81056 12.1181 9.69276 11.8485 9.85079 11.4984M9.93056 10.501L9.99909 12.3738L10.0687 10.5019" fill="#85340A"/>
<path d="M9.43245 11.3114C9.19202 11.5801 9.22315 11.8374 8.96008 12.0439C9.20618 11.9223 9.20052 11.6281 9.48052 11.3651M9.93592 10.4741L9.28255 12.2306L10.0632 10.5279" fill="#85340A"/>
<path d="M9.1651 11.0329C8.84016 11.1892 8.7704 11.4389 8.44836 11.529C8.72226 11.5108 8.8296 11.2369 9.18896 11.101M9.95063 10.4521L8.67483 11.8248L10.0476 10.5505" fill="#85340A"/>
<path d="M9.94791 10.3726L7.46791 11.5126C7.46791 11.5126 7.41991 11.5326 7.43191 11.5646C7.44791 11.5966 7.49591 11.5766 7.49591 11.5766L10.0559 10.6286M9.08791 10.6006C8.71191 10.5846 8.50391 10.8166 8.16791 10.7886C7.82791 10.7566 7.63991 10.9406 7.50791 10.9886C7.37591 11.0286 7.29991 10.9406 7.27991 10.9766C7.25991 11.0166 7.36391 11.0966 7.55191 11.0726C7.73591 11.0446 7.79191 10.9046 8.20391 10.9366C8.61591 10.9686 8.71191 10.7686 9.08391 10.8166" fill="#F6B40E"/>
<path d="M9.94791 10.3726L7.46791 11.5126C7.46791 11.5126 7.41991 11.5326 7.43191 11.5646C7.44791 11.5966 7.49591 11.5766 7.49591 11.5766L10.0559 10.6286M9.08791 10.6006C8.71191 10.5846 8.50391 10.8166 8.16791 10.7886C7.82791 10.7566 7.63991 10.9406 7.50791 10.9886C7.37591 11.0286 7.29991 10.9406 7.27991 10.9766C7.25991 11.0166 7.36391 11.0966 7.55191 11.0726C7.73591 11.0446 7.79191 10.9046 8.20391 10.9366C8.61591 10.9686 8.71191 10.7686 9.08391 10.8166" stroke="#85340A" stroke-width="0.132"/>
<path d="M10.0005 10.3623L7.27302 10.4665C7.27302 10.4665 7.22102 10.4666 7.21985 10.5007C7.22238 10.5364 7.27438 10.5363 7.27438 10.5363L10.0023 10.6402M9.11871 10.2439C8.77745 10.0852 8.49652 10.2199 8.19678 10.0655C7.89492 9.90581 7.65081 10.0038 7.51048 9.99768C7.37325 9.98414 7.33672 9.87374 7.30445 9.89934C7.27065 9.92864 7.33612 10.0424 7.51902 10.0921C7.69972 10.1367 7.80501 10.0288 8.17341 10.216C8.54181 10.4032 8.70705 10.2552 9.03235 10.4419" fill="#F6B40E"/>
<path d="M10.0005 10.3623L7.27302 10.4665C7.27302 10.4665 7.22102 10.4666 7.21985 10.5007C7.22238 10.5364 7.27438 10.5363 7.27438 10.5363L10.0023 10.6402M9.11871 10.2439C8.77745 10.0852 8.49652 10.2199 8.19678 10.0655C7.89492 9.90581 7.65081 10.0038 7.51048 9.99768C7.37325 9.98414 7.33672 9.87374 7.30445 9.89934C7.27065 9.92864 7.33612 10.0424 7.51902 10.0921C7.69972 10.1367 7.80501 10.0288 8.17341 10.216C8.54181 10.4032 8.70705 10.2552 9.03235 10.4419" stroke="#85340A" stroke-width="0.132"/>
<path d="M10.0538 10.3729L7.4941 9.42533C7.4941 9.42533 7.44604 9.40553 7.4319 9.43663C7.42057 9.4706 7.46867 9.49037 7.46867 9.49037L9.9492 10.6302M9.2845 9.92597C9.02997 9.64877 8.71884 9.66573 8.50104 9.40837C8.28324 9.1453 8.0202 9.1425 7.89294 9.0831C7.7713 9.01803 7.7798 8.90207 7.7402 8.91337C7.69777 8.92753 7.71474 9.05763 7.86464 9.1736C8.01454 9.2839 8.15314 9.2245 8.42184 9.53847C8.69054 9.85243 8.89984 9.77887 9.12894 10.0759" fill="#F6B40E"/>
<path d="M10.0538 10.3729L7.4941 9.42533C7.4941 9.42533 7.44604 9.40553 7.4319 9.43663C7.42057 9.4706 7.46867 9.49037 7.46867 9.49037L9.9492 10.6302M9.2845 9.92597C9.02997 9.64877 8.71884 9.66573 8.50104 9.40837C8.28324 9.1453 8.0202 9.1425 7.89294 9.0831C7.7713 9.01803 7.7798 8.90207 7.7402 8.91337C7.69777 8.92753 7.71474 9.05763 7.86464 9.1736C8.01454 9.2839 8.15314 9.2245 8.42184 9.53847C8.69054 9.85243 8.89984 9.77887 9.12894 10.0759" stroke="#85340A" stroke-width="0.132"/>
<path d="M10.0979 10.4028L8.0956 8.5478C8.0956 8.5478 8.05877 8.5111 8.0338 8.53444C8.01037 8.56147 8.0472 8.59817 8.0472 8.59817L9.9027 10.6005M9.55814 9.69547C9.42904 9.34197 9.1351 9.2386 9.03237 8.91747C8.93184 8.5911 8.6899 8.4878 8.59503 8.38424C8.50757 8.27757 8.5598 8.1737 8.51887 8.169C8.47427 8.16584 8.44017 8.2925 8.53427 8.45704C8.63057 8.6163 8.78133 8.61447 8.90943 9.00734C9.03753 9.40024 9.25903 9.4124 9.35707 9.77444" fill="#F6B40E"/>
<path d="M10.0979 10.4028L8.0956 8.5478C8.0956 8.5478 8.05877 8.5111 8.0338 8.53444C8.01037 8.56147 8.0472 8.59817 8.0472 8.59817L9.9027 10.6005M9.55814 9.69547C9.42904 9.34197 9.1351 9.2386 9.03237 8.91747C8.93184 8.5911 8.6899 8.4878 8.59503 8.38424C8.50757 8.27757 8.5598 8.1737 8.51887 8.169C8.47427 8.16584 8.44017 8.2925 8.53427 8.45704C8.63057 8.6163 8.78133 8.61447 8.90943 9.00734C9.03753 9.40024 9.25903 9.4124 9.35707 9.77444" stroke="#85340A" stroke-width="0.132"/>
<path d="M9.02339 10.672C8.66339 10.692 8.50339 10.896 8.17139 10.856C8.43139 10.944 8.63539 10.732 9.01939 10.744M9.97139 10.436L8.26739 11.216L10.0234 10.564" fill="#85340A"/>
<path d="M9.03261 10.2859C8.69238 10.1666 8.46648 10.2939 8.17508 10.1299C8.38161 10.3107 8.65121 10.1929 9.00138 10.3509M9.99878 10.4307L8.12598 10.4992L9.99784 10.5688" fill="#85340A"/>
<path d="M9.18852 9.93233C8.91982 9.69189 8.66245 9.72303 8.45599 9.45996C8.57759 9.70606 8.87175 9.70039 9.13479 9.98039M10.0258 10.4358L8.26929 9.78243L9.97202 10.5631" fill="#85340A"/>
<path d="M9.46695 9.66498C9.31068 9.34004 9.06098 9.27028 8.97088 8.94824C8.98908 9.22214 9.26302 9.32948 9.39888 9.68884M10.0477 10.4505L8.67505 9.17471L9.94942 10.5475" fill="#85340A"/>
<path d="M10.1275 10.4478L8.98753 7.96778C8.98753 7.96778 8.96753 7.91978 8.93553 7.93178C8.90353 7.94778 8.92353 7.99578 8.92353 7.99578L9.87153 10.5558M9.89953 9.58778C9.91553 9.21178 9.68353 9.00378 9.71153 8.66778C9.74353 8.32778 9.55953 8.13978 9.51153 8.00778C9.47153 7.87578 9.55953 7.79978 9.52353 7.77978C9.48353 7.75978 9.40353 7.86378 9.42753 8.05178C9.45553 8.23578 9.59553 8.29178 9.56353 8.70378C9.53153 9.11578 9.73153 9.21178 9.68353 9.58378" fill="#F6B40E"/>
<path d="M10.1275 10.4478L8.98753 7.96778C8.98753 7.96778 8.96753 7.91978 8.93553 7.93178C8.90353 7.94778 8.92353 7.99578 8.92353 7.99578L9.87153 10.5558M9.89953 9.58778C9.91553 9.21178 9.68353 9.00378 9.71153 8.66778C9.74353 8.32778 9.55953 8.13978 9.51153 8.00778C9.47153 7.87578 9.55953 7.79978 9.52353 7.77978C9.48353 7.75978 9.40353 7.86378 9.42753 8.05178C9.45553 8.23578 9.59553 8.29178 9.56353 8.70378C9.53153 9.11578 9.73153 9.21178 9.68353 9.58378" stroke="#85340A" stroke-width="0.132"/>
<path d="M10.1376 10.5004L10.0334 7.77289C10.0334 7.77289 10.0333 7.72089 9.99917 7.71973C9.96347 7.72226 9.96357 7.77426 9.96357 7.77426L9.85974 10.5022M10.256 9.61859C10.4147 9.27733 10.28 8.99639 10.4344 8.69666C10.5941 8.39479 10.4961 8.15069 10.5022 8.01036C10.5158 7.87313 10.6262 7.83659 10.6006 7.80433C10.5713 7.77053 10.4575 7.83599 10.4078 8.01889C10.3632 8.19959 10.4711 8.30489 10.2839 8.67329C10.0967 9.04169 10.2447 9.20693 10.058 9.53223" fill="#F6B40E"/>
<path d="M10.1376 10.5004L10.0334 7.77289C10.0334 7.77289 10.0333 7.72089 9.99917 7.71973C9.96347 7.72226 9.96357 7.77426 9.96357 7.77426L9.85974 10.5022M10.256 9.61859C10.4147 9.27733 10.28 8.99639 10.4344 8.69666C10.5941 8.39479 10.4961 8.15069 10.5022 8.01036C10.5158 7.87313 10.6262 7.83659 10.6006 7.80433C10.5713 7.77053 10.4575 7.83599 10.4078 8.01889C10.3632 8.19959 10.4711 8.30489 10.2839 8.67329C10.0967 9.04169 10.2447 9.20693 10.058 9.53223" stroke="#85340A" stroke-width="0.132"/>
<path d="M10.1271 10.5538L11.0747 7.9941C11.0747 7.9941 11.0945 7.94604 11.0634 7.9319C11.0294 7.92057 11.0096 7.96867 11.0096 7.96867L9.86975 10.4492M10.574 9.7845C10.8512 9.52997 10.8343 9.21884 11.0916 9.00104C11.3547 8.78324 11.3575 8.5202 11.4169 8.39294C11.482 8.2713 11.5979 8.2798 11.5866 8.2402C11.5725 8.19777 11.4424 8.21474 11.3264 8.36464C11.2161 8.51454 11.2755 8.65314 10.9615 8.92184C10.6476 9.19054 10.7211 9.39984 10.4241 9.62894" fill="#F6B40E"/>
<path d="M10.1271 10.5538L11.0747 7.9941C11.0747 7.9941 11.0945 7.94604 11.0634 7.9319C11.0294 7.92057 11.0096 7.96867 11.0096 7.96867L9.86975 10.4492M10.574 9.7845C10.8512 9.52997 10.8343 9.21884 11.0916 9.00104C11.3547 8.78324 11.3575 8.5202 11.4169 8.39294C11.482 8.2713 11.5979 8.2798 11.5866 8.2402C11.5725 8.19777 11.4424 8.21474 11.3264 8.36464C11.2161 8.51454 11.2755 8.65314 10.9615 8.92184C10.6476 9.19054 10.7211 9.39984 10.4241 9.62894" stroke="#85340A" stroke-width="0.132"/>
<path d="M10.0971 10.5978L11.9521 8.59548C11.9521 8.59548 11.9888 8.55865 11.9655 8.53368C11.9384 8.51025 11.9017 8.54708 11.9017 8.54708L9.89941 10.4026M10.8044 10.058C11.1579 9.92891 11.2613 9.63498 11.5824 9.53225C11.9088 9.43171 12.0121 9.18978 12.1157 9.09491C12.2223 9.00745 12.3262 9.05968 12.3309 9.01875C12.3341 8.97415 12.2074 8.94005 12.0429 9.03415C11.8836 9.13045 11.8854 9.28121 11.4926 9.40931C11.0997 9.53741 11.0875 9.75891 10.7255 9.85695" fill="#F6B40E"/>
<path d="M10.0971 10.5978L11.9521 8.59548C11.9521 8.59548 11.9888 8.55865 11.9655 8.53368C11.9384 8.51025 11.9017 8.54708 11.9017 8.54708L9.89941 10.4026M10.8044 10.058C11.1579 9.92891 11.2613 9.63498 11.5824 9.53225C11.9088 9.43171 12.0121 9.18978 12.1157 9.09491C12.2223 9.00745 12.3262 9.05968 12.3309 9.01875C12.3341 8.97415 12.2074 8.94005 12.0429 9.03415C11.8836 9.13045 11.8854 9.28121 11.4926 9.40931C11.0997 9.53741 11.0875 9.75891 10.7255 9.85695" stroke="#85340A" stroke-width="0.132"/>
<path d="M9.82781 9.52339C9.80781 9.16339 9.60381 9.00339 9.64381 8.67139C9.55581 8.93139 9.76781 9.13539 9.75581 9.51939M10.0638 10.4714L9.28381 8.76739L9.93581 10.5234" fill="#85340A"/>
<path d="M10.2141 9.53261C10.3333 9.19238 10.2061 8.96648 10.3701 8.67508C10.1893 8.88161 10.3071 9.15121 10.1491 9.50138M10.0693 10.4988L10.0008 8.62598L9.93115 10.4978" fill="#85340A"/>
<path d="M10.5675 9.68828C10.8079 9.41958 10.7768 9.16221 11.0399 8.95574C10.7938 9.07734 10.7994 9.37151 10.5194 9.63454M10.064 10.5255L10.7174 8.76904L9.93677 10.4718" fill="#85340A"/>
<path d="M10.8348 9.96719C11.1597 9.81093 11.2295 9.56123 11.5515 9.47113C11.2776 9.48933 11.1703 9.76326 10.8109 9.89913M10.0493 10.548L11.3251 9.17529L9.95227 10.4497" fill="#85340A"/>
<path d="M10.052 10.6277L12.532 9.48765C12.532 9.48765 12.58 9.46765 12.568 9.43565C12.552 9.40365 12.504 9.42365 12.504 9.42365L9.94397 10.3717M10.912 10.3997C11.288 10.4157 11.496 10.1837 11.832 10.2117C12.172 10.2437 12.36 10.0597 12.492 10.0117C12.624 9.97165 12.7 10.0597 12.72 10.0237C12.74 9.98365 12.636 9.90365 12.448 9.92765C12.264 9.95565 12.208 10.0957 11.796 10.0637C11.384 10.0317 11.288 10.2317 10.916 10.1837" fill="#F6B40E"/>
<path d="M10.052 10.6277L12.532 9.48765C12.532 9.48765 12.58 9.46765 12.568 9.43565C12.552 9.40365 12.504 9.42365 12.504 9.42365L9.94397 10.3717M10.912 10.3997C11.288 10.4157 11.496 10.1837 11.832 10.2117C12.172 10.2437 12.36 10.0597 12.492 10.0117C12.624 9.97165 12.7 10.0597 12.72 10.0237C12.74 9.98365 12.636 9.90365 12.448 9.92765C12.264 9.95565 12.208 10.0957 11.796 10.0637C11.384 10.0317 11.288 10.2317 10.916 10.1837" stroke="#85340A" stroke-width="0.132"/>
<path d="M9.99951 10.6377L12.727 10.5335C12.727 10.5335 12.779 10.5334 12.7801 10.4993C12.7776 10.4636 12.7256 10.4637 12.7256 10.4637L9.99768 10.3599M10.8813 10.7562C11.2225 10.9149 11.5035 10.7801 11.8032 10.9346C12.1051 11.0942 12.3492 10.9962 12.4895 11.0024C12.6267 11.0159 12.6633 11.1263 12.6955 11.1007C12.7293 11.0714 12.6639 10.9577 12.481 10.9079C12.3003 10.8634 12.195 10.9713 11.8266 10.784C11.4582 10.5968 11.2929 10.7449 10.9676 10.5582" fill="#F6B40E"/>
<path d="M9.99951 10.6377L12.727 10.5335C12.727 10.5335 12.779 10.5334 12.7801 10.4993C12.7776 10.4636 12.7256 10.4637 12.7256 10.4637L9.99768 10.3599M10.8813 10.7562C11.2225 10.9149 11.5035 10.7801 11.8032 10.9346C12.1051 11.0942 12.3492 10.9962 12.4895 11.0024C12.6267 11.0159 12.6633 11.1263 12.6955 11.1007C12.7293 11.0714 12.6639 10.9577 12.481 10.9079C12.3003 10.8634 12.195 10.9713 11.8266 10.784C11.4582 10.5968 11.2929 10.7449 10.9676 10.5582" stroke="#85340A" stroke-width="0.132"/>
<path d="M9.94617 10.627L12.5059 11.5745C12.5059 11.5745 12.554 11.5943 12.5681 11.5632C12.5794 11.5293 12.5313 11.5095 12.5313 11.5095L10.0508 10.3696M10.7155 11.0739C10.97 11.3511 11.2812 11.3341 11.499 11.5915C11.7168 11.8546 11.9798 11.8574 12.1071 11.9168C12.2287 11.9818 12.2202 12.0978 12.2598 12.0865C12.3022 12.0723 12.2853 11.9422 12.1354 11.8263C11.9855 11.716 11.8469 11.7754 11.5782 11.4614C11.3095 11.1474 11.1002 11.221 10.8711 10.924" fill="#F6B40E"/>
<path d="M9.94617 10.627L12.5059 11.5745C12.5059 11.5745 12.554 11.5943 12.5681 11.5632C12.5794 11.5293 12.5313 11.5095 12.5313 11.5095L10.0508 10.3696M10.7155 11.0739C10.97 11.3511 11.2812 11.3341 11.499 11.5915C11.7168 11.8546 11.9798 11.8574 12.1071 11.9168C12.2287 11.9818 12.2202 12.0978 12.2598 12.0865C12.3022 12.0723 12.2853 11.9422 12.1354 11.8263C11.9855 11.716 11.8469 11.7754 11.5782 11.4614C11.3095 11.1474 11.1002 11.221 10.8711 10.924" stroke="#85340A" stroke-width="0.132"/>
<path d="M9.90198 10.5971L11.9043 12.4521C11.9043 12.4521 11.9411 12.4888 11.9661 12.4655C11.9895 12.4384 11.9527 12.4017 11.9527 12.4017L10.0972 10.3994M10.4417 11.3044C10.5708 11.6579 10.8648 11.7613 10.9675 12.0824C11.068 12.4088 11.31 12.5121 11.4048 12.6157C11.4923 12.7223 11.4401 12.8262 11.481 12.8309C11.5256 12.8341 11.5597 12.7074 11.4656 12.5429C11.3693 12.3836 11.2185 12.3854 11.0904 11.9926C10.9623 11.5997 10.7408 11.5875 10.6428 11.2255" fill="#F6B40E"/>
<path d="M9.90198 10.5971L11.9043 12.4521C11.9043 12.4521 11.9411 12.4888 11.9661 12.4655C11.9895 12.4384 11.9527 12.4017 11.9527 12.4017L10.0972 10.3994M10.4417 11.3044C10.5708 11.6579 10.8648 11.7613 10.9675 12.0824C11.068 12.4088 11.31 12.5121 11.4048 12.6157C11.4923 12.7223 11.4401 12.8262 11.481 12.8309C11.5256 12.8341 11.5597 12.7074 11.4656 12.5429C11.3693 12.3836 11.2185 12.3854 11.0904 11.9926C10.9623 11.5997 10.7408 11.5875 10.6428 11.2255" stroke="#85340A" stroke-width="0.132"/>
<path d="M10.9766 10.3277C11.3366 10.3077 11.4966 10.1037 11.8286 10.1437C11.5686 10.0557 11.3646 10.2677 10.9806 10.2557M10.0286 10.5637L11.7326 9.78369L9.97656 10.4357" fill="#85340A"/>
<path d="M10.9673 10.7141C11.3075 10.8333 11.5334 10.7061 11.8248 10.8701C11.6183 10.6893 11.3487 10.8071 10.9985 10.6491M10.0011 10.5693L11.8739 10.5008L10.002 10.4312" fill="#85340A"/>
<path d="M10.8115 11.0677C11.0802 11.3082 11.3375 11.277 11.544 11.5401C11.4224 11.294 11.1282 11.2997 10.8652 11.0197M9.97424 10.5643L11.7307 11.2176L10.028 10.437" fill="#85340A"/>
<path d="M10.5329 11.3347C10.6892 11.6596 10.9389 11.7294 11.029 12.0514C11.0108 11.7775 10.7369 11.6702 10.601 11.3108M9.95215 10.5491L11.3248 11.8249L10.0505 10.4521" fill="#85340A"/>
<path d="M10.0004 11.6132C10.6148 11.6132 11.1129 11.1151 11.1129 10.5007C11.1129 9.88625 10.6148 9.38818 10.0004 9.38818C9.38601 9.38818 8.88794 9.88625 8.88794 10.5007C8.88794 11.1151 9.38601 11.6132 10.0004 11.6132Z" fill="#F6B40E" stroke="#85340A" stroke-width="0.175"/>
<path d="M10.375 10.2632C10.3042 10.2632 10.2292 10.2965 10.1875 10.3632C10.2708 10.4424 10.4625 10.4465 10.5917 10.3549C10.5644 10.3259 10.5314 10.3028 10.4949 10.287C10.4584 10.2712 10.419 10.2632 10.3792 10.2632H10.375ZM10.375 10.2799C10.45 10.2799 10.5208 10.3132 10.5292 10.3465C10.4458 10.4424 10.3083 10.4299 10.2208 10.3632C10.2625 10.3049 10.3208 10.2799 10.3792 10.2799H10.375Z" fill="#843511"/>
<path d="M10.3916 10.2085C10.2791 10.2085 10.2541 10.2335 10.2041 10.2793C10.1541 10.321 10.1249 10.3127 10.1208 10.321C10.1083 10.3293 10.1208 10.3543 10.1333 10.346C10.1541 10.3377 10.1874 10.321 10.2374 10.2793C10.2874 10.2377 10.3416 10.2377 10.3916 10.2377C10.5458 10.2377 10.6291 10.3627 10.6458 10.3543C10.6666 10.346 10.5624 10.2085 10.3916 10.2085Z" fill="#85340A"/>
<path d="M10.7004 10.2625C10.5046 10.0917 10.2546 10.0625 10.1171 10.1917C10.0854 10.2334 10.064 10.2819 10.0546 10.3334C10.0379 10.4334 10.0671 10.5375 10.1421 10.6459L10.1088 10.6625C10.0421 10.5334 10.0171 10.4 10.0421 10.2709L10.0671 10.175C10.2546 10.0209 10.5129 10.0084 10.7004 10.2584V10.2625Z" fill="#85340A"/>
<path d="M10.3744 10.421C10.4159 10.421 10.4494 10.3874 10.4494 10.346C10.4494 10.3046 10.4159 10.271 10.3744 10.271C10.333 10.271 10.2994 10.3046 10.2994 10.346C10.2994 10.3874 10.333 10.421 10.3744 10.421Z" fill="#85340A"/>
<path d="M10.5964 10.3956C10.4505 10.5081 10.3047 10.4997 10.2214 10.4497C10.138 10.3956 10.138 10.3789 10.1547 10.3789C10.1714 10.3789 10.188 10.3956 10.2547 10.4331C10.3255 10.4664 10.4255 10.4664 10.5964 10.3956Z" fill="#85340A"/>
<path d="M9.83273 10.6538C9.82117 10.6565 9.8104 10.662 9.80136 10.6697C9.7923 10.6774 9.7852 10.6872 9.78067 10.6982C9.77613 10.7092 9.77427 10.7211 9.77523 10.7329C9.7762 10.7448 9.78 10.7562 9.78627 10.7664C9.79253 10.7765 9.80113 10.7849 9.8113 10.7911C9.8215 10.7972 9.833 10.8008 9.84487 10.8016C9.85673 10.8024 9.86863 10.8004 9.87956 10.7957C9.8905 10.791 9.90016 10.7838 9.90773 10.7746C9.93523 10.7917 9.96707 10.8004 9.9994 10.7996H10.0077C10.0327 10.7996 10.0744 10.7955 10.1036 10.7746C10.1161 10.7955 10.1411 10.8038 10.1661 10.8038C10.186 10.8055 10.2057 10.7992 10.2209 10.7863C10.2362 10.7734 10.2457 10.755 10.2473 10.7351C10.249 10.7152 10.2427 10.6954 10.2298 10.6802C10.2169 10.665 10.1985 10.6555 10.1786 10.6538C10.1994 10.6621 10.2119 10.6788 10.2119 10.7038C10.2119 10.7171 10.2066 10.7298 10.1973 10.7392C10.1879 10.7485 10.1752 10.7538 10.1619 10.7538C10.1487 10.7538 10.1359 10.7485 10.1266 10.7392C10.1172 10.7298 10.1119 10.7171 10.1119 10.7038C10.102 10.7244 10.0867 10.7419 10.0676 10.7543C10.0485 10.7668 10.0264 10.7739 10.0036 10.7746C9.9815 10.7731 9.96023 10.7658 9.94193 10.7533C9.92363 10.7409 9.90893 10.7238 9.8994 10.7038C9.8994 10.733 9.8744 10.7538 9.84523 10.7538C9.82023 10.7538 9.79523 10.7288 9.79523 10.7038C9.79523 10.6788 9.80773 10.6621 9.82856 10.6538H9.83273ZM9.91607 10.8788C9.82857 10.8788 9.79106 10.9621 9.71606 11.008C9.75773 10.9913 9.79107 10.958 9.85357 10.9246C9.9119 10.8913 9.9619 10.933 9.9994 10.933C10.0327 10.933 10.0827 10.8913 10.1452 10.9246C10.2036 10.958 10.2411 10.9913 10.2827 11.008C10.2036 10.958 10.1702 10.883 10.0827 10.883C10.0661 10.883 10.0327 10.8913 9.9994 10.908L9.91607 10.8788Z" fill="#85340A"/>
<path d="M9.88385 10.983C9.85052 10.983 9.80885 10.9914 9.74219 11.008C9.89635 10.9747 9.92969 11.0289 10.0005 11.0289C10.0672 11.0289 10.1047 10.9747 10.2547 11.008C10.088 10.958 10.0505 10.9914 10.0005 10.9914C9.96719 10.9914 9.94219 10.9789 9.88385 10.983Z" fill="#85340A"/>
<path d="M9.7494 11.008H9.71606C9.89523 11.0289 9.8119 11.133 9.9994 11.133C10.1869 11.133 10.1036 11.0289 10.2827 11.008C10.0952 10.9914 10.1536 11.1039 9.9994 11.1039C9.85357 11.1039 9.8994 11.008 9.7494 11.008Z" fill="#85340A"/>
<path d="M10.1546 11.287C10.1546 11.2461 10.1384 11.2069 10.1095 11.178C10.0806 11.1491 10.0413 11.1328 10.0005 11.1328C9.95958 11.1328 9.92038 11.1491 9.89145 11.178C9.86255 11.2069 9.84631 11.2461 9.84631 11.287C9.85445 11.2522 9.87411 11.2212 9.90208 11.199C9.93008 11.1768 9.96475 11.1647 10.0005 11.1647C10.0362 11.1647 10.0708 11.1768 10.0988 11.199C10.1268 11.2212 10.1465 11.2522 10.1546 11.287Z" fill="#85340A"/>
<path d="M9.30859 10.2625C9.50443 10.0917 9.75443 10.0625 9.89193 10.1917C9.92359 10.2334 9.94499 10.2819 9.95443 10.3334C9.97109 10.4334 9.94193 10.5375 9.86693 10.6459L9.90026 10.6625C9.96693 10.5334 9.99193 10.4 9.96693 10.2709L9.94193 10.175C9.75443 10.0209 9.49609 10.0084 9.30859 10.2584V10.2625Z" fill="#85340A"/>
<path d="M9.61618 10.2085C9.72868 10.2085 9.75368 10.2335 9.80368 10.2793C9.85368 10.321 9.88285 10.3127 9.88701 10.321C9.89951 10.3293 9.88701 10.3543 9.87451 10.346C9.85368 10.3377 9.82035 10.321 9.77035 10.2793C9.72035 10.2377 9.66618 10.2377 9.61618 10.2377C9.46201 10.2377 9.37868 10.3627 9.36201 10.3543C9.34118 10.346 9.44535 10.2085 9.61618 10.2085Z" fill="#85340A"/>
<path d="M9.60803 10.2632C9.5372 10.2632 9.4622 10.2965 9.42053 10.3632C9.50387 10.4424 9.69553 10.4465 9.8247 10.3549C9.7974 10.3259 9.76447 10.3028 9.72793 10.287C9.6914 10.2712 9.652 10.2632 9.6122 10.2632H9.60803ZM9.60803 10.2799C9.68303 10.2799 9.75387 10.3132 9.7622 10.3465C9.67887 10.4424 9.54137 10.4299 9.45387 10.3632C9.49553 10.3049 9.55387 10.2799 9.6122 10.2799H9.60803Z" fill="#843511"/>
<path d="M9.62053 10.421C9.66197 10.421 9.69553 10.3874 9.69553 10.346C9.69553 10.3046 9.66197 10.271 9.62053 10.271C9.57913 10.271 9.54553 10.3046 9.54553 10.346C9.54553 10.3874 9.57913 10.421 9.62053 10.421Z" fill="#85340A"/>
<path d="M9.41272 10.3956C9.55855 10.5081 9.70439 10.4997 9.78772 10.4497C9.87105 10.3956 9.87105 10.3789 9.85439 10.3789C9.83772 10.3789 9.82105 10.3956 9.75439 10.4331C9.68355 10.4664 9.58355 10.4664 9.41272 10.3956Z" fill="#85340A"/>
</g>
</g>
</g>
<defs>
<clipPath id="clip0_1023_3368">
<rect y="0.5" width="20" height="20" rx="10" fill="white"/>
</clipPath>
<clipPath id="clip1_1023_3368">
<rect width="26.6667" height="20" fill="white" transform="translate(-3.33337 0.5)"/>
</clipPath>
</defs>
</svg>
