<svg width="21" height="21" viewBox="0 0 21 21" fill="none" xmlns="http://www.w3.org/2000/svg">
<path d="M13.939 10.0246L6.62445 3.05527C6.5024 2.93893 6.34025 2.87402 6.17163 2.87402C6.00302 2.87402 5.84087 2.93893 5.71882 3.05527L5.71095 3.06315C5.65158 3.11955 5.6043 3.18744 5.57199 3.26269C5.53969 3.33794 5.52303 3.41898 5.52303 3.50087C5.52303 3.58276 5.53969 3.66379 5.57199 3.73904C5.6043 3.81429 5.65158 3.88218 5.71095 3.93859L12.5989 10.5011L5.71095 17.061C5.65157 17.1174 5.6043 17.1853 5.57199 17.2605C5.53969 17.3358 5.52303 17.4168 5.52303 17.4987C5.52303 17.5806 5.53969 17.6616 5.57199 17.7369C5.6043 17.8121 5.65157 17.88 5.71095 17.9364L5.71882 17.9443C5.84087 18.0606 6.00301 18.1255 6.17163 18.1255C6.34025 18.1255 6.5024 18.0606 6.62445 17.9443L13.939 10.9749C14.0033 10.9136 14.0545 10.8399 14.0895 10.7582C14.1245 10.6766 14.1426 10.5886 14.1426 10.4998C14.1426 10.4109 14.1245 10.323 14.0895 10.2413C14.0545 10.1597 14.0033 10.0859 13.939 10.0246Z" fill="white"/>
</svg>
