<svg width="22" height="23" viewBox="0 0 22 23" fill="none" xmlns="http://www.w3.org/2000/svg">
<path d="M10.9334 16.4867C10.3836 16.4868 9.85402 16.2798 9.45001 15.907C9.046 15.5342 8.79723 15.0229 8.75326 14.4749C7.29495 13.9587 6.0659 12.944 5.28304 11.6097C4.50019 10.2755 4.21387 8.70752 4.47463 7.18269C4.7354 5.65787 5.52647 4.27419 6.70822 3.2759C7.88997 2.27762 9.3864 1.72892 10.9334 1.72667C12.5787 1.72643 14.1641 2.3445 15.3751 3.45832C16.5861 4.57214 17.3344 6.10037 17.4715 7.74C17.4761 7.81112 17.4658 7.88242 17.4413 7.94935C17.4169 8.01629 17.3787 8.0774 17.3294 8.12881C17.28 8.18022 17.2205 8.22081 17.1546 8.24798C17.0888 8.27516 17.0179 8.28833 16.9467 8.28667C16.8003 8.28276 16.6606 8.22469 16.5546 8.12371C16.4485 8.02273 16.3837 7.88601 16.3727 7.74C16.2753 6.77332 15.9221 5.85005 15.3493 5.06524C14.7766 4.28044 14.005 3.66246 13.114 3.27492C12.2231 2.88739 11.245 2.7443 10.2804 2.8604C9.31574 2.97649 8.39949 3.34756 7.62593 3.93542C6.85237 4.52328 6.24946 5.30667 5.87927 6.20496C5.50907 7.10325 5.38497 8.08397 5.51973 9.04616C5.6545 10.0083 6.04326 10.9172 6.646 11.6793C7.24873 12.4413 8.04367 13.0289 8.94896 13.3816C9.11369 13.0257 9.37111 12.7206 9.69426 12.4983C10.0174 12.2761 10.3944 12.1448 10.7857 12.1183C11.177 12.0918 11.5682 12.1711 11.9184 12.3477C12.2685 12.5244 12.5647 12.792 12.7759 13.1225C12.9872 13.4529 13.1056 13.8341 13.1188 14.2261C13.1321 14.6181 13.0397 15.0064 12.8513 15.3504C12.6629 15.6944 12.3854 15.9814 12.048 16.1813C11.7106 16.3812 11.3256 16.4867 10.9334 16.4867ZM5.47654 13.7533H5.57603C6.00243 14.1699 6.47584 14.5373 6.98862 14.8467H5.47654C4.86318 14.8467 4.37336 15.3354 4.37336 15.94C4.37336 17.3712 5.05342 18.4372 6.20251 19.1686C7.37238 19.9154 9.03643 20.3133 10.9334 20.3133C12.8303 20.3133 14.4943 19.9154 15.6642 19.1686C16.8122 18.4361 17.4934 17.3723 17.4934 15.94C17.4934 15.65 17.3782 15.3719 17.1731 15.1669C16.9681 14.9619 16.69 14.8467 16.4 14.8467H14.1685C14.2293 14.4848 14.2293 14.1152 14.1685 13.7533H16.4C16.98 13.7533 17.5362 13.9837 17.9462 14.3938C18.3563 14.8039 18.5867 15.3601 18.5867 15.94C18.5867 17.7888 17.6759 19.1828 16.2524 20.0914C14.8508 20.9846 12.9615 21.4067 10.9334 21.4067C8.90523 21.4067 7.01595 20.9846 5.6143 20.0914C4.19078 19.1839 3.28003 17.7877 3.28003 15.94C3.28003 14.7231 4.26731 13.7533 5.47654 13.7533ZM15.3067 8.28667C15.3072 9.02652 15.1199 9.7544 14.7623 10.4021C14.4047 11.0498 13.8886 11.5961 13.2622 11.9898C12.9702 11.6956 12.6252 11.4593 12.2454 11.2933C12.936 10.9919 13.5018 10.4619 13.8476 9.79237C14.1934 9.12285 14.2981 8.35468 14.1442 7.61703C13.9902 6.87938 13.587 6.21723 13.0022 5.74193C12.4175 5.26663 11.6869 5.00717 10.9334 5.00717C10.1798 5.00717 9.44925 5.26663 8.8645 5.74193C8.27976 6.21723 7.87651 6.87938 7.72255 7.61703C7.56859 8.35468 7.67332 9.12285 8.01913 9.79237C8.36493 10.4619 8.93072 10.9919 9.62136 11.2933C9.2387 11.4606 8.8943 11.6979 8.60456 11.9898C7.77477 11.4668 7.14423 10.6807 6.81368 9.7572C6.64515 9.28527 6.55934 8.78779 6.56003 8.28667C6.56003 7.12679 7.02079 6.01441 7.84095 5.19426C8.66111 4.3741 9.77348 3.91334 10.9334 3.91334C12.0932 3.91334 13.2056 4.3741 14.0258 5.19426C14.8459 6.01441 15.3067 7.12679 15.3067 8.28667Z" fill="white"/>
</svg>
