<svg width="23" height="23" viewBox="0 0 23 23" fill="none" xmlns="http://www.w3.org/2000/svg">
<path d="M8.96545 3.06668C9.78524 2.66184 10.6874 2.45166 11.6017 2.4525C14.9979 2.4525 17.7526 5.31018 17.7526 8.83581V9.47824C17.7515 10.2451 17.9704 10.9962 18.3832 11.6425L19.3929 13.2135C20.3142 14.6487 19.6107 16.5997 18.0078 17.0535C13.8196 18.2408 9.38381 18.2408 5.19561 17.0535C3.59272 16.5997 2.88924 14.6487 3.81051 13.2144L4.82017 11.6425C5.23301 10.9962 5.45186 10.2451 5.45076 9.47824V8.83581C5.45076 7.85713 5.66308 6.92947 6.04307 6.10024M7.50107 17.9438C8.09794 19.5366 9.70812 20.6775 11.6017 20.6775C11.825 20.6775 12.0437 20.662 12.2578 20.6319M15.7023 17.9438C15.4556 18.5943 15.0473 19.1713 14.5159 19.6205" stroke="white" stroke-width="1.5" stroke-linecap="round"/>
</svg>
