<svg width="20" height="21" viewBox="0 0 20 21" fill="none" xmlns="http://www.w3.org/2000/svg">
<path d="M16.6666 13.0001V6.75014L11.4583 3.82056M8.54159 3.82056L3.33325 6.75014V13.0001M4.58325 14.9535L9.99992 18.0001L13.3333 16.1251L15.4166 14.9535" stroke="#567596" stroke-linecap="round" stroke-linejoin="round"/>
<path d="M8.75 8.31266L7.5 9.04183V11.9585L8.75 12.6877L10 13.4168L11.25 12.6877L12.5 11.9585V9.04183L11.25 8.31266L10 7.5835L8.75 8.31266Z" fill="#567596" stroke="#567596" stroke-linecap="round" stroke-linejoin="round"/>
<path d="M9.99992 7.58341V4.66675M12.4999 11.7501L15.4166 13.4167M7.49992 11.7501L4.58325 13.4167" stroke="#567596" stroke-linecap="round" stroke-linejoin="round"/>
<path d="M10 4.66675C10.6904 4.66675 11.25 4.1071 11.25 3.41675C11.25 2.72639 10.6904 2.16675 10 2.16675C9.30964 2.16675 8.75 2.72639 8.75 3.41675C8.75 4.1071 9.30964 4.66675 10 4.66675Z" fill="#567596" stroke="#567596" stroke-linecap="round" stroke-linejoin="round"/>
<path d="M3.33325 15.5C4.02361 15.5 4.58325 14.9404 4.58325 14.25C4.58325 13.5596 4.02361 13 3.33325 13C2.6429 13 2.08325 13.5596 2.08325 14.25C2.08325 14.9404 2.6429 15.5 3.33325 15.5Z" fill="#567596" stroke="#567596" stroke-linecap="round" stroke-linejoin="round"/>
<path d="M16.6665 15.5C17.3569 15.5 17.9165 14.9404 17.9165 14.25C17.9165 13.5596 17.3569 13 16.6665 13C15.9761 13 15.4165 13.5596 15.4165 14.25C15.4165 14.9404 15.9761 15.5 16.6665 15.5Z" fill="#567596" stroke="#567596" stroke-linecap="round" stroke-linejoin="round"/>
</svg>
