<svg width="20" height="21" viewBox="0 0 20 21" fill="none" xmlns="http://www.w3.org/2000/svg">
<g clip-path="url(#clip0_1023_3456)">
<path fill-rule="evenodd" clip-rule="evenodd" d="M-0.333374 -1.1665H20.3333V22.1668H-0.333374V-1.1665Z" fill="#229E45"/>
<path fill-rule="evenodd" clip-rule="evenodd" d="M10.0364 15.5717L17.9224 10.508L9.98927 5.42871L2.07703 10.5183L10.0364 15.5717Z" fill="#F8E509"/>
<path fill-rule="evenodd" clip-rule="evenodd" d="M13.4734 10.5002C13.4734 12.3192 11.9799 13.7941 10.1359 13.7941C9.47696 13.7931 8.8331 13.5988 8.28574 13.2359C7.73836 12.8729 7.31208 12.3576 7.06075 11.755C6.8094 11.1524 6.74432 10.4896 6.8737 9.85042C7.00308 9.21123 7.32112 8.62434 7.78762 8.16395C8.25412 7.70354 8.84814 7.39031 9.49455 7.26383C10.141 7.13733 10.8108 7.20328 11.4194 7.45334C12.0279 7.7034 12.5479 8.12632 12.9135 8.66864C13.2791 9.21098 13.474 9.84837 13.4734 10.5002Z" fill="#2B49A3"/>
<path fill-rule="evenodd" clip-rule="evenodd" d="M9.04014 12.4747L8.93552 12.4152L8.83089 12.467L8.85443 12.3505L8.77073 12.2625L8.88844 12.2496L8.94598 12.1461L8.99568 12.2548L9.11076 12.2755L9.02445 12.3531M11.2739 13.0336L11.1719 12.9741L11.0672 13.0259L11.0882 12.9094L11.0071 12.824L11.1248 12.8111L11.1797 12.705L11.232 12.8137L11.3471 12.8344L11.2582 12.9146M10.3113 12.1383L10.2224 12.0866L10.1309 12.1332L10.1518 12.0323L10.0785 11.9572L10.1832 11.9469L10.2302 11.8537L10.2721 11.9495L10.3741 11.9676L10.2956 12.0374M12.5712 11.8175L12.4823 11.7657L12.3908 11.8123L12.4117 11.7114L12.3411 11.639L12.4431 11.6286L12.4901 11.538L12.532 11.6312L12.6314 11.6493L12.5555 11.7166M10.2721 11.1473L10.1675 11.0904L10.0629 11.1422L10.0838 11.0231L10.0027 10.9377L10.1204 10.9248L10.1753 10.8187L10.2276 10.9274L10.3427 10.9481L10.2538 11.0309M7.51785 10.1253L7.41323 10.0683L7.3086 10.1201L7.33476 10.0011L7.24844 9.91568L7.36876 9.90275L7.42107 9.79666L7.47339 9.90533L7.58847 9.92603L7.50216 10.0062M7.85004 11.4863L7.74541 11.4268L7.64079 11.4785L7.66433 11.3621L7.58063 11.2767L7.69833 11.2612L7.75326 11.1577L7.80557 11.2664L7.92066 11.2871L7.83434 11.3673M11.287 9.62588L11.1928 9.57413L11.0986 9.62071L11.1196 9.51721L11.0463 9.43958L11.1509 9.42665L11.2006 9.3335L11.2451 9.43182L11.3497 9.44993L11.2713 9.5198M11.096 10.5108L11.0254 10.4694L10.9495 10.5056L10.9652 10.4228L10.9077 10.3633L10.9914 10.353L11.0306 10.2805L11.0646 10.3581L11.1431 10.3711L11.0856 10.428M7.36615 11.7321L7.29552 11.6933L7.2249 11.7269L7.2406 11.6493L7.18567 11.5924L7.26414 11.582L7.30076 11.5122L7.33476 11.5846L7.41323 11.6001L7.35307 11.6519M12.5895 12.0478L12.532 12.0193L12.4745 12.0452L12.4875 11.9857L12.4431 11.9443L12.5058 11.9365L12.5372 11.8848L12.5634 11.9365L12.6288 11.9495L12.5791 11.9883" fill="#FFFFEF"/>
<path fill-rule="evenodd" clip-rule="evenodd" d="M7.36615 11.7317L7.29552 11.6928L7.2249 11.7265L7.2406 11.6489L7.18567 11.5919L7.26414 11.5816L7.30076 11.5117L7.33476 11.5842L7.41323 11.5997L7.35307 11.6514" fill="#FFFFEF"/>
<path fill-rule="evenodd" clip-rule="evenodd" d="M7.36615 11.7318L7.29552 11.693L7.2249 11.7266L7.2406 11.649L7.18567 11.5921L7.26414 11.5817L7.30076 11.5119L7.33476 11.5843L7.41323 11.5998L7.35307 11.6516M8.45948 11.7292L8.39147 11.693L8.32085 11.7266L8.33654 11.649L8.28161 11.5921L8.36008 11.5817L8.3967 11.5119L8.4307 11.5843L8.50917 11.5972L8.44901 11.6516M8.32346 12.0915L8.25546 12.0526L8.18484 12.0889L8.20053 12.0112L8.1456 11.9517L8.22407 11.9414L8.26069 11.8715L8.29469 11.944L8.37316 11.9595L8.313 12.0112M10.5991 11.4368L10.531 11.3954L10.4578 11.4316L10.4735 11.354L10.4212 11.2945L10.4997 11.2867L10.5363 11.2169L10.5677 11.2893L10.6461 11.3023L10.5886 11.3566M9.93207 11.4342L9.86145 11.3954L9.79083 11.4316L9.80652 11.354L9.75421 11.2945L9.83268 11.2867L9.86929 11.2143L9.90068 11.2893L9.97915 11.3023L9.92161 11.3566M8.12206 11.2065L8.07759 11.1807L8.03313 11.2014L8.04359 11.1522L8.00959 11.116L8.05929 11.1108L8.08021 11.0668L8.10114 11.1134L8.15083 11.1211L8.11421 11.1548M12.5032 12.3295L12.4352 12.2907L12.3646 12.3269L12.3803 12.2493L12.3254 12.1898L12.4038 12.1794L12.4404 12.1096L12.4745 12.182L12.5529 12.1975L12.4928 12.2493M11.9487 12.4045L11.8912 12.3683L11.831 12.3994L11.8441 12.3321L11.7996 12.2855L11.865 12.2778L11.8964 12.2182L11.9226 12.2803L11.9879 12.2907L11.9383 12.3373M12.2103 12.3968L12.158 12.3657L12.103 12.3916L12.1135 12.3321L12.0716 12.2881L12.1318 12.2803L12.1606 12.2286L12.1867 12.2803L12.2469 12.2933L12.2024 12.3347M12.9636 11.7447L12.9113 11.7189L12.8589 11.7447L12.872 11.6852L12.8302 11.6412L12.8903 11.6335L12.9165 11.5817L12.9426 11.6361L12.9976 11.6464L12.9557 11.6878M11.9409 12.7694L11.8755 12.7332L11.8049 12.7642L11.8205 12.6918L11.7682 12.64L11.8467 12.6322L11.8807 12.5676L11.9121 12.6348L11.9906 12.6478L11.9304 12.6969M11.9461 13.0644L11.8833 13.0281L11.8205 13.0618L11.8362 12.9893L11.7865 12.9376L11.8572 12.9272L11.8886 12.8625L11.9173 12.9298L11.9879 12.9427L11.9356 12.9945M11.4387 12.3968L11.389 12.3657L11.3367 12.3916L11.3471 12.3347L11.3079 12.2907L11.3654 12.2855L11.3916 12.2338L11.4177 12.2855L11.4753 12.2959L11.4334 12.3373M10.9679 12.3968L10.9155 12.3657L10.8632 12.3916L10.8763 12.3347L10.8345 12.2907L10.8946 12.2855L10.9208 12.2338L10.9469 12.2855L11.0019 12.2959L10.96 12.3373M10.1649 11.7007L10.1125 11.6723L10.0602 11.6982L10.0733 11.6386L10.0315 11.5972L10.089 11.5895L10.1152 11.5377L10.1413 11.5895L10.1989 11.6024L10.157 11.6412M10.2538 13.1161L10.2119 13.0928L10.1649 13.1161L10.1753 13.0644L10.1413 13.0281L10.191 13.023L10.2146 12.979L10.2355 13.0255L10.2852 13.0333L10.2486 13.0669M9.04014 10.8262L8.93552 10.7667L8.83089 10.8184L8.85443 10.702L8.77073 10.6166L8.88844 10.6011L8.94598 10.4976L8.99568 10.6062L9.11077 10.6269L9.02445 10.7071" fill="#FFFFEF"/>
<path fill-rule="evenodd" clip-rule="evenodd" d="M13.2537 11.6854C13.3185 11.5191 13.3692 11.3478 13.4054 11.1731C11.632 9.63356 9.6572 8.84437 7.1619 9.00739C7.0714 9.18062 6.99699 9.36163 6.93958 9.54817C9.89523 9.26872 12.0662 10.5625 13.2537 11.6854Z" fill="white"/>
<path d="M12.4583 10.8211L12.5184 10.8548C12.5095 10.8723 12.5067 10.8924 12.5106 10.9117C12.5167 10.9304 12.5298 10.9461 12.5472 10.9557C12.5655 10.9686 12.5838 10.9764 12.5995 10.9738C12.6152 10.9738 12.6257 10.966 12.6335 10.9557C12.6381 10.9488 12.6399 10.9405 12.6387 10.9324C12.6366 10.9228 12.6321 10.9139 12.6257 10.9065C12.6204 10.8988 12.6074 10.8806 12.5864 10.8599C12.5649 10.838 12.5488 10.8114 12.5394 10.7823C12.5328 10.7603 12.5345 10.7367 12.5441 10.7158C12.5537 10.6949 12.5706 10.6781 12.5917 10.6685C12.6107 10.6606 12.6317 10.6588 12.6518 10.6633C12.6764 10.6689 12.6996 10.6795 12.7198 10.6943C12.7565 10.7202 12.78 10.7461 12.7878 10.7771C12.7915 10.7917 12.7919 10.8068 12.7892 10.8215C12.7865 10.8362 12.7807 10.8502 12.7721 10.8625L12.7094 10.8237C12.7172 10.8082 12.7198 10.7927 12.7146 10.7797C12.712 10.7668 12.7015 10.7539 12.6832 10.7435C12.6698 10.7328 12.6534 10.7265 12.6361 10.7254C12.6314 10.7252 12.6267 10.7263 12.6226 10.7286C12.6184 10.7309 12.615 10.7343 12.6126 10.7383C12.6074 10.7461 12.6074 10.7539 12.61 10.7642C12.6126 10.7746 12.6257 10.7953 12.6518 10.8211C12.678 10.847 12.6937 10.8703 12.7041 10.8858C12.7135 10.9028 12.7177 10.922 12.7163 10.9413C12.7149 10.9606 12.708 10.979 12.6963 10.9945C12.6841 11.0121 12.6667 11.0256 12.6466 11.0333C12.627 11.0422 12.6051 11.045 12.5838 11.0411C12.5603 11.0359 12.5367 11.0255 12.5106 11.0074C12.4713 10.9816 12.4478 10.9531 12.44 10.922C12.4314 10.8868 12.4371 10.8497 12.4557 10.8185L12.4583 10.8211ZM12.1549 10.6245L12.2202 10.6581C12.2122 10.676 12.2103 10.696 12.215 10.715C12.2217 10.7328 12.2347 10.7475 12.2516 10.7564C12.2726 10.7694 12.2883 10.7746 12.3039 10.772C12.3196 10.772 12.3301 10.7642 12.338 10.7513C12.3419 10.7451 12.3438 10.7379 12.3432 10.7306C12.3432 10.7228 12.338 10.7125 12.3301 10.7047C12.3167 10.6887 12.3028 10.6732 12.2883 10.6581C12.2595 10.6297 12.2412 10.6064 12.2359 10.5857C12.2317 10.5724 12.2304 10.5583 12.2322 10.5444C12.234 10.5306 12.2389 10.5173 12.2464 10.5055C12.2564 10.4895 12.271 10.4769 12.2883 10.4692C12.3062 10.461 12.3263 10.4583 12.3458 10.4615C12.37 10.4655 12.3931 10.4743 12.4138 10.4873C12.453 10.5132 12.4766 10.5391 12.4844 10.5676C12.4892 10.5821 12.4907 10.5975 12.4889 10.6127C12.4871 10.6279 12.482 10.6425 12.474 10.6555L12.4086 10.6193C12.4164 10.6012 12.419 10.5883 12.4138 10.5753C12.4086 10.5624 12.3981 10.5494 12.3798 10.5391C12.3653 10.5288 12.3479 10.5234 12.3301 10.5236C12.3258 10.5239 12.3217 10.5252 12.318 10.5274C12.3144 10.5297 12.3113 10.5328 12.3092 10.5365C12.3039 10.5443 12.3039 10.552 12.3066 10.5624C12.3092 10.5727 12.3249 10.5934 12.351 10.6193C12.3772 10.6452 12.3955 10.6659 12.4033 10.6814C12.4138 10.6976 12.4194 10.7165 12.4194 10.7357C12.4194 10.755 12.4138 10.7738 12.4033 10.7901C12.3921 10.8081 12.3757 10.8225 12.3563 10.8315C12.3367 10.8404 12.3147 10.8431 12.2935 10.8392C12.2666 10.8347 12.2408 10.8251 12.2176 10.8108C12.1838 10.793 12.1578 10.7635 12.1444 10.728C12.1343 10.6934 12.138 10.6564 12.1549 10.6245ZM11.7834 10.5262L11.9744 10.2157L12.2046 10.358L12.1732 10.4097L12.0058 10.3062L11.9639 10.3761L12.1209 10.4718L12.0869 10.5236L11.9299 10.4278L11.8776 10.5132L12.0529 10.6167L12.0215 10.6685L11.7861 10.5262H11.7834ZM11.242 10.0863L11.2708 10.0345L11.412 10.1044L11.3466 10.2338C11.3257 10.2389 11.2996 10.2415 11.2682 10.2389C11.238 10.2356 11.2088 10.2269 11.1818 10.2131C11.1502 10.1978 11.1232 10.1746 11.1034 10.1458C11.0854 10.119 11.0763 10.0874 11.0772 10.0552C11.0786 10.0218 11.0875 9.98905 11.1034 9.95949C11.1191 9.92838 11.1425 9.90167 11.1714 9.88186C11.199 9.86294 11.2319 9.85301 11.2655 9.8534C11.2917 9.8534 11.3179 9.86116 11.3492 9.87928C11.3911 9.89739 11.4173 9.92326 11.4303 9.95173C11.4439 9.97998 11.4467 10.0122 11.4382 10.0423L11.3676 10.0216C11.3719 10.0043 11.37 9.98599 11.3623 9.96984C11.3545 9.95431 11.3414 9.94396 11.3205 9.93361C11.3083 9.92672 11.2948 9.92248 11.2808 9.92113C11.2668 9.91981 11.2527 9.9214 11.2394 9.92585C11.2132 9.93361 11.1897 9.9569 11.1714 9.99313C11.1531 10.0294 11.1452 10.063 11.1531 10.0915C11.1567 10.1049 11.1632 10.1175 11.1723 10.1282C11.1813 10.139 11.1926 10.1476 11.2054 10.1536C11.2185 10.1613 11.2342 10.1665 11.2499 10.1665C11.2655 10.1688 11.2813 10.1688 11.2969 10.1665L11.3179 10.1251L11.242 10.0863ZM8.88272 9.50926L8.93503 9.14701L9.04489 9.16513L9.07366 9.4187L9.17567 9.18583L9.28552 9.20135L9.23321 9.55843L9.16259 9.54808L9.20706 9.26604L9.09197 9.53773L9.02135 9.52738L8.99257 9.23499L8.95072 9.51961L8.88272 9.50926ZM8.51392 9.46528L8.54792 9.10303L8.81733 9.1289L8.8121 9.191L8.61593 9.17289L8.60808 9.25051L8.79117 9.26863L8.78333 9.33073L8.60023 9.31261L8.59238 9.41094L8.7964 9.42905L8.79117 9.49115L8.51392 9.46528Z" fill="#309E3A"/>
<path d="M7.2925 9.24001C7.2925 9.2012 7.30034 9.17274 7.31081 9.14686C7.31997 9.12846 7.33236 9.11182 7.34742 9.0977C7.36084 9.08433 7.37684 9.07375 7.39451 9.06665C7.42066 9.05889 7.44682 9.05371 7.47297 9.05371C7.5279 9.05371 7.56975 9.07441 7.60376 9.10546C7.61993 9.12525 7.63196 9.14802 7.63916 9.17245C7.64634 9.19689 7.64853 9.2225 7.6456 9.24777C7.6456 9.3047 7.6273 9.35127 7.59329 9.38491C7.57582 9.40089 7.55515 9.41306 7.53261 9.42064C7.51009 9.42822 7.4862 9.43103 7.46251 9.4289C7.43912 9.42913 7.41593 9.42468 7.39436 9.41577C7.37279 9.40687 7.35324 9.39373 7.33696 9.37715C7.3044 9.33904 7.28842 9.28973 7.2925 9.24001Z" fill="#309E3A"/>
<path d="M7.36877 9.23997C7.36877 9.27878 7.37662 9.30983 7.39493 9.33312C7.41324 9.35382 7.43678 9.36676 7.46817 9.36676C7.48175 9.36771 7.49537 9.36564 7.50803 9.36071C7.52071 9.35579 7.53209 9.34813 7.54141 9.33829C7.55971 9.31759 7.56756 9.28654 7.57018 9.24256C7.57018 9.20116 7.56495 9.17011 7.54402 9.14941C7.5355 9.13897 7.52475 9.13055 7.51253 9.12473C7.50031 9.11892 7.48696 9.11585 7.4734 9.11577C7.45963 9.11534 7.44595 9.1179 7.43329 9.12326C7.42065 9.12862 7.40933 9.13668 7.40016 9.14682C7.37924 9.16752 7.37139 9.19857 7.36877 9.23997Z" fill="#F7FFFF"/>
<path d="M7.72437 9.42621L7.7296 9.06396H7.88653C7.92577 9.06396 7.95192 9.06914 7.97023 9.0769C7.98854 9.08208 8.00162 9.09501 8.01208 9.11054C8.02255 9.12606 8.02778 9.14676 8.02778 9.17005C8.02799 9.19495 8.01863 9.21899 8.00162 9.23733C7.98229 9.25525 7.95741 9.26618 7.931 9.26838L7.97023 9.29943C7.9807 9.30978 7.99377 9.33048 8.00947 9.35894L8.05393 9.43139H7.965L7.91269 9.34859L7.87607 9.29684C7.86973 9.28972 7.86161 9.28436 7.85253 9.28131C7.84062 9.27788 7.8283 9.27614 7.81591 9.27614H7.80022V9.42621H7.72437Z" fill="#309E3A"/>
<path d="M7.80273 9.21961H7.85505C7.89167 9.21961 7.91521 9.21961 7.92305 9.21444C7.9309 9.21444 7.93875 9.20668 7.94398 9.2015C7.94921 9.19633 7.95182 9.18339 7.95182 9.17563C7.95182 9.1601 7.94921 9.14975 7.94136 9.14458C7.93613 9.13681 7.92567 9.13164 7.91521 9.12905H7.86289L7.80273 9.12646V9.21703V9.21961Z" fill="white"/>
<path d="M8.14319 9.08203L8.2792 9.08979C8.30797 9.08979 8.33151 9.09238 8.34721 9.09756C8.36757 9.10486 8.3856 9.11737 8.39952 9.13378C8.41458 9.15187 8.42532 9.17311 8.4309 9.19588C8.43875 9.21917 8.44137 9.24763 8.43875 9.28127C8.43871 9.30768 8.4343 9.33391 8.42567 9.35889C8.41521 9.38477 8.39952 9.40547 8.38121 9.42099C8.36595 9.43341 8.34808 9.44227 8.3289 9.44687C8.3132 9.45204 8.28966 9.45204 8.26351 9.45204L8.12488 9.44428L8.14319 9.08203Z" fill="#309E3A"/>
<path d="M8.21388 9.14648L8.20081 9.38712H8.3002C8.31328 9.38712 8.32374 9.38195 8.33159 9.37418C8.33943 9.36642 8.34728 9.35607 8.35251 9.34055C8.35774 9.32502 8.36297 9.30173 8.36297 9.27327L8.36036 9.20858C8.35663 9.19494 8.34944 9.18248 8.33943 9.17236C8.33075 9.16373 8.31993 9.15748 8.30805 9.15425C8.28827 9.1499 8.26814 9.14729 8.24789 9.14648H8.21388Z" fill="white"/>
<path d="M9.93701 9.72885L10.0233 9.37695L10.1384 9.40283L10.2221 9.4287C10.2404 9.43905 10.2561 9.45458 10.264 9.47787C10.2744 9.49857 10.2744 9.52185 10.2692 9.55032C10.264 9.57102 10.2561 9.58913 10.243 9.60207C10.2335 9.61343 10.2214 9.62256 10.2079 9.62883C10.1943 9.63508 10.1795 9.63831 10.1646 9.63829C10.1463 9.63829 10.1201 9.63312 10.0861 9.62535L10.0416 9.61242L10.0102 9.74697L9.93701 9.72885Z" fill="#309E3A"/>
<path d="M10.0781 9.45459L10.0571 9.55291L10.0964 9.56326C10.1225 9.56844 10.1434 9.57361 10.1539 9.57103C10.1641 9.56964 10.1736 9.56515 10.1811 9.55819C10.1886 9.55126 10.1937 9.54217 10.1958 9.53221C10.1958 9.51928 10.1958 9.50893 10.1905 9.49858C10.1848 9.48806 10.1755 9.47984 10.1644 9.47529L10.1147 9.46235L10.0807 9.45459H10.0781Z" fill="white"/>
<path d="M10.277 9.83032L10.3999 9.48877L10.5438 9.54052C10.583 9.55346 10.6065 9.56639 10.6222 9.57674C10.6353 9.58968 10.6458 9.60262 10.6484 9.62332C10.651 9.64402 10.6536 9.66213 10.6484 9.68283C10.6379 9.70871 10.6222 9.72682 10.6013 9.73976C10.5804 9.75011 10.5542 9.75269 10.5228 9.74752C10.5333 9.76046 10.5438 9.77339 10.549 9.78892L10.5699 9.85878L10.5856 9.93899L10.5045 9.91053L10.4784 9.81738C10.4736 9.79631 10.4675 9.77557 10.4601 9.75528C10.4566 9.74723 10.4512 9.74013 10.4444 9.73458C10.4391 9.72682 10.4287 9.72164 10.4104 9.71647L10.3973 9.71129L10.345 9.85619L10.277 9.83032Z" fill="#309E3A"/>
<path d="M10.4185 9.65668L10.4682 9.67479C10.5022 9.68773 10.5231 9.6929 10.5336 9.6929C10.5414 9.6929 10.5493 9.6929 10.5571 9.68514C10.565 9.67996 10.5702 9.6722 10.5728 9.66185C10.5781 9.6515 10.5781 9.64115 10.5728 9.6308C10.569 9.62078 10.5615 9.6125 10.5519 9.60751L10.4996 9.5894L10.4473 9.57129L10.4159 9.65668H10.4185Z" fill="white"/>
<path d="M10.706 9.81697C10.715 9.78669 10.7301 9.75851 10.7504 9.73417C10.7636 9.71856 10.7796 9.70542 10.7975 9.69536C10.8137 9.68631 10.8314 9.68016 10.8498 9.67725C10.876 9.67725 10.9021 9.67725 10.9309 9.6876C10.9543 9.69333 10.9762 9.70391 10.9951 9.71863C11.0141 9.73334 11.0296 9.75187 11.0408 9.77298C11.0617 9.81438 11.0617 9.86355 11.046 9.92047C11.0331 9.96939 11.0011 10.0112 10.9571 10.0369C10.9178 10.0602 10.8707 10.0628 10.821 10.0473C10.7977 10.0414 10.7759 10.0308 10.757 10.0161C10.7381 10.0013 10.7225 9.9829 10.7112 9.96187C10.7007 9.93927 10.6949 9.91482 10.694 9.88994C10.6931 9.86508 10.6971 9.84028 10.706 9.81697Z" fill="#309E3A"/>
<path d="M10.7796 9.83736C10.7691 9.87618 10.7665 9.90981 10.7796 9.93569C10.7927 9.96156 10.811 9.97709 10.8398 9.98744C10.8659 9.9952 10.8921 9.99261 10.9182 9.97709C10.9444 9.96415 10.9601 9.93569 10.9732 9.89429C10.9862 9.85548 10.9862 9.82443 10.9732 9.79855C10.968 9.78628 10.9602 9.77526 10.9502 9.76632C10.9403 9.75738 10.9285 9.75071 10.9156 9.7468C10.9028 9.74239 10.8891 9.74082 10.8755 9.74217C10.862 9.74349 10.8489 9.74773 10.8372 9.75456C10.811 9.77009 10.7927 9.79596 10.7796 9.83736Z" fill="white"/>
<path d="M11.4205 10.3213L11.5879 10.0005L11.7266 10.0704C11.7527 10.0828 11.7765 10.0994 11.7972 10.1195C11.8103 10.1325 11.8181 10.148 11.8181 10.1687C11.8181 10.1894 11.8181 10.2075 11.8076 10.2256C11.7976 10.2489 11.7789 10.2674 11.7553 10.2774C11.7292 10.2825 11.703 10.2825 11.6742 10.2722C11.6847 10.2877 11.6899 10.3032 11.6952 10.3162C11.7004 10.3317 11.703 10.355 11.7056 10.3886L11.7109 10.4714L11.6324 10.4326L11.6219 10.3369C11.6207 10.3152 11.6181 10.2936 11.6141 10.2722C11.6123 10.2625 11.6078 10.2535 11.601 10.2463L11.5696 10.2282L11.5565 10.2204L11.4859 10.355L11.4205 10.3213Z" fill="#309E3A"/>
<path d="M11.5824 10.1692L11.6321 10.1951C11.6635 10.2106 11.6844 10.221 11.6923 10.221C11.7001 10.221 11.7106 10.221 11.7184 10.2158C11.7263 10.2132 11.7315 10.2055 11.7367 10.1951C11.742 10.1848 11.7446 10.1744 11.742 10.1641C11.7387 10.1537 11.7323 10.1447 11.7236 10.1382C11.7083 10.1289 11.6926 10.1202 11.6766 10.1123L11.6242 10.0864L11.5824 10.1692Z" fill="white"/>
<path d="M12.7753 10.9841C12.7922 10.9575 12.8145 10.9346 12.8407 10.9168C12.8583 10.9056 12.8778 10.8978 12.8982 10.8935C12.9172 10.8897 12.9368 10.8897 12.9558 10.8935C12.9819 10.8987 13.0055 10.909 13.029 10.9245C13.0493 10.9371 13.0668 10.9537 13.0804 10.9733C13.0939 10.9929 13.1031 11.0151 13.1075 11.0384C13.1153 11.0824 13.1022 11.1315 13.0709 11.1807C13.0446 11.2235 13.0023 11.2542 12.9532 11.2661C12.9297 11.2711 12.9055 11.2711 12.8821 11.2662C12.8586 11.2613 12.8365 11.2516 12.8171 11.2376C12.7968 11.2251 12.7793 11.2085 12.7658 11.1889C12.7523 11.1693 12.743 11.1471 12.7387 11.1238C12.7308 11.0772 12.7439 11.0306 12.7753 10.9841Z" fill="#309E3A"/>
<path d="M12.8404 11.0257C12.8142 11.0593 12.8064 11.0904 12.8116 11.1188C12.8135 11.132 12.8182 11.1445 12.8255 11.1557C12.8327 11.1668 12.8422 11.1763 12.8534 11.1835C12.8796 11.2016 12.9058 11.2068 12.9319 11.1991C12.9581 11.1913 12.9842 11.1732 13.0078 11.137C13.0313 11.1007 13.0418 11.0697 13.0365 11.0438C13.0339 11.0179 13.0182 10.9946 12.9947 10.9765C12.9711 10.9584 12.9424 10.9558 12.9162 10.9636C12.8901 10.9688 12.8639 10.9895 12.8377 11.0257H12.8404Z" fill="white"/>
<path d="M9.52417 9.58121L9.58433 9.32764L9.77265 9.37162L9.76481 9.41302L9.62618 9.38197L9.6131 9.4389L9.74127 9.46736L9.7308 9.51135L9.60264 9.4803L9.58694 9.55016L9.7308 9.5838L9.72034 9.6252L9.52417 9.58121Z" fill="#309E3A"/>
</g>
<defs>
<clipPath id="clip0_1023_3456">
<rect y="0.5" width="20" height="20" rx="10" fill="white"/>
</clipPath>
</defs>
</svg>
