<svg width="11" height="21" viewBox="0 0 11 21" fill="none" xmlns="http://www.w3.org/2000/svg">
<path d="M16.0322 12.5881L12.9002 11.0941L11.5758 10.4623C12.1542 10.0979 12.624 9.53551 12.9314 8.85811C13.1878 8.29338 13.3204 7.68033 13.3204 7.06011C13.3204 6.69471 13.2624 6.34771 13.1816 6.01291C12.7876 4.39051 11.5206 3.19531 9.99961 3.19531C8.50741 3.19531 7.25961 4.34791 6.84121 5.92411C6.74461 6.28571 6.67821 6.66171 6.67821 7.06011C6.67821 7.75191 6.83981 8.39691 7.11441 8.95791C7.43181 9.60871 7.90241 10.1453 8.47521 10.4903L7.20681 11.0809L3.97321 12.5869C3.69241 12.7185 3.50781 13.0353 3.50781 13.3891V16.9421C3.50781 17.4183 3.83961 17.8043 4.24921 17.8043H9.05181V15.0839C9.05248 15.0559 9.0607 15.0285 9.07561 15.0047L9.07361 15.0035L9.86021 13.6411L9.86221 13.6423C9.89021 13.5943 9.94001 13.5603 9.99961 13.5603C10.0592 13.5603 10.109 13.5941 10.137 13.6423L10.1378 13.6417L10.145 13.6543C10.146 13.6563 10.1474 13.6579 10.1482 13.6599L10.9244 15.0041L10.9234 15.0047C10.9383 15.0286 10.9466 15.056 10.9472 15.0841V17.8045H15.7498C16.1594 17.8045 16.4914 17.4185 16.4914 16.9423V13.3891C16.492 13.0365 16.3104 12.7227 16.0322 12.5881ZM10.924 11.6771L10.926 11.6783L10.1392 13.0407L10.1372 13.0395C10.1236 13.0641 10.1037 13.0845 10.0795 13.0989C10.0554 13.1133 10.0279 13.121 9.99981 13.1213C9.97173 13.121 9.94423 13.1133 9.9201 13.0989C9.89597 13.0845 9.87606 13.0641 9.86241 13.0395L9.86141 13.0401L9.85341 13.0263C9.85281 13.0249 9.85161 13.0237 9.85101 13.0223L9.07481 11.6777L9.07561 11.6771C9.06069 11.6533 9.05247 11.6258 9.05181 11.5977C9.05181 11.5087 9.12401 11.4365 9.21301 11.4365H10.7862C10.8752 11.4365 10.9474 11.5087 10.9474 11.5977C10.9471 11.6258 10.939 11.6533 10.924 11.6771Z" fill="#567596"/>
</svg>
