<svg width="45" height="46" viewBox="0 0 45 46" fill="none" xmlns="http://www.w3.org/2000/svg">
<path d="M40.5 7.25H19.98L18 0.5H4.5C2.025 0.5 0 2.525 0 5V34.25C0 36.725 2.025 38.75 4.5 38.75H20.25L22.5 45.5H40.5C42.975 45.5 45 43.475 45 41V11.75C45 9.275 42.975 7.25 40.5 7.25ZM11.6325 28.8275C6.57 28.8275 2.43 24.71 2.43 19.625C2.43 14.54 6.5475 10.4225 11.6325 10.4225C13.9725 10.4225 16.11 11.255 17.7975 12.83L17.955 12.965L15.1875 15.62L15.0525 15.5075C14.4 14.9 13.2975 14.18 11.6325 14.18C8.685 14.18 6.2775 16.6325 6.2775 19.625C6.2775 22.6175 8.685 25.07 11.6325 25.07C14.715 25.07 16.0425 23.1125 16.4025 21.785H11.43V18.2975H20.3175L20.34 18.455C20.43 18.9275 20.4525 19.355 20.4525 19.8275C20.4525 25.115 16.83 28.8275 11.6325 28.8275ZM24.0075 20.93H32.985C32.985 20.93 32.22 23.8775 29.475 27.095C28.305 25.7 27.4725 24.3275 26.9325 23.27H24.705L24.0075 20.93ZM27.8775 28.805L26.6625 29.9975L25.2 24.98C25.9425 26.33 26.865 27.635 27.8775 28.805ZM42.75 41C42.75 42.2375 41.7375 43.25 40.5 43.25H24.75L29.25 38.75L27.4275 32.5175L29.4975 30.4475L35.5275 36.5L37.17 34.8575L31.0725 28.8275C33.0975 26.51 34.6725 23.765 35.3925 20.93H38.25V18.59H30.06V16.25H27.72V18.59H23.31L20.655 9.5H40.5C41.7375 9.5 42.75 10.5125 42.75 11.75V41Z" fill="#104883"/>
</svg>
