<svg width="25" height="24" viewBox="0 0 25 24" fill="none" xmlns="http://www.w3.org/2000/svg">
<path d="M18.8282 22.5001C17.9132 22.5001 16.6278 22.1691 14.7032 21.0938C12.3627 19.7813 10.5524 18.5696 8.22457 16.2479C5.98019 14.0049 4.888 12.5527 3.35941 9.77115C1.63254 6.63052 1.92691 4.98427 2.25597 4.28068C2.64785 3.43974 3.22629 2.93677 3.97394 2.43755C4.39861 2.15932 4.84801 1.92081 5.31644 1.72505C5.36332 1.7049 5.40691 1.68568 5.44582 1.66833C5.67785 1.5638 6.02941 1.40583 6.47472 1.57458C6.77191 1.68615 7.03722 1.91443 7.45254 2.32458C8.30425 3.16458 9.46816 5.03537 9.89754 5.95412C10.1858 6.57333 10.3766 6.98208 10.3771 7.44052C10.3771 7.97724 10.1071 8.39115 9.77941 8.83787C9.718 8.92177 9.65707 9.00193 9.598 9.07974C9.24129 9.54849 9.163 9.68396 9.21457 9.92583C9.3191 10.4119 10.0986 11.859 11.3797 13.1372C12.6608 14.4155 14.0661 15.1458 14.5541 15.2499C14.8063 15.3038 14.9446 15.2222 15.4283 14.8529C15.4977 14.7999 15.5689 14.7451 15.6435 14.6902C16.1432 14.3185 16.5378 14.0555 17.0619 14.0555H17.0647C17.5208 14.0555 17.9113 14.2533 18.5582 14.5796C19.4019 15.0052 21.3289 16.1541 22.1741 17.0068C22.5852 17.4211 22.8144 17.6855 22.9264 17.9822C23.0952 18.429 22.9363 18.7791 22.8327 19.0135C22.8153 19.0524 22.7961 19.0951 22.776 19.1424C22.5787 19.61 22.3387 20.0585 22.0593 20.4821C21.561 21.2274 21.0561 21.8044 20.2133 22.1968C19.7805 22.4015 19.3069 22.5052 18.8282 22.5001Z" fill="#567596"/>
</svg>
