<svg width="25" height="30" viewBox="0 0 25 30" fill="none" xmlns="http://www.w3.org/2000/svg">
<g clip-path="url(#clip0_6886_7247)">
<path d="M16.6763 5.15814C16.6763 3.986 15.276 3.37957 14.421 4.181L9.13134 9.14171C8.78374 9.46742 8.32519 9.64861 7.84884 9.6485H4.62277C3.69925 9.6485 2.81355 10.0154 2.16052 10.6684C1.50749 11.3214 1.14063 12.2071 1.14062 13.1306V16.8721C1.14062 17.7956 1.50749 18.6813 2.16052 19.3343C2.81355 19.9873 3.69925 20.3542 4.62277 20.3542H7.84991C8.32562 20.3542 8.7842 20.5364 9.13134 20.861L14.421 25.8174C15.2771 26.6189 16.6763 26.0124 16.6763 24.8403V5.15814ZM10.2306 10.3139L15.0692 5.77528V24.221L10.2306 19.6867C9.58528 19.0822 8.73414 18.7459 7.84991 18.746H4.62277C4.12549 18.746 3.64857 18.5485 3.29694 18.1968C2.94531 17.8452 2.74777 17.3683 2.74777 16.871V13.1296C2.74777 12.0946 3.58777 11.2546 4.62277 11.2546H7.84884C8.73373 11.2543 9.58534 10.9172 10.2306 10.3117M23.3213 5.62528C23.1787 5.47257 22.9822 5.38141 22.7735 5.37114C22.5649 5.36087 22.3604 5.43229 22.2034 5.57025C22.0465 5.70822 21.9495 5.90189 21.933 6.11018C21.9165 6.31847 21.9817 6.52501 22.1149 6.686C24.1393 8.98198 25.2536 11.9393 25.2478 15.0003C25.2478 18.1856 24.066 21.0935 22.1149 23.3114C22.0415 23.39 21.9846 23.4825 21.9476 23.5835C21.9107 23.6845 21.8943 23.7919 21.8996 23.8993C21.9049 24.0067 21.9317 24.112 21.9784 24.2089C22.0251 24.3058 22.0908 24.3923 22.1716 24.4633C22.2524 24.5343 22.3466 24.5884 22.4487 24.6223C22.5507 24.6563 22.6586 24.6694 22.7658 24.6609C22.873 24.6524 22.9774 24.6224 23.0728 24.5728C23.1683 24.5232 23.2528 24.4549 23.3213 24.3721C25.603 21.7838 26.8597 18.4507 26.8549 15.0003C26.8599 11.5495 25.6032 8.21601 23.3213 5.62743M20.8035 8.89528C20.7408 8.80901 20.6616 8.73606 20.5705 8.6807C20.4794 8.62534 20.3781 8.58868 20.2727 8.57283C20.1672 8.55699 20.0597 8.5623 19.9563 8.58843C19.8529 8.61457 19.7558 8.66102 19.6705 8.72508C19.5853 8.78914 19.5137 8.86952 19.4598 8.96154C19.4059 9.05357 19.3709 9.15539 19.3568 9.26108C19.3427 9.36677 19.3497 9.47421 19.3776 9.57715C19.4054 9.68008 19.4534 9.77645 19.5188 9.86064C20.6326 11.3424 21.2332 13.1466 21.2299 15.0003C21.2299 16.9289 20.5935 18.7074 19.5188 20.1399C19.4555 20.2243 19.4095 20.3204 19.3833 20.4226C19.3571 20.5249 19.3513 20.6312 19.3662 20.7357C19.3811 20.8402 19.4165 20.9407 19.4702 21.0315C19.524 21.1223 19.5951 21.2016 19.6796 21.2649C19.764 21.3282 19.86 21.3743 19.9623 21.4005C20.0645 21.4267 20.1709 21.4325 20.2753 21.4176C20.3798 21.4026 20.4803 21.3673 20.5711 21.3135C20.6619 21.2598 20.7412 21.1886 20.8046 21.1042C22.1269 19.3443 22.8404 17.2017 22.8371 15.0003C22.8404 12.7989 22.1269 10.6563 20.8046 8.89635" fill="black"/>
</g>
<path d="M19 9C20.5092 10.8571 22.6222 15.8571 19 21" stroke="black" stroke-linecap="round"/>
<path d="M21 6C23.2639 8.78571 26.4333 16.2857 21 24" stroke="black" stroke-linecap="round"/>
<defs>
<clipPath id="clip0_6886_7247">
<rect width="18" height="30" fill="white"/>
</clipPath>
</defs>
</svg>
