<svg width="37" height="38" viewBox="0 0 37 38" fill="none" xmlns="http://www.w3.org/2000/svg">
<path d="M28.2558 35.1875C26.8452 35.1875 24.8637 34.6773 21.8965 33.0195C18.2882 30.9961 15.4973 29.128 11.9086 25.5487C8.44856 22.0908 6.76477 19.852 4.40819 15.5638C1.74592 10.722 2.19975 8.184 2.70705 7.0993C3.31119 5.80285 4.20295 5.02744 5.35559 4.25781C6.01028 3.82887 6.7031 3.46117 7.42528 3.15937C7.49754 3.1283 7.56475 3.09867 7.62473 3.07193C7.98244 2.91078 8.52444 2.66725 9.21096 2.9274C9.66912 3.09939 10.0781 3.45133 10.7184 4.08365C12.0315 5.37865 13.8258 8.26277 14.4878 9.67918C14.9322 10.6338 15.2264 11.264 15.2271 11.9707C15.2271 12.7982 14.8108 13.4363 14.3057 14.125C14.211 14.2543 14.1171 14.3779 14.026 14.4979C13.4761 15.2205 13.3554 15.4294 13.4349 15.8022C13.596 16.5516 14.7978 18.7825 16.7728 20.7532C18.7479 22.7238 20.9144 23.8497 21.6667 24.0102C22.0555 24.0933 22.2686 23.9675 23.0144 23.3981C23.1214 23.3164 23.2312 23.2319 23.3461 23.1473C24.1165 22.5743 24.7249 22.1688 25.5329 22.1688H25.5372C26.2404 22.1688 26.8423 22.4738 27.8396 22.9768C29.1404 23.6329 32.1112 25.4042 33.4142 26.7187C34.0479 27.3575 34.4013 27.7651 34.574 28.2225C34.8342 28.9112 34.5892 29.4511 34.4295 29.8124C34.4028 29.8724 34.3731 29.9381 34.3421 30.0111C34.0379 30.732 33.668 31.4234 33.2371 32.0765C32.4689 33.2255 31.6906 34.1151 30.3913 34.7199C29.7241 35.0355 28.9939 35.1954 28.2558 35.1875Z" fill="white"/>
</svg>
