<svg width="20" height="21" viewBox="0 0 20 21" fill="none" xmlns="http://www.w3.org/2000/svg">
<path d="M16.6667 3.4804L13.3334 6.81373M13.3334 3.4804L16.6667 6.81373" stroke="#FF0404" stroke-width="1.5" stroke-linecap="round"/>
<path d="M13.0375 13.0996L13.4167 12.6996L12.51 11.8387L12.1308 12.2396L13.0375 13.0996ZM14.6658 12.5312L16.2575 13.4487L16.8817 12.3646L15.2892 11.4479L14.6658 12.5312ZM16.565 15.3479L15.3817 16.5937L16.2875 17.4554L17.4708 16.2096L16.565 15.3479ZM14.6692 16.9937C13.4733 17.1112 10.3525 17.0112 6.96584 13.4462L6.06 14.3062C9.75083 18.1921 13.2717 18.3887 14.7917 18.2379L14.6692 16.9937ZM6.96584 13.4462C3.73583 10.0454 3.19417 7.17623 3.12667 5.9179L1.87833 5.9854C1.96167 7.52707 2.615 10.6796 6.06 14.3062L6.96584 13.4462ZM8.1125 7.91457L8.35083 7.6629L7.445 6.80207L7.20583 7.05373L8.1125 7.91457ZM8.53917 4.52957L7.48833 3.04457L6.4675 3.76623L7.5175 5.25207L8.53917 4.52957ZM3.93083 2.7229L2.62417 4.10123L3.53083 4.96207L4.83917 3.58457L3.93083 2.7229ZM7.65917 7.48373C7.50919 7.3392 7.35779 7.19613 7.205 7.05457L7.20333 7.05623L7.20083 7.05873C7.1862 7.07419 7.1723 7.09032 7.15917 7.10707C7.07748 7.21519 7.01284 7.3352 6.9675 7.4629C6.88583 7.69207 6.8425 7.9954 6.8975 8.37373C7.00584 9.11707 7.49333 10.1162 8.76583 11.4571L9.6725 10.5954C8.4825 9.3429 8.18917 8.57207 8.13417 8.19207C8.1075 8.00873 8.13417 7.9129 8.145 7.88207L8.15167 7.86623C8.14487 7.87721 8.13705 7.88754 8.12833 7.89707C8.12344 7.90272 8.11844 7.90827 8.11333 7.91373C8.11333 7.91373 8.11167 7.91373 7.65917 7.48373ZM8.76583 11.4571C10.035 12.7937 10.9933 13.3179 11.7242 13.4371C12.1 13.4979 12.4042 13.4487 12.6342 13.3579C12.7616 13.3079 12.8801 13.2375 12.985 13.1496C12.9953 13.1404 13.0053 13.1309 13.015 13.1212L13.0267 13.1096C13.0286 13.1079 13.0306 13.1063 13.0325 13.1046L13.035 13.1021L13.0358 13.1004C13.0358 13.1004 13.0375 13.0996 12.5842 12.6687C12.1308 12.2387 12.1317 12.2379 12.1317 12.2371L12.1333 12.2362L12.135 12.2337C12.1364 12.2324 12.1378 12.231 12.1392 12.2296L12.1475 12.2212C12.1573 12.2118 12.1676 12.2029 12.1783 12.1946C12.1867 12.1896 12.1858 12.1912 12.175 12.1954C12.1583 12.2021 12.0833 12.2287 11.925 12.2029C11.59 12.1479 10.8667 11.8529 9.6725 10.5954L8.76583 11.4571ZM7.48833 3.04457C6.64333 1.84957 4.95333 1.64707 3.93167 2.72373L4.83667 3.58457C5.2725 3.12623 6.04083 3.16207 6.4675 3.76623L7.48833 3.04457ZM3.12667 5.9179C3.10833 5.58457 3.25417 5.25207 3.53083 4.96207L2.62417 4.10123C2.1775 4.57123 1.8375 5.22373 1.87833 5.9854L3.12667 5.9179ZM15.3808 16.5946C15.1483 16.8396 14.9058 16.9704 14.6692 16.9937L14.7917 18.2379C15.4142 18.1771 15.9183 17.8446 16.2875 17.4554L15.3808 16.5946ZM8.35083 7.66373C9.1575 6.81457 9.21417 5.48623 8.53917 4.5304L7.51833 5.25207C7.87 5.74957 7.81583 6.41207 7.445 6.80207L8.35083 7.66373ZM16.2575 13.4487C16.9417 13.8429 17.0758 14.8112 16.565 15.3487L17.4708 16.2096C18.5583 15.0646 18.2417 13.1479 16.8817 12.3646L16.2575 13.4487ZM13.4167 12.7004C13.7375 12.3621 14.2383 12.2862 14.6658 12.5321L15.2892 11.4487C14.3733 10.9221 13.2392 11.0737 12.51 11.8404L13.4167 12.7004Z" fill="#FF0404"/>
</svg>
