<svg width="24" height="25" viewBox="0 0 24 25" fill="none" xmlns="http://www.w3.org/2000/svg">
<path d="M2 8.87722C2 8.5269 2 8.35174 2.01462 8.20421C2.1556 6.78127 3.28127 5.6556 4.70421 5.51462C4.85174 5.5 5.03636 5.5 5.40558 5.5C5.54785 5.5 5.61899 5.5 5.67939 5.49634C6.45061 5.44963 7.12595 4.96288 7.41414 4.246C7.43671 4.18986 7.45781 4.12657 7.5 4C7.54219 3.87343 7.56329 3.81014 7.58586 3.754C7.87405 3.03712 8.54939 2.55037 9.32061 2.50366C9.38101 2.5 9.44772 2.5 9.58114 2.5H14.4189C14.5523 2.5 14.619 2.5 14.6794 2.50366C15.4506 2.55037 16.126 3.03712 16.4141 3.754C16.4367 3.81014 16.4578 3.87343 16.5 4C16.5422 4.12657 16.5633 4.18986 16.5859 4.246C16.874 4.96288 17.5494 5.44963 18.3206 5.49634C18.381 5.5 18.4521 5.5 18.5944 5.5C18.9636 5.5 19.1483 5.5 19.2958 5.51462C20.7187 5.6556 21.8444 6.78127 21.9854 8.20421C22 8.35174 22 8.5269 22 8.87722V16.7C22 18.3802 22 19.2202 21.673 19.862C21.3854 20.4265 20.9265 20.8854 20.362 21.173C19.7202 21.5 18.8802 21.5 17.2 21.5H6.8C5.11984 21.5 4.27976 21.5 3.63803 21.173C3.07354 20.8854 2.6146 20.4265 2.32698 19.862C2 19.2202 2 18.3802 2 16.7V8.87722Z" stroke="white" stroke-width="2" stroke-linecap="round" stroke-linejoin="round"/>
<path d="M12 17C14.2091 17 16 15.2091 16 13C16 10.7909 14.2091 9 12 9C9.79086 9 8 10.7909 8 13C8 15.2091 9.79086 17 12 17Z" stroke="white" stroke-width="2" stroke-linecap="round" stroke-linejoin="round"/>
</svg>
