<svg width="19" height="18" viewBox="0 0 19 18" fill="none" xmlns="http://www.w3.org/2000/svg">
<path d="M9.56222 14.8462L11.7018 12.7111L9.56133 10.576L9.004 11.1333L10.2333 12.3627C9.54533 12.3662 8.93378 12.2853 8.39867 12.12C7.86356 11.9541 7.43481 11.7099 7.11244 11.3876C6.78178 11.0575 6.53289 10.6827 6.36578 10.2631C6.19867 9.84355 6.11511 9.42429 6.11511 9.00533C6.11511 8.75348 6.14296 8.50163 6.19867 8.24978C6.25437 7.99793 6.33556 7.75911 6.44222 7.53333L5.84044 7C5.66859 7.31348 5.5403 7.63822 5.45556 7.97422C5.37081 8.31022 5.32874 8.65215 5.32933 9C5.32933 9.528 5.43185 10.0492 5.63689 10.5636C5.84193 11.0779 6.14504 11.5387 6.54622 11.9458C6.94741 12.3529 7.47452 12.6551 8.12756 12.8524C8.78059 13.0498 9.45111 13.1502 10.1391 13.1538L9.004 14.2889L9.56222 14.8462ZM13.1773 11C13.3492 10.6865 13.4772 10.3618 13.5613 10.0258C13.6455 9.68978 13.6879 9.34785 13.6884 9C13.6884 8.47378 13.5865 7.95081 13.3827 7.43111C13.1788 6.91141 12.8736 6.45096 12.4671 6.04978C12.0719 5.64267 11.5459 5.34133 10.8893 5.14578C10.2321 4.94963 9.56163 4.85156 8.87778 4.85156L10.0129 3.71111L9.45556 3.15378L7.31511 5.28889L9.45556 7.424L10.0129 6.86667L8.77911 5.63289C9.46356 5.63289 10.076 5.71615 10.6164 5.88267C11.1569 6.04918 11.588 6.29452 11.9098 6.61867C12.2316 6.94281 12.4775 7.31467 12.6476 7.73422C12.8176 8.15378 12.9024 8.57393 12.9018 8.99467C12.9018 9.24652 12.8742 9.49837 12.8191 9.75022C12.764 10.0021 12.6828 10.2409 12.5756 10.4667L13.1773 11ZM9.50267 17C8.39689 17 7.35689 16.7902 6.38267 16.3707C5.40904 15.9505 4.56193 15.3804 3.84133 14.6604C3.12074 13.9404 2.55037 13.0942 2.13022 12.1218C1.71007 11.1493 1.5 10.1096 1.5 9.00267C1.5 7.8957 1.71007 6.8557 2.13022 5.88267C2.54978 4.90904 3.11896 4.06193 3.83778 3.34133C4.55659 2.62074 5.40311 2.05037 6.37733 1.63022C7.35156 1.21007 8.39156 1 9.49733 1C10.6031 1 11.6431 1.21007 12.6173 1.63022C13.591 2.04978 14.4381 2.61926 15.1587 3.33867C15.8793 4.05807 16.4496 4.90459 16.8698 5.87822C17.2899 6.85185 17.5 7.89155 17.5 8.99733C17.5 10.1031 17.2902 11.1431 16.8707 12.1173C16.4511 13.0916 15.881 13.9387 15.1604 14.6587C14.4399 15.3787 13.5936 15.949 12.6218 16.3698C11.6499 16.7905 10.6102 17.0006 9.50267 17ZM9.5 16.1111C11.4852 16.1111 13.1667 15.4222 14.5444 14.0444C15.9222 12.6667 16.6111 10.9852 16.6111 9C16.6111 7.01481 15.9222 5.33333 14.5444 3.95555C13.1667 2.57778 11.4852 1.88889 9.5 1.88889C7.51481 1.88889 5.83333 2.57778 4.45556 3.95555C3.07778 5.33333 2.38889 7.01481 2.38889 9C2.38889 10.9852 3.07778 12.6667 4.45556 14.0444C5.83333 15.4222 7.51481 16.1111 9.5 16.1111Z" fill="white"/>
</svg>
