<svg width="28" height="28" viewBox="0 0 28 28" fill="none" xmlns="http://www.w3.org/2000/svg">
<path d="M22.75 16.625C22.75 15.9288 22.4734 15.2611 21.9812 14.7688C21.4889 14.2766 20.8212 14 20.125 14H7.875C7.17881 14 6.51113 14.2766 6.01884 14.7688C5.52656 15.2611 5.25 15.9288 5.25 16.625V17.5C5.25 20.9492 8.505 24.5 14 24.5C17.0293 24.5 19.3777 23.4202 20.8757 21.875H14V22.75C9.506 22.75 7 20.0165 7 17.5V16.625C7 16.3929 7.09219 16.1704 7.25628 16.0063C7.42038 15.8422 7.64294 15.75 7.875 15.75H14V16.625H22.75ZM22.12 20.125H14V18.375H22.68C22.5872 18.97 22.3983 19.5615 22.12 20.125ZM18.8125 7.4375C18.8125 7.14 18.7845 6.846 18.7337 6.5625H14V8.3125H18.7337C18.7863 8.029 18.8125 7.735 18.8125 7.4375ZM14 2.625C15.6888 2.625 17.1763 3.49475 18.0338 4.8125H14V4.375C13.1878 4.375 12.4088 4.69766 11.8345 5.27199C11.2602 5.84632 10.9375 6.62527 10.9375 7.4375C10.9375 8.24973 11.2602 9.02868 11.8345 9.60301C12.4088 10.1773 13.1878 10.5 14 10.5V10.0625H18.0338C17.5789 10.7614 16.9503 11.3301 16.2094 11.7129C15.4686 12.0958 14.641 12.2795 13.8078 12.2462C12.9746 12.2128 12.1643 11.9635 11.4565 11.5228C10.7486 11.082 10.1674 10.4649 9.76982 9.73186C9.37227 8.99884 9.172 8.1751 9.18866 7.34138C9.20531 6.50766 9.43832 5.69258 9.86483 4.97602C10.2913 4.25947 10.8967 3.66604 11.6216 3.25389C12.3465 2.84175 13.1661 2.62503 14 2.625Z" fill="white"/>
</svg>
