<svg width="25" height="24" viewBox="0 0 25 24" fill="none" xmlns="http://www.w3.org/2000/svg">
<path d="M2.5 11.9999C2.5005 9.80751 3.22148 7.67603 4.55199 5.93351C5.88249 4.19098 7.74877 2.93399 9.8636 2.35599C11.9784 1.77798 14.2246 1.911 16.2565 2.73457C18.2883 3.55813 19.9932 5.0266 21.1087 6.91398C22.2243 8.80136 22.6886 11.003 22.4304 13.1802C22.1721 15.3573 21.2055 17.3892 19.6794 18.9633C18.1533 20.5373 16.1521 21.5661 13.984 21.8915C11.8159 22.2168 9.60092 21.8207 7.68 20.7639L3.792 21.9479C3.61858 22.0007 3.43407 22.0054 3.25819 21.9615C3.08231 21.9175 2.92168 21.8266 2.7935 21.6984C2.66531 21.5702 2.57438 21.4096 2.53043 21.2337C2.48648 21.0578 2.49117 20.8733 2.544 20.6999L3.728 16.8059C2.92153 15.3325 2.4992 13.6796 2.5 11.9999ZM8.5 10.9999C8.5 11.2651 8.60536 11.5195 8.79289 11.707C8.98043 11.8946 9.23478 11.9999 9.5 11.9999H15.5C15.7652 11.9999 16.0196 11.8946 16.2071 11.707C16.3946 11.5195 16.5 11.2651 16.5 10.9999C16.5 10.7347 16.3946 10.4803 16.2071 10.2928C16.0196 10.1053 15.7652 9.99991 15.5 9.99991H9.5C9.23478 9.99991 8.98043 10.1053 8.79289 10.2928C8.60536 10.4803 8.5 10.7347 8.5 10.9999ZM9.5 13.9999C9.23478 13.9999 8.98043 14.1053 8.79289 14.2928C8.60536 14.4803 8.5 14.7347 8.5 14.9999C8.5 15.2651 8.60536 15.5195 8.79289 15.707C8.98043 15.8946 9.23478 15.9999 9.5 15.9999H13.5C13.7652 15.9999 14.0196 15.8946 14.2071 15.707C14.3946 15.5195 14.5 15.2651 14.5 14.9999C14.5 14.7347 14.3946 14.4803 14.2071 14.2928C14.0196 14.1053 13.7652 13.9999 13.5 13.9999H9.5Z" fill="#567596"/>
</svg>
