<svg width="24" height="24" viewBox="0 0 24 24" fill="none" xmlns="http://www.w3.org/2000/svg">
<path d="M11.9984 2.40039C13.4482 2.40123 14.8789 2.7304 16.1832 3.3632C17.4876 3.99599 18.6316 4.91599 19.5296 6.05413C20.4276 7.19228 21.0561 8.51903 21.368 9.9348C21.68 11.3506 21.6672 12.8186 21.3307 14.2288C20.9942 15.6389 20.3427 16.9545 19.425 18.0769C18.5074 19.1992 17.3475 20.0992 16.0323 20.7092C14.7172 21.3192 13.281 21.6234 11.8314 21.599C10.3819 21.5746 8.95672 21.2223 7.66284 20.5684L7.51764 20.4904L3.14364 21.5824C3.05946 21.6036 2.97169 21.6062 2.88639 21.5902C2.80108 21.5741 2.72028 21.5397 2.64955 21.4894C2.57882 21.4391 2.51984 21.3741 2.4767 21.2988C2.43355 21.2234 2.40726 21.1397 2.39964 21.0532V20.9548L2.41644 20.8552L3.50844 16.4824L3.43284 16.3384C2.88506 15.2568 2.5471 14.0813 2.43684 12.874L2.40684 12.4156L2.39844 12.0004C2.39844 9.45431 3.40986 7.01252 5.21021 5.21217C7.01056 3.41182 9.45236 2.40039 11.9984 2.40039ZM11.9984 3.60039C10.5326 3.60015 9.0922 3.98351 7.8204 4.71236C6.5486 5.44121 5.48967 6.49018 4.74883 7.75504C4.008 9.0199 3.61105 10.4566 3.59744 11.9224C3.58382 13.3882 3.95402 14.832 4.67124 16.1104C4.72692 16.2098 4.75314 16.323 4.74684 16.4368L4.73004 16.5496L3.82284 20.1748L7.45164 19.27C7.5254 19.2517 7.60196 19.2477 7.67724 19.258L7.78644 19.2832L7.89084 19.33C9.01085 19.957 10.2597 20.319 11.5414 20.3882C12.8231 20.4574 14.1036 20.2319 15.2846 19.7291C16.4656 19.2263 17.5157 18.4595 18.3541 17.4877C19.1926 16.5158 19.7973 15.3647 20.1216 14.1228C20.4459 12.8808 20.4813 11.5811 20.225 10.3234C19.9688 9.06564 19.4277 7.88336 18.6433 6.86732C17.8589 5.85128 16.8521 5.02851 15.7003 4.46218C14.5484 3.89586 13.282 3.60105 11.9984 3.60039ZM12.5984 13.2004C12.7484 13.2001 12.893 13.256 13.0038 13.357C13.1146 13.458 13.1835 13.5969 13.1971 13.7462C13.2106 13.8955 13.1678 14.0445 13.077 14.1638C12.9862 14.2831 12.854 14.3641 12.7064 14.3908L12.5984 14.4004H8.99844C8.8485 14.4007 8.7039 14.3448 8.5931 14.2438C8.4823 14.1428 8.41333 14.0039 8.39979 13.8546C8.38624 13.7053 8.42909 13.5563 8.5199 13.437C8.61071 13.3177 8.7429 13.2367 8.89044 13.21L8.99844 13.2004H12.5984ZM14.9984 9.60039C15.1484 9.60011 15.293 9.65599 15.4038 9.757C15.5146 9.85802 15.5835 9.99685 15.5971 10.1462C15.6106 10.2955 15.5678 10.4445 15.477 10.5638C15.3862 10.6831 15.254 10.7641 15.1064 10.7908L14.9984 10.8004H8.99844C8.8485 10.8007 8.7039 10.7448 8.5931 10.6438C8.4823 10.5428 8.41333 10.4039 8.39979 10.2546C8.38624 10.1053 8.42909 9.9563 8.5199 9.83699C8.61071 9.71769 8.7429 9.6367 8.89044 9.60999L8.99844 9.60039H14.9984Z" fill="black"/>
</svg>
