<svg width="184" height="184" viewBox="0 0 184 184" fill="none" xmlns="http://www.w3.org/2000/svg">
<g filter="url(#filter0_f_899_1318)">
<circle cx="92.1667" cy="92" r="28.5" fill="#4123F7"/>
</g>
<g clip-path="url(#clip0_899_1318)">
<path d="M105.164 79.5601L107.669 82.0649L86.8229 102.911L76.6642 92.7524L79.1691 90.2476L86.8229 97.9014L105.164 79.5601ZM92.1667 63C94.7829 63 97.3063 63.334 99.737 64.002C102.168 64.6699 104.441 65.6255 106.556 66.8687C108.671 68.1118 110.591 69.5962 112.317 71.3218C114.043 73.0474 115.527 74.9771 116.77 77.1108C118.013 79.2446 118.969 81.5176 119.637 83.9297C120.305 86.3418 120.648 88.8652 120.667 91.5C120.667 94.1162 120.333 96.6396 119.665 99.0703C118.997 101.501 118.041 103.774 116.798 105.889C115.555 108.004 114.07 109.925 112.345 111.65C110.619 113.376 108.69 114.86 106.556 116.104C104.422 117.347 102.149 118.302 99.737 118.97C97.3249 119.638 94.8015 119.981 92.1667 120C89.5505 120 87.027 119.666 84.5964 118.998C82.1657 118.33 79.8928 117.375 77.7775 116.131C75.6623 114.888 73.7419 113.404 72.0163 111.678C70.2907 109.953 68.8063 108.023 67.5632 105.889C66.32 103.755 65.3644 101.492 64.6965 99.0981C64.0285 96.7046 63.6852 94.1719 63.6667 91.5C63.6667 88.8838 64.0007 86.3604 64.6686 83.9297C65.3366 81.499 66.2922 79.2261 67.5353 77.1108C68.7785 74.9956 70.2629 73.0752 71.9885 71.3496C73.7141 69.624 75.6437 68.1396 77.7775 66.8965C79.9113 65.6533 82.175 64.6978 84.5685 64.0298C86.9621 63.3618 89.4948 63.0186 92.1667 63ZM92.1667 116.438C94.4489 116.438 96.6476 116.141 98.7629 115.547C100.878 114.953 102.863 114.118 104.719 113.042C106.574 111.966 108.263 110.658 109.784 109.118C111.306 107.578 112.605 105.898 113.681 104.08C114.757 102.262 115.601 100.276 116.214 98.124C116.826 95.9717 117.123 93.7637 117.104 91.5C117.104 89.2178 116.807 87.019 116.214 84.9038C115.62 82.7886 114.785 80.8032 113.709 78.9478C112.633 77.0923 111.324 75.4038 109.784 73.8823C108.244 72.3608 106.565 71.062 104.747 69.9858C102.928 68.9097 100.943 68.0654 98.7907 67.4531C96.6384 66.8408 94.4304 66.5439 92.1667 66.5625C89.8845 66.5625 87.6857 66.8594 85.5705 67.4531C83.4553 68.0469 81.4699 68.8818 79.6144 69.958C77.759 71.0342 76.0705 72.3423 74.549 73.8823C73.0275 75.4224 71.7287 77.1016 70.6525 78.9199C69.5764 80.7383 68.7321 82.7236 68.1198 84.876C67.5075 87.0283 67.2106 89.2363 67.2292 91.5C67.2292 93.7822 67.5261 95.981 68.1198 98.0962C68.7136 100.211 69.5485 102.197 70.6247 104.052C71.7009 105.908 73.009 107.596 74.549 109.118C76.0891 110.639 77.7682 111.938 79.5866 113.014C81.405 114.09 83.3903 114.935 85.5427 115.547C87.695 116.159 89.903 116.456 92.1667 116.438Z" fill="#69CCE2"/>
</g>
<defs>
<filter id="filter0_f_899_1318" x="0.466686" y="0.299999" width="183.4" height="183.4" filterUnits="userSpaceOnUse" color-interpolation-filters="sRGB">
<feFlood flood-opacity="0" result="BackgroundImageFix"/>
<feBlend mode="normal" in="SourceGraphic" in2="BackgroundImageFix" result="shape"/>
<feGaussianBlur stdDeviation="31.6" result="effect1_foregroundBlur_899_1318"/>
</filter>
<clipPath id="clip0_899_1318">
<rect width="57" height="57" fill="white" transform="translate(63.6667 63)"/>
</clipPath>
</defs>
</svg>
