<svg width="20" height="21" viewBox="0 0 20 21" fill="none" xmlns="http://www.w3.org/2000/svg">
<g clip-path="url(#clip0_1_4057)">
<path d="M18.3332 9.38687V10.1535C18.3321 11.9506 17.7503 13.6991 16.6743 15.1384C15.5983 16.5777 14.0859 17.6306 12.3626 18.1401C10.6394 18.6496 8.79755 18.5884 7.1119 17.9657C5.42624 17.3429 3.98705 16.1919 3.00897 14.6844C2.03089 13.1769 1.56633 11.3936 1.68457 9.60046C1.80281 7.80734 2.49751 6.10047 3.66507 4.73443C4.83263 3.36838 6.41049 2.41635 8.16333 2.02032C9.91617 1.62429 11.7501 1.80548 13.3915 2.53687M18.3332 3.4821L9.99984 11.8238L7.49984 9.32376" stroke="#2ED058" stroke-width="1.66667" stroke-linecap="round" stroke-linejoin="round"/>
</g>
<defs>
<clipPath id="clip0_1_4057">
<rect width="20" height="20" fill="white" transform="translate(0 0.148438)"/>
</clipPath>
</defs>
</svg>
