<svg width="20" height="21" viewBox="0 0 20 21" fill="none" xmlns="http://www.w3.org/2000/svg">
<g clip-path="url(#clip0_1023_3485)">
<g clip-path="url(#clip1_1023_3485)">
<path d="M0 0.5H26.6667V20.5H0V0.5Z" fill="#EE1C25"/>
<path d="M3.19998 9.2335L4.99997 3.8335L6.79993 9.2335L2 5.9335H7.99993L3.19998 9.2335Z" fill="#FFFF00"/>
<path d="M11.0077 3.93756L9.15527 4.34806L10.3909 2.9082L10.2697 4.84607L9.24174 3.13047L11.0077 3.93756Z" fill="#FFFF00"/>
<path d="M12.8766 6.30577L11.01 5.96571L12.7073 5.11777L11.8441 6.85694L11.5619 4.87695L12.8766 6.30577Z" fill="#FFFF00"/>
<path d="M12.6036 9.62986L11.038 8.55803L12.9336 8.4761L11.436 9.71196L11.986 7.78906L12.6036 9.62986Z" fill="#FFFF00"/>
<path d="M10.249 11.8022L9.21876 10.2089L10.9989 10.8655L9.14026 11.427L10.3902 9.86572L10.249 11.8022Z" fill="#FFFF00"/>
</g>
</g>
<defs>
<clipPath id="clip0_1023_3485">
<rect y="0.5" width="20" height="20" rx="10" fill="white"/>
</clipPath>
<clipPath id="clip1_1023_3485">
<rect width="26.6667" height="21.3333" fill="white" transform="translate(0 0.5)"/>
</clipPath>
</defs>
</svg>
