<svg width="19" height="19" viewBox="0 0 19 19" fill="none" xmlns="http://www.w3.org/2000/svg">
<path d="M15.4375 4.35433L14.9467 12.2908C14.8216 14.3182 14.759 15.3324 14.25 16.0615C13.9987 16.4218 13.6752 16.7259 13.3 16.9545C12.5424 17.4168 11.5267 17.4168 9.49525 17.4168C7.46067 17.4168 6.44337 17.4168 5.68417 16.9537C5.30883 16.7247 4.98529 16.42 4.73417 16.0591C4.22592 15.3292 4.16417 14.3135 4.04225 12.2829L3.5625 4.35433M2.375 4.35433H16.625M12.711 4.35433L12.1703 3.23966C11.8117 2.49866 11.632 2.12895 11.3224 1.89779C11.2537 1.84658 11.1808 1.80104 11.1047 1.76162C10.7619 1.5835 10.3503 1.5835 9.52771 1.5835C8.68379 1.5835 8.26183 1.5835 7.91271 1.76875C7.83553 1.81008 7.76192 1.85774 7.69263 1.91125C7.37992 2.15112 7.20496 2.53508 6.85504 3.3022L6.37529 4.35433M7.52083 13.0627V8.31266M11.4792 13.0627V8.31266" stroke="white" stroke-width="1.5" stroke-linecap="round" stroke-linejoin="round"/>
</svg>
