<svg width="24" height="25" viewBox="0 0 24 25" fill="none" xmlns="http://www.w3.org/2000/svg">
<path d="M12 2C6.15 2 1.5 6.65 1.5 12.5C1.5 18.35 6.15 23 12 23C17.85 23 22.5 18.35 22.5 12.5C22.5 6.65 17.85 2 12 2ZM12 21.5C7.05 21.5 3 17.45 3 12.5C3 7.55 7.05 3.5 12 3.5C16.95 3.5 21 7.55 21 12.5C21 17.45 16.95 21.5 12 21.5Z" fill="#979797"/>
<path d="M16.05 17.75L12 13.7L7.95 17.75L6.75 16.55L10.8 12.5L6.75 8.45L7.95 7.25L12 11.3L16.05 7.25L17.25 8.45L13.2 12.5L17.25 16.55L16.05 17.75Z" fill="#979797"/>
</svg>
