<svg width="24" height="25" viewBox="0 0 24 25" fill="none" xmlns="http://www.w3.org/2000/svg">
<path d="M11.9998 20.66C7.48784 20.66 3.83984 17.012 3.83984 12.5C3.83984 7.98803 7.48784 4.34003 11.9998 4.34003C16.5118 4.34003 20.1598 7.98803 20.1598 12.5C20.1598 17.012 16.5118 20.66 11.9998 20.66ZM11.9998 5.30003C8.01584 5.30003 4.79984 8.51603 4.79984 12.5C4.79984 16.484 8.01584 19.7 11.9998 19.7C15.9838 19.7 19.1998 16.484 19.1998 12.5C19.1998 8.51603 15.9838 5.30003 11.9998 5.30003Z" fill="black"/>
<path d="M15.4961 8.32495L16.1748 9.00415L8.5044 16.6746L7.82568 15.9958L15.4961 8.32495Z" fill="black"/>
<path d="M8.5044 8.32495L16.1748 15.9954L15.4961 16.6746L7.82568 9.00415L8.5044 8.32495Z" fill="black"/>
</svg>
