<svg width="27" height="29" viewBox="0 0 27 29" fill="none" xmlns="http://www.w3.org/2000/svg">
<path d="M20.6055 1.58301H8.33464C5.48116 1.58301 3.16797 3.8962 3.16797 6.74967V22.2497C3.16797 25.1031 5.48116 27.4163 8.33464 27.4163H20.6055C23.4589 27.4163 25.7721 25.1031 25.7721 22.2497V6.74967C25.7721 3.8962 23.4589 1.58301 20.6055 1.58301Z" stroke="black" stroke-width="1.5" stroke-linecap="round" stroke-linejoin="round"/>
<path d="M11.6801 16.7475C10.8676 17.2926 8.73893 18.4034 10.0358 19.7932C10.6687 20.4727 11.3752 20.9583 12.2613 20.9583H17.3246C18.2107 20.9583 18.9173 20.4727 19.5502 19.7932C20.847 18.4034 18.7183 17.2926 17.9059 16.7488C16.9875 16.1252 15.903 15.7918 14.793 15.7918C13.6829 15.7918 12.5984 16.1252 11.6801 16.7488M4.45964 6.75H1.23047M4.45964 14.5H1.23047M4.45964 22.25H1.23047M17.3763 10.625C17.3763 11.3101 17.1041 11.9672 16.6197 12.4517C16.1352 12.9362 15.4781 13.2083 14.793 13.2083C14.1078 13.2083 13.4507 12.9362 12.9663 12.4517C12.4818 11.9672 12.2096 11.3101 12.2096 10.625C12.2096 9.93986 12.4818 9.28278 12.9663 8.79831C13.4507 8.31384 14.1078 8.04167 14.793 8.04167C15.4781 8.04167 16.1352 8.31384 16.6197 8.79831C17.1041 9.28278 17.3763 9.93986 17.3763 10.625Z" stroke="black" stroke-width="1.5" stroke-linecap="round" stroke-linejoin="round"/>
</svg>
