<svg width="35" height="34" viewBox="0 0 35 34" fill="none" xmlns="http://www.w3.org/2000/svg">
<path d="M17.5 16.9996C19.2884 16.9996 20.7381 15.5499 20.7381 13.7615C20.7381 11.9732 19.2884 10.5234 17.5 10.5234C15.7117 10.5234 14.2619 11.9732 14.2619 13.7615C14.2619 15.5499 15.7117 16.9996 17.5 16.9996Z" stroke="white" stroke-linecap="round" stroke-linejoin="round"/>
<path d="M6.16667 10.5236H7.78572V8.9046C7.78572 8.0458 8.12687 7.22218 8.73414 6.61492C9.3414 6.00766 10.165 5.6665 11.0238 5.6665H23.9762C24.835 5.6665 25.6586 6.00766 26.2659 6.61492C26.8731 7.22218 27.2143 8.0458 27.2143 8.9046V25.0951C27.2143 25.9539 26.8731 26.7775 26.2659 27.3848C25.6586 27.992 24.835 28.3332 23.9762 28.3332H11.0238C10.165 28.3332 9.3414 27.992 8.73414 27.3848C8.12687 26.7775 7.78572 25.9539 7.78572 25.0951V23.476H6.16667M6.16667 16.9998H7.78572M6.16667 13.7617H7.78572M6.16667 20.2379H7.78572" stroke="white" stroke-linecap="round" stroke-linejoin="round"/>
<path fill-rule="evenodd" clip-rule="evenodd" d="M22.3572 21.8571V20.2381C22.3572 19.3793 22.016 18.5557 21.4087 17.9484C20.8015 17.3412 19.9779 17 19.1191 17H15.881C15.0222 17 14.1985 17.3412 13.5913 17.9484C12.984 18.5557 12.6429 19.3793 12.6429 20.2381V21.8571C12.6429 22.2865 12.8134 22.6984 13.1171 23.002C13.4207 23.3056 13.8325 23.4762 14.2619 23.4762H20.7381C21.1675 23.4762 21.5793 23.3056 21.8829 23.002C22.1866 22.6984 22.3572 22.2865 22.3572 21.8571Z" stroke="white" stroke-linecap="round" stroke-linejoin="round"/>
</svg>
