<svg width="24" height="25" viewBox="0 0 24 25" fill="none" xmlns="http://www.w3.org/2000/svg">
<path d="M19.75 4.14706C20.3467 4.14706 20.919 4.38412 21.341 4.80607C21.7629 5.22803 22 5.80033 22 6.39706V17.9021C22 18.4988 21.7629 19.0711 21.341 19.4931C20.919 19.915 20.3467 20.1521 19.75 20.1521H4.25C3.95453 20.1521 3.66194 20.0939 3.38896 19.9808C3.11598 19.8677 2.86794 19.702 2.65901 19.4931C2.45008 19.2841 2.28434 19.0361 2.17127 18.7631C2.0582 18.4901 2 18.1975 2 17.9021V6.39706C2 5.80033 2.23705 5.22803 2.65901 4.80607C3.08097 4.38412 3.65326 4.14706 4.25 4.14706H19.75ZM19.75 5.64706H4.25C4.05109 5.64706 3.86032 5.72608 3.71967 5.86673C3.57902 6.00739 3.5 6.19815 3.5 6.39706V17.9021C3.5 18.3161 3.836 18.6521 4.25 18.6521H19.75C19.9489 18.6521 20.1397 18.573 20.2803 18.4324C20.421 18.2917 20.5 18.101 20.5 17.9021V6.39706C20.5 6.19815 20.421 6.00739 20.2803 5.86673C20.1397 5.72608 19.9489 5.64706 19.75 5.64706ZM9.75 12.6471C9.94891 12.6471 10.1397 12.7261 10.2803 12.8667C10.421 13.0074 10.5 13.1982 10.5 13.3971V13.8901L10.492 13.9981C10.329 15.1111 9.398 15.6481 8 15.6481C6.602 15.6481 5.67 15.1111 5.508 13.9981L5.5 13.8881V13.3971C5.5 13.1982 5.57902 13.0074 5.71967 12.8667C5.86032 12.7261 6.05109 12.6471 6.25 12.6471H9.75ZM13.252 13.1431H17.75C17.94 13.1431 18.1229 13.2153 18.2618 13.345C18.4006 13.4748 18.4851 13.6524 18.498 13.8419C18.511 14.0315 18.4515 14.219 18.3316 14.3664C18.2117 14.5138 18.0402 14.6102 17.852 14.6361L17.75 14.6431H13.252C13.062 14.643 12.8791 14.5708 12.7402 14.4411C12.6014 14.3114 12.5169 14.1338 12.504 13.9442C12.491 13.7546 12.5505 13.5672 12.6704 13.4198C12.7903 13.2724 12.9618 13.176 13.15 13.1501L13.252 13.1431ZM8 8.64906C8.39782 8.64906 8.77936 8.8071 9.06066 9.0884C9.34196 9.36971 9.5 9.75124 9.5 10.1491C9.5 10.5469 9.34196 10.9284 9.06066 11.2097C8.77936 11.491 8.39782 11.6491 8 11.6491C7.60218 11.6491 7.22064 11.491 6.93934 11.2097C6.65804 10.9284 6.5 10.5469 6.5 10.1491C6.5 9.75124 6.65804 9.36971 6.93934 9.0884C7.22064 8.8071 7.60218 8.64906 8 8.64906ZM13.252 9.64706H17.75C17.94 9.64712 18.1229 9.71931 18.2618 9.84904C18.4006 9.97877 18.4851 10.1564 18.498 10.3459C18.511 10.5355 18.4515 10.723 18.3316 10.8704C18.2117 11.0178 18.0402 11.1142 17.852 11.1401L17.75 11.1471H13.252C13.062 11.147 12.8791 11.0748 12.7402 10.9451C12.6014 10.8154 12.5169 10.6378 12.504 10.4482C12.491 10.2586 12.5505 10.0712 12.6704 9.92377C12.7903 9.77636 12.9618 9.67997 13.15 9.65406L13.252 9.64706Z" fill="white"/>
</svg>
