<svg width="19" height="19" viewBox="0 0 19 19" fill="none" xmlns="http://www.w3.org/2000/svg">
<path d="M5 8.75C5 6.629 5 5.56775 5.65925 4.90925C6.31775 4.25 7.379 4.25 9.5 4.25H11.75C13.871 4.25 14.9323 4.25 15.5908 4.90925C16.25 5.56775 16.25 6.629 16.25 8.75V12.5C16.25 14.621 16.25 15.6823 15.5908 16.3408C14.9323 17 13.871 17 11.75 17H9.5C7.379 17 6.31775 17 5.65925 16.3408C5 15.6823 5 14.621 5 12.5V8.75Z" stroke="#A4A4A4" stroke-width="1.5"/>
<path d="M5 14.75C4.40326 14.75 3.83097 14.5129 3.40901 14.091C2.98705 13.669 2.75 13.0967 2.75 12.5V8C2.75 5.17175 2.75 3.75725 3.629 2.879C4.50725 2 5.92175 2 8.75 2H11.75C12.3467 2 12.919 2.23705 13.341 2.65901C13.7629 3.08097 14 3.65326 14 4.25" stroke="#A4A4A4" stroke-width="1.5"/>
</svg>
