<svg width="32" height="32" viewBox="0 0 32 32" fill="none" xmlns="http://www.w3.org/2000/svg">
<path d="M15 8.00023H10.8C9.11984 8.00023 8.27976 8.00023 7.63803 8.32721C7.07354 8.61483 6.6146 9.07377 6.32698 9.63826C6 10.28 6 11.1201 6 12.8002V21.2002C6 22.8804 6 23.7205 6.32698 24.3622C6.6146 24.9267 7.07354 25.3856 7.63803 25.6732C8.27976 26.0002 9.11984 26.0002 10.8 26.0002H19.2C20.8802 26.0002 21.7202 26.0002 22.362 25.6732C22.9265 25.3856 23.3854 24.9267 23.673 24.3622C24 23.7205 24 22.8804 24 21.2002V17.0002M12 20.0002H13.6745C14.1637 20.0002 14.4083 20.0002 14.6385 19.945C14.8425 19.896 15.0376 19.8152 15.2166 19.7055C15.4184 19.5818 15.5914 19.4089 15.9373 19.063L25.5 9.50023C26.3284 8.6718 26.3284 7.32865 25.5 6.50023C24.6716 5.6718 23.3284 5.6718 22.5 6.50022L12.9372 16.063C12.5913 16.4089 12.4184 16.5818 12.2947 16.7837C12.185 16.9626 12.1042 17.1577 12.0552 17.3618C12 17.5919 12 17.8365 12 18.3257V20.0002Z" stroke="#BDB3E5" stroke-width="2" stroke-linecap="round" stroke-linejoin="round"/>
</svg>
