<svg width="24" height="24" viewBox="0 0 24 24" fill="none" xmlns="http://www.w3.org/2000/svg">
<path d="M9.85713 5.14293H14.1428C14.1428 4.57461 13.9171 4.02956 13.5152 3.6277C13.1133 3.22583 12.5683 3.00007 12 3.00007C11.4317 3.00007 10.8866 3.22583 10.4848 3.6277C10.0829 4.02956 9.85713 4.57461 9.85713 5.14293ZM8.57141 5.14293C8.57141 4.23361 8.93263 3.36154 9.57562 2.71856C10.2186 2.07558 11.0907 1.71436 12 1.71436C12.9093 1.71436 13.7814 2.07558 14.4243 2.71856C15.0673 3.36154 15.4286 4.23361 15.4286 5.14293H20.7857C20.9562 5.14293 21.1197 5.21066 21.2403 5.33122C21.3608 5.45177 21.4286 5.61529 21.4286 5.78578C21.4286 5.95628 21.3608 6.11979 21.2403 6.24035C21.1197 6.36091 20.9562 6.42864 20.7857 6.42864H19.6628L18.6197 18.9455C18.5438 19.8561 18.1285 20.7049 17.4561 21.3236C16.7837 21.9423 15.9034 22.2857 14.9897 22.2858H9.01027C8.09655 22.2857 7.21622 21.9423 6.54384 21.3236C5.87147 20.7049 5.45616 19.8561 5.38027 18.9455L4.33713 6.42864H3.21427C3.04377 6.42864 2.88026 6.36091 2.7597 6.24035C2.63914 6.11979 2.57141 5.95628 2.57141 5.78578C2.57141 5.61529 2.63914 5.45177 2.7597 5.33122C2.88026 5.21066 3.04377 5.14293 3.21427 5.14293H8.57141ZM6.6617 18.8384C6.71072 19.4276 6.97937 19.9768 7.41439 20.3772C7.84941 20.7777 8.41902 21 9.01027 21.0001H14.9897C15.5809 21 16.1506 20.7777 16.5856 20.3772C17.0206 19.9768 17.2892 19.4276 17.3383 18.8384L18.3737 6.42864H5.62713L6.6617 18.8384ZM10.0714 9.42864C10.2419 9.42864 10.4054 9.49637 10.526 9.61693C10.6465 9.73749 10.7143 9.901 10.7143 10.0715V17.3572C10.7143 17.5277 10.6465 17.6912 10.526 17.8118C10.4054 17.9323 10.2419 18.0001 10.0714 18.0001C9.90091 18.0001 9.7374 17.9323 9.61684 17.8118C9.49628 17.6912 9.42855 17.5277 9.42855 17.3572V10.0715C9.42855 9.901 9.49628 9.73749 9.61684 9.61693C9.7374 9.49637 9.90091 9.42864 10.0714 9.42864ZM14.5714 10.0715C14.5714 9.901 14.5037 9.73749 14.3831 9.61693C14.2626 9.49637 14.0991 9.42864 13.9286 9.42864C13.7581 9.42864 13.5945 9.49637 13.474 9.61693C13.3534 9.73749 13.2857 9.901 13.2857 10.0715V17.3572C13.2857 17.5277 13.3534 17.6912 13.474 17.8118C13.5945 17.9323 13.7581 18.0001 13.9286 18.0001C14.0991 18.0001 14.2626 17.9323 14.3831 17.8118C14.5037 17.6912 14.5714 17.5277 14.5714 17.3572V10.0715Z" fill="white"/>
</svg>
