<svg width="25" height="25" viewBox="0 0 25 25" fill="none" xmlns="http://www.w3.org/2000/svg">
<path d="M5.67827 1.33438L1.22983 5.84844C1.98921 6.74844 3.27827 7.51251 4.33296 7.73282C5.05015 7.87344 5.76733 7.81719 6.36265 7.51251C7.73608 8.86719 9.09077 10.2453 10.4408 11.6328L11.4814 10.5875L7.37515 6.48594C7.67046 5.89532 7.77358 5.17579 7.58608 4.47969C7.20171 3.05001 6.59233 2.24938 5.67827 1.33438ZM11.5423 1.77969C11.1064 1.78438 10.6751 1.82188 10.2533 1.90626C15.7423 5.21094 19.8439 9.62657 23.0783 14.7359C23.2095 11.9609 22.0845 9.10157 20.2986 6.78126C19.5955 7.03907 18.7283 6.80938 18.1236 6.20938C17.5236 5.60469 17.2939 4.73751 17.5517 4.03438C15.7095 2.63282 13.6001 1.77032 11.5423 1.77969ZM6.1939 3.32188C6.46108 3.76719 6.63921 4.22188 6.72358 4.64844C6.87827 5.42188 6.73296 6.05938 6.32046 6.47188C5.91265 6.87969 5.27515 7.02501 4.50171 6.87501C4.07515 6.79063 3.62046 6.61251 3.17046 6.34532L6.1939 3.32188ZM18.5455 4.06719C18.208 4.39719 18.2361 5.07969 18.747 5.58594C19.2533 6.09688 19.933 6.12032 20.2705 5.78751C20.6033 5.45001 20.5939 4.75626 20.0689 4.26407C19.6611 3.88298 18.9861 3.63266 18.5455 4.06719ZM15.9064 7.40469L1.22046 22.0953C1.41733 22.6344 1.72202 23.0516 2.3689 23.2625L17.0642 8.56251C16.7126 8.15469 16.3236 7.77032 15.9064 7.40469ZM13.8814 12.9875L12.7986 14.0703C14.322 15.6641 15.8455 17.2719 17.3642 18.875C16.633 19.5547 15.8783 20.15 15.1845 20.5672C17.8048 23.1922 21.0392 24.2281 22.7783 23.1219C23.847 21.3734 22.8298 18.1297 20.2236 15.5234C19.7736 16.2266 19.1923 16.9625 18.5595 17.6656L13.8814 12.9875Z" fill="white"/>
</svg>
