<svg width="24" height="30" viewBox="0 0 24 30" fill="none" xmlns="http://www.w3.org/2000/svg">
<path d="M20.5003 29.1663C21.2518 29.1663 21.9724 28.8678 22.5038 28.3365C23.0351 27.8051 23.3337 27.0845 23.3337 26.333V9.33301L14.8337 0.833008H3.50033C2.74888 0.833008 2.02821 1.13152 1.49686 1.66287C0.965503 2.19422 0.666992 2.91489 0.666992 3.66634V26.333C0.666992 27.0845 0.965503 27.8051 1.49686 28.3365C2.02821 28.8678 2.74888 29.1663 3.50033 29.1663H20.5003ZM13.417 3.66634L20.5003 10.7497H13.417V3.66634ZM4.91699 9.33301H9.16699V12.1663H4.91699V9.33301ZM4.91699 14.9997H19.0837V17.833H4.91699V14.9997ZM4.91699 20.6663H19.0837V23.4997H4.91699V20.6663Z" fill="white"/>
</svg>
