<svg width="25" height="25" viewBox="0 0 25 25" fill="none" xmlns="http://www.w3.org/2000/svg">
<path d="M12.6471 2.14507C18.1711 2.14507 22.6491 6.62306 22.6491 12.1471C22.6491 17.6701 18.1711 22.1471 12.6471 22.1471C7.12308 22.1481 2.64508 17.6701 2.64508 12.1471C2.64508 6.62306 7.12308 2.14507 12.6471 2.14507ZM12.6471 3.64507C11.5229 3.63287 10.4074 3.84376 9.3653 4.26554C8.32316 4.68731 7.37501 5.31158 6.57574 6.10223C5.77647 6.89288 5.14195 7.8342 4.7089 8.87171C4.27585 9.90921 4.05288 11.0223 4.05288 12.1466C4.05288 13.2708 4.27585 14.3839 4.7089 15.4214C5.14195 16.4589 5.77647 17.4003 6.57574 18.1909C7.37501 18.9815 8.32316 19.6058 9.3653 20.0276C10.4074 20.4494 11.5229 20.6603 12.6471 20.6481C14.8858 20.6238 17.0247 19.7174 18.5992 18.1257C20.1737 16.534 21.0569 14.3855 21.0569 12.1466C21.0569 9.90767 20.1737 7.75913 18.5992 6.16743C17.0247 4.57573 14.8858 3.66935 12.6471 3.64507ZM9.10908 14.9301C9.52998 15.4658 10.0672 15.8988 10.6802 16.1963C11.2932 16.4938 11.9658 16.6479 12.6471 16.6471C13.3277 16.6479 13.9995 16.494 14.6119 16.1971C15.2243 15.9002 15.7612 15.4679 16.1821 14.9331C16.2431 14.8558 16.3188 14.7913 16.4048 14.7433C16.4908 14.6952 16.5854 14.6646 16.6833 14.6531C16.7811 14.6417 16.8802 14.6496 16.975 14.6764C17.0697 14.7033 17.1583 14.7485 17.2356 14.8096C17.3129 14.8706 17.3774 14.9463 17.4254 15.0323C17.4734 15.1183 17.504 15.2129 17.5155 15.3107C17.527 15.4086 17.5191 15.5077 17.4922 15.6025C17.4654 15.6972 17.4201 15.7858 17.3591 15.8631C16.7979 16.5757 16.0821 17.1516 15.2659 17.5472C14.4496 17.9429 13.5542 18.148 12.6471 18.1471C11.7387 18.148 10.8419 17.9423 10.0247 17.5455C9.20754 17.1488 8.49126 16.5714 7.93008 15.8571C7.86915 15.7797 7.82406 15.691 7.79739 15.5962C7.77072 15.5013 7.76299 15.4022 7.77464 15.3043C7.7863 15.2065 7.8171 15.1119 7.86531 15.026C7.91351 14.9401 7.97817 14.8645 8.05558 14.8036C8.13299 14.7426 8.22165 14.6975 8.31649 14.6709C8.41133 14.6442 8.5105 14.6365 8.60832 14.6481C8.70615 14.6598 8.80072 14.6906 8.88664 14.7388C8.97256 14.787 9.04815 14.8517 9.10908 14.9291M9.64708 8.89707C9.81414 8.89234 9.98045 8.92116 10.1362 8.98183C10.2919 9.0425 10.4339 9.13378 10.5537 9.25027C10.6736 9.36676 10.7688 9.50611 10.8339 9.66006C10.8989 9.81401 10.9324 9.97944 10.9324 10.1466C10.9324 10.3137 10.8989 10.4791 10.8339 10.6331C10.7688 10.787 10.6736 10.9264 10.5537 11.0429C10.4339 11.1594 10.2919 11.2506 10.1362 11.3113C9.98045 11.372 9.81414 11.4008 9.64708 11.3961C9.32181 11.3869 9.01295 11.2512 8.78614 11.0179C8.55932 10.7845 8.43243 10.472 8.43243 10.1466C8.43243 9.82117 8.55932 9.50859 8.78614 9.27527C9.01295 9.04195 9.32181 8.90627 9.64708 8.89707ZM15.6471 8.89707C15.8141 8.89234 15.9805 8.92116 16.1362 8.98183C16.2919 9.0425 16.4339 9.13378 16.5537 9.25027C16.6736 9.36676 16.7688 9.50611 16.8339 9.66006C16.8989 9.81401 16.9324 9.97944 16.9324 10.1466C16.9324 10.3137 16.8989 10.4791 16.8339 10.6331C16.7688 10.787 16.6736 10.9264 16.5537 11.0429C16.4339 11.1594 16.2919 11.2506 16.1362 11.3113C15.9805 11.372 15.8141 11.4008 15.6471 11.3961C15.3218 11.3869 15.013 11.2512 14.7861 11.0179C14.5593 10.7845 14.4324 10.472 14.4324 10.1466C14.4324 9.82117 14.5593 9.50859 14.7861 9.27527C15.013 9.04195 15.3218 8.90627 15.6471 8.89707Z" fill="white"/>
</svg>
