<svg width="34" height="34" viewBox="0 0 34 34" fill="none" xmlns="http://www.w3.org/2000/svg">
<path d="M8.86637 7.07838C8.89599 6.94613 8.89927 6.80934 8.87602 6.67582C8.85277 6.5423 8.80346 6.41467 8.73088 6.30021C8.65831 6.18575 8.5639 6.08671 8.45305 6.00874C8.3422 5.93076 8.21708 5.87539 8.08483 5.84577C7.95257 5.81615 7.81578 5.81287 7.68226 5.83612C7.54875 5.85937 7.42111 5.90868 7.30665 5.98126C7.19219 6.05383 7.09315 6.14824 7.01518 6.25909C6.9372 6.36994 6.88183 6.49506 6.85221 6.62731L8.86637 7.07838ZM11.3353 2.50608C11.2196 2.57673 11.119 2.66946 11.0391 2.77899C10.9593 2.88852 10.9018 3.0127 10.87 3.14445C10.8381 3.27619 10.8326 3.41291 10.8536 3.54682C10.8746 3.68072 10.9217 3.80917 10.9924 3.92484C11.063 4.04051 11.1558 4.14114 11.2653 4.22097C11.3748 4.3008 11.499 4.35828 11.6307 4.39012C11.7625 4.42196 11.8992 4.42754 12.0331 4.40654C12.167 4.38554 12.2955 4.33837 12.4111 4.26773L11.3353 2.50608ZM12.9498 25.3796C13.0415 25.4824 13.1528 25.5658 13.2772 25.6248C13.4015 25.6839 13.5365 25.7175 13.674 25.7236C13.8116 25.7297 13.949 25.7082 14.0781 25.6604C14.2072 25.6125 14.3254 25.5394 14.4258 25.4451C14.5262 25.3509 14.6068 25.2375 14.6627 25.1117C14.7186 24.9859 14.7487 24.8501 14.7513 24.7125C14.754 24.5748 14.729 24.438 14.678 24.3101C14.6269 24.1823 14.5507 24.0659 14.454 23.9679L12.9498 25.3796ZM18.4857 27.011C18.3641 26.9512 18.2319 26.9159 18.0966 26.9072C17.9613 26.8984 17.8256 26.9164 17.6973 26.9601C17.569 27.0038 17.4505 27.0724 17.3487 27.1619C17.2468 27.2514 17.1636 27.36 17.1038 27.4817C17.044 27.6033 17.0087 27.7355 16.9999 27.8708C16.9912 28.0061 17.0092 28.1418 17.0529 28.2701C17.0966 28.3984 17.1651 28.5169 17.2546 28.6187C17.3441 28.7206 17.4528 28.8038 17.5744 28.8636L18.4857 27.011ZM20.7673 21.6685L21.5068 21.216L20.431 19.4544L19.6914 19.9068L20.7673 21.6685ZM23.3993 21.426L25.4124 23.4106L26.86 21.9394L24.8476 19.956L23.3993 21.426ZM25.0668 26.2678L22.7577 27.6804L23.8341 29.4401L26.142 28.0282L25.0668 26.2678ZM11.4772 19.7693C8.05097 13.4553 8.4402 8.97333 8.86637 7.07838L6.85221 6.62731C6.32416 8.98139 5.98551 13.9774 9.66373 20.7528L11.4772 19.7693ZM15.5261 12.01L15.9922 11.725L14.9152 9.96406L14.4479 10.2497L15.5261 12.01ZM17.6054 7.03521L16.6463 4.40552L14.7066 5.1124L15.6668 7.7414L17.6054 7.03521ZM14.9876 11.1295L14.4479 10.2497L14.4288 10.2607L14.4064 10.2769C14.3422 10.3195 14.2816 10.3673 14.2251 10.4197C14.1067 10.5277 14.0006 10.6486 13.909 10.7801C13.6348 11.1858 13.4641 11.6525 13.4118 12.1394C13.2606 13.3164 13.5811 15.0217 14.9401 17.5269L16.7559 16.5421C15.4942 14.2191 15.3859 12.9694 15.4591 12.4029C15.4932 12.1291 15.572 12.0042 15.5974 11.9657C15.6117 11.9463 15.6188 11.9422 15.6083 11.9515C15.5923 11.9655 15.5751 11.9781 15.5569 11.9891L15.5421 11.9992L15.5278 12.0074C15.5266 12.0081 15.5254 12.0088 14.9869 11.1283M14.9407 17.5251C16.2967 20.0224 17.5328 21.1976 18.6087 21.6661C19.1606 21.9067 19.6471 21.9514 20.0387 21.9033C20.2557 21.8767 20.4672 21.8157 20.6651 21.7227C20.6964 21.7072 20.727 21.6905 20.757 21.6728L20.7642 21.6686C20.7654 21.668 20.7673 21.6685 20.2287 20.788C19.6914 19.9068 19.6907 19.9056 19.6931 19.9042L19.699 19.9008C19.7269 19.8846 19.7556 19.8701 19.7852 19.8574C19.8009 19.8516 19.8016 19.8527 19.7869 19.8549C19.6642 19.8596 19.5424 19.8318 19.4338 19.7744C18.9737 19.5745 18.02 18.8718 16.7546 16.5397L14.9407 17.5251ZM16.6456 4.40433C15.8501 2.2203 13.3311 1.2855 11.3353 2.50608L12.4116 4.26585C13.2576 3.74727 14.3432 4.1117 14.7071 5.11052L16.6456 4.40433ZM22.7577 27.6804C22.3059 27.9571 21.8913 28.0535 21.5387 28.0013L21.2272 30.0398C22.2051 30.19 23.1117 29.881 23.8341 29.4401L22.7577 27.6804ZM15.9922 11.725C17.5689 10.7607 18.2371 8.7705 17.6054 7.03521L15.6668 7.7414C15.9709 8.57617 15.6333 9.52403 14.9152 9.96406L15.9922 11.725ZM25.4124 23.4106C26.2221 24.2077 26.0603 25.6608 25.0656 26.2685L26.1427 28.0294C28.2663 26.7303 28.6379 23.6898 26.86 21.9394L25.4124 23.4106ZM21.508 21.2154C22.1298 20.8341 22.8902 20.9241 23.3993 21.426L24.8476 19.956C24.2749 19.3883 23.527 19.029 22.7258 18.9382C21.9246 18.8474 21.1161 19.0293 20.431 19.4544L21.508 21.2154ZM14.4559 23.9684C13.4418 22.886 12.4245 21.5147 11.4772 19.7693L9.66373 20.7528C10.6926 22.6448 11.8093 24.1636 12.9498 25.3796L14.4559 23.9684ZM21.5381 28.0001C20.4764 27.827 19.4472 27.4935 18.4857 27.011L17.5737 28.8624C18.7246 29.4375 19.9563 29.8341 21.2265 30.0386L21.5381 28.0001Z" fill="white"/>
</svg>
