<svg width="24" height="25" viewBox="0 0 24 25" fill="none" xmlns="http://www.w3.org/2000/svg">
<path d="M3 13.1471C6.6 5.14706 17.4 5.14706 21 13.1471" stroke="#979797" stroke-width="1.5" stroke-linecap="round" stroke-linejoin="round"/>
<path d="M12 17.1471C11.606 17.1471 11.2159 17.0695 10.8519 16.9187C10.488 16.7679 10.1573 16.547 9.87868 16.2684C9.6001 15.9898 9.37913 15.6591 9.22836 15.2951C9.0776 14.9311 9 14.541 9 14.1471C9 13.7531 9.0776 13.363 9.22836 12.999C9.37913 12.635 9.6001 12.3043 9.87868 12.0257C10.1573 11.7472 10.488 11.5262 10.8519 11.3754C11.2159 11.2247 11.606 11.1471 12 11.1471C12.7956 11.1471 13.5587 11.4631 14.1213 12.0257C14.6839 12.5884 15 13.3514 15 14.1471C15 14.9427 14.6839 15.7058 14.1213 16.2684C13.5587 16.831 12.7956 17.1471 12 17.1471Z" stroke="#979797" stroke-width="1.5" stroke-linecap="round" stroke-linejoin="round"/>
</svg>
