<svg width="24" height="25" viewBox="0 0 24 25" fill="none" xmlns="http://www.w3.org/2000/svg">
<path d="M11 13.8971H12V9.89706M16 9.64706V8.14706M9.00001 16.6471C10.5 18.1471 13.5 18.1471 15 16.6471M8.00001 9.64706V8.14706M7.50001 21.0331C6.03701 20.8891 5.05301 20.5631 4.31801 19.8291C3.58301 19.0941 3.25801 18.1091 3.11401 16.6471M7.50001 3.26106C6.03701 3.40506 5.05301 3.73106 4.31801 4.46506C3.58301 5.20006 3.25801 6.18506 3.11401 7.64706M16.5 3.26106C17.963 3.40506 18.947 3.73106 19.682 4.46506C20.417 5.20006 20.742 6.18506 20.886 7.64706M16.5 21.0331C17.963 20.8891 18.947 20.5631 19.682 19.8291C20.417 19.0941 20.742 18.1091 20.886 16.6471" stroke="white" stroke-width="1.5" stroke-linecap="round" stroke-linejoin="round"/>
</svg>
