<svg width="24" height="25" viewBox="0 0 24 25" fill="none" xmlns="http://www.w3.org/2000/svg">
<path d="M12.664 5.97942L16.637 9.50942C18.205 10.9044 18.99 11.6014 18.99 12.4994C18.99 13.3984 18.205 14.0954 16.637 15.4894L12.664 19.0194C11.948 19.6564 11.59 19.9754 11.295 19.8424C11 19.7094 11 19.2314 11 18.2724V15.9284C7.4 15.9284 3.5 17.6424 2 20.4994C2 11.3574 7.333 9.07142 11 9.07142V6.72642C11 5.76842 11 5.28942 11.295 5.15642C11.59 5.02442 11.948 5.34242 12.665 5.97942" stroke="#868686" stroke-width="1.5" stroke-linecap="round" stroke-linejoin="round"/>
<path d="M15.5389 5L20.7549 9.844C21.1581 10.2184 21.4774 10.674 21.6918 11.1807C21.9063 11.6874 22.011 12.2337 21.9991 12.7838C21.9872 13.3339 21.8589 13.8752 21.6228 14.3721C21.3866 14.8691 21.0479 15.3104 20.6289 15.667L15.5389 20" stroke="#868686" stroke-width="1.5" stroke-linecap="round"/>
</svg>
