<svg width="25" height="25" viewBox="0 0 25 25" fill="none" xmlns="http://www.w3.org/2000/svg">
<path d="M16.6471 10.1471C17.7517 10.1471 18.6471 9.25163 18.6471 8.14706C18.6471 7.04249 17.7517 6.14706 16.6471 6.14706C15.5425 6.14706 14.6471 7.04249 14.6471 8.14706C14.6471 9.25163 15.5425 10.1471 16.6471 10.1471Z" stroke="white" stroke-width="1.5"/>
<path d="M2.64709 12.6471L4.39909 11.1141C4.83823 10.7301 5.40684 10.5274 5.98982 10.5469C6.57279 10.5664 7.12659 10.8067 7.53909 11.2191L11.8291 15.5091C12.162 15.8419 12.6016 16.0466 13.0706 16.0873C13.5396 16.1279 14.0079 16.0017 14.3931 15.7311L14.6921 15.5211C15.2477 15.1309 15.9192 14.9406 16.5969 14.9815C17.2746 15.0224 17.9184 15.2919 18.4231 15.7461L21.6471 18.6471" stroke="white" stroke-width="1.5" stroke-linecap="round"/>
<path d="M22.6471 12.1471C22.6471 16.8611 22.6471 19.2181 21.1821 20.6821C19.7191 22.1471 17.3611 22.1471 12.6471 22.1471C7.93309 22.1471 5.57609 22.1471 4.11109 20.6821C2.64709 19.2191 2.64709 16.8611 2.64709 12.1471C2.64709 7.43306 2.64709 5.07606 4.11109 3.61106C5.57709 2.14706 7.93309 2.14706 12.6471 2.14706C17.3611 2.14706 19.7181 2.14706 21.1821 3.61106C22.1561 4.58506 22.4821 5.95406 22.5921 8.14706" stroke="white" stroke-width="1.5" stroke-linecap="round"/>
</svg>
