<svg width="33" height="34" viewBox="0 0 33 34" fill="none" xmlns="http://www.w3.org/2000/svg">
<path d="M2.08516 2.94385L3.62172 7.94541C3.74547 8.3476 4.2611 8.47135 4.56016 8.17229L5.5646 7.17094L11.6686 13.2739C11.8631 13.4617 12.1236 13.5657 12.3939 13.5633C12.6643 13.561 12.923 13.4525 13.1142 13.2613C13.3054 13.0701 13.4138 12.8115 13.4162 12.5411C13.4185 12.2707 13.3146 12.0102 13.1268 11.8157L7.02588 5.71379L8.03547 4.70729C8.10344 4.63785 8.15243 4.55212 8.17774 4.45831C8.20306 4.3645 8.20385 4.26576 8.18004 4.17156C8.15623 4.07735 8.10862 3.99085 8.04177 3.92033C7.97492 3.84981 7.89108 3.79765 7.79829 3.76885L2.79672 2.23229C2.69806 2.20439 2.59373 2.20331 2.49451 2.22917C2.39529 2.25503 2.30476 2.30688 2.23226 2.37938C2.15976 2.45189 2.1079 2.54242 2.08205 2.64164C2.05619 2.74086 2.05726 2.84518 2.08516 2.94385ZM26.7527 28.0238L26.7382 28.0094C26.8914 28.0242 27.0459 28.0045 27.1904 27.9517C27.3349 27.899 27.4657 27.8144 27.5733 27.7044C27.6808 27.5944 27.7623 27.4617 27.8118 27.316C27.8613 27.1703 27.8775 27.0154 27.8592 26.8627L27.8973 26.8998C28.019 27.2432 28.2581 27.5325 28.5724 27.7167C28.8867 27.9009 29.256 27.9681 29.6151 27.9064C29.9741 27.8447 30.2998 27.6581 30.5346 27.3796C30.7694 27.101 30.8982 26.7485 30.8983 26.3842C30.8983 25.9613 30.7333 25.5798 30.4548 25.3013L30.4342 25.2807L27.4333 22.352C27.0112 21.9484 26.4498 21.723 25.8658 21.7229L23.0525 21.7404L19.2524 17.9413C19.0579 17.7535 18.7974 17.6495 18.527 17.6519C18.2566 17.6542 17.998 17.7627 17.8068 17.9539C17.6156 18.1451 17.5071 18.4037 17.5047 18.6741C17.5024 18.9445 17.6063 19.205 17.7942 19.3995L21.5933 23.1986L21.5758 25.9923C21.5758 26.5801 21.8027 27.137 22.2048 27.5598L25.1336 30.5607L25.1542 30.5813C25.4327 30.8598 25.8142 31.0248 26.237 31.0248C27.093 31.0248 27.7839 30.3338 27.7839 29.4779C27.7839 28.8076 27.3508 28.2404 26.7527 28.0238Z" fill="white"/>
<path d="M2.0625 14.5846C2.0625 12.5778 2.65238 10.7483 3.75375 9.31697C4.27453 9.45103 4.86338 9.32728 5.28928 8.90138L5.56359 8.62809L6.46078 9.52425C6.21129 9.70693 5.97836 9.91122 5.76469 10.1348C4.73963 11.2073 4.125 12.7459 4.125 14.5846C4.125 16.3707 4.84997 18.2352 6.039 20.077C7.22494 21.9127 8.82441 23.6524 10.4569 25.1663C12.3253 26.8868 14.3304 28.4526 16.4526 29.8481L16.5 29.878L16.5474 29.8471C16.9084 29.614 17.423 29.2686 18.0407 28.8262C18.9327 28.1872 19.8029 27.5182 20.6497 26.8204C20.7914 27.3644 21.0693 27.8634 21.4572 28.2703L21.7583 28.5787C20.9393 29.2459 20.0998 29.8877 19.2411 30.503C18.5965 30.9639 18.0551 31.328 17.6674 31.5796C17.465 31.7108 17.2601 31.838 17.0527 31.9612C17.0021 31.989 16.9501 32.0145 16.897 32.0375C16.8659 32.05 16.8343 32.061 16.8022 32.0705H16.8001C16.7033 32.1007 16.6024 32.116 16.501 32.1158C16.3443 32.1158 16.2247 32.0787 16.1999 32.0715H16.1978C16.1102 32.0453 16.0263 32.0078 15.9483 31.9601C15.7406 31.837 15.5353 31.7098 15.3326 31.5786C13.1105 30.1185 11.0111 28.4795 9.05541 26.6781C7.34972 25.0972 5.61825 23.2265 4.3065 21.1959C3.00094 19.1737 2.0625 16.9163 2.0625 14.5846ZM14.156 9.95428C13.4341 9.33553 12.4781 8.74153 11.2747 8.50538L9.15544 6.38616C9.48131 6.35213 9.81441 6.33459 10.1537 6.33459C12.5431 6.33459 14.3251 7.38234 15.4976 8.38678C15.8988 8.73122 16.2329 9.07256 16.5 9.37163C16.7681 9.07256 17.1012 8.73122 17.5024 8.38781C18.6759 7.38234 20.4569 6.33459 22.8463 6.33459C25.244 6.33459 27.2858 7.20291 28.7255 8.70956C30.161 10.2111 30.9375 12.2808 30.9375 14.5846C30.9375 16.9163 29.9991 19.1737 28.6935 21.1959C28.5697 21.3878 28.4419 21.5785 28.3109 21.7673L28.1531 21.6136L28.1438 21.6053C27.6887 21.1711 27.1192 20.8756 26.5021 20.7535C26.6609 20.5298 26.8135 20.3039 26.961 20.077C28.1511 18.2352 28.875 16.3707 28.875 14.5846C28.875 12.7459 28.2604 11.2073 27.2353 10.1348C26.2144 9.06741 24.7263 8.39709 22.8463 8.39709C21.1014 8.39709 19.7773 9.15403 18.8451 9.95428C18.4529 10.2927 18.0909 10.6647 17.7633 11.066C17.6643 11.1866 17.5849 11.2887 17.5158 11.3784L17.4518 11.4589C17.4088 11.5145 17.3641 11.5688 17.3178 11.6218C17.2335 11.7214 17.1323 11.8052 17.0187 11.8693C16.8301 11.9771 16.6126 12.0234 16.3964 12.002C16.1802 11.9806 15.976 11.8924 15.8122 11.7497C15.7503 11.6981 15.7049 11.6466 15.6833 11.6218C15.637 11.5688 15.5923 11.5144 15.5492 11.4589L15.4852 11.3784C15.4038 11.2732 15.3209 11.169 15.2367 11.066C14.9095 10.6644 14.5479 10.292 14.156 9.95325" fill="white"/>
</svg>
