<svg width="24" height="25" viewBox="0 0 24 25" fill="none" xmlns="http://www.w3.org/2000/svg">
<path d="M12 5.64707L11.46 6.16707C11.53 6.23965 11.6138 6.29739 11.7066 6.33682C11.7994 6.37626 11.8992 6.39658 12 6.39658C12.1008 6.39658 12.2006 6.37626 12.2934 6.33682C12.3862 6.29739 12.47 6.23965 12.54 6.16707L12 5.64707ZM7.001 16.5671C6.84717 16.4406 6.64939 16.3803 6.45117 16.3997C6.25294 16.419 6.07051 16.5162 5.944 16.6701C5.81749 16.8239 5.75727 17.0217 5.77659 17.2199C5.7959 17.4181 5.89317 17.6006 6.047 17.7271L7.001 16.5671ZM2.342 13.5581C2.38928 13.6445 2.45311 13.7207 2.52985 13.7825C2.6066 13.8442 2.69475 13.8902 2.78928 13.9179C2.88381 13.9456 2.98287 13.9544 3.08079 13.9437C3.17871 13.9331 3.27359 13.9033 3.36 13.8561C3.44641 13.8088 3.52266 13.745 3.5844 13.6682C3.64614 13.5915 3.69216 13.5033 3.71983 13.4088C3.74751 13.3143 3.75629 13.2152 3.74568 13.1173C3.73507 13.0194 3.70528 12.9245 3.658 12.8381L2.342 13.5581ZM2.75 9.28407C2.75 7.13407 3.965 5.33007 5.624 4.57107C7.236 3.83407 9.402 4.02907 11.46 6.16707L12.54 5.12807C10.1 2.59107 7.264 2.17207 5 3.20707C2.786 4.22007 1.25 6.57207 1.25 9.28407H2.75ZM8.497 19.6471C9.01 20.0511 9.56 20.4811 10.117 20.8071C10.674 21.1321 11.31 21.3971 12 21.3971V19.8971C11.69 19.8971 11.326 19.7771 10.874 19.5121C10.421 19.2481 9.952 18.8841 9.426 18.4691L8.497 19.6471ZM15.503 19.6471C16.929 18.5221 18.753 17.2341 20.183 15.6231C21.64 13.9831 22.75 11.9501 22.75 9.28407H21.25C21.25 11.4821 20.35 13.1751 19.062 14.6271C17.747 16.1071 16.09 17.2741 14.574 18.4691L15.503 19.6471ZM22.75 9.28407C22.75 6.57207 21.215 4.22007 19 3.20707C16.736 2.17207 13.902 2.59107 11.46 5.12707L12.54 6.16707C14.598 4.03007 16.764 3.83407 18.376 4.57107C20.035 5.33007 21.25 7.13307 21.25 9.28407H22.75ZM14.574 18.4691C14.048 18.8841 13.579 19.2481 13.126 19.5121C12.674 19.7761 12.31 19.8971 12 19.8971V21.3971C12.69 21.3971 13.326 21.1321 13.883 20.8071C14.441 20.4811 14.99 20.0511 15.503 19.6471L14.574 18.4691ZM9.426 18.4691C8.63 17.8421 7.821 17.2421 7.001 16.5671L6.047 17.7271C6.877 18.4101 7.755 19.0621 8.497 19.6471L9.426 18.4691ZM3.658 12.8391C3.05561 11.7515 2.74293 10.5273 2.75 9.28407H1.25C1.25 10.9221 1.67 12.3291 2.342 13.5581L3.658 12.8391Z" fill="white"/>
</svg>
