<svg width="35" height="35" viewBox="0 0 35 35" fill="none" xmlns="http://www.w3.org/2000/svg">
<path opacity="0.5" d="M17.6934 11.8333V17.5L21.235 21.0417" stroke="white" stroke-width="1.5" stroke-linecap="round" stroke-linejoin="round"/>
<path d="M6.83884 10.2339L5.77634 10.2382C5.77746 10.5182 5.88912 10.7866 6.08703 10.9847C6.28495 11.1829 6.5531 11.2949 6.83318 11.2964L6.83884 10.2339ZM10.44 11.3134C10.5795 11.3141 10.7178 11.2872 10.847 11.2344C10.9761 11.1816 11.0936 11.1039 11.1928 11.0057C11.2919 10.9075 11.3707 10.7908 11.4247 10.6621C11.4787 10.5334 11.5068 10.3954 11.5075 10.2559C11.5081 10.1163 11.4813 9.97805 11.4285 9.8489C11.3757 9.71974 11.298 9.60224 11.1998 9.50312C11.1016 9.404 10.9848 9.32519 10.8562 9.27119C10.7275 9.21719 10.5895 9.18907 10.4499 9.18842L10.44 11.3134ZM7.88293 6.62142C7.88218 6.48189 7.85396 6.34387 7.79988 6.21525C7.7458 6.08662 7.66691 5.96991 7.56772 5.87178C7.46853 5.77364 7.35099 5.696 7.22179 5.64329C7.0926 5.59058 6.95429 5.56384 6.81476 5.56458C6.67523 5.56533 6.53721 5.59355 6.40859 5.64763C6.27997 5.70171 6.16326 5.7806 6.06512 5.87979C5.96698 5.97898 5.88935 6.09652 5.83664 6.22572C5.78393 6.35491 5.75718 6.49322 5.75793 6.63275L7.88293 6.62142ZM6.11493 15.7787C6.13529 15.6399 6.12793 15.4984 6.09329 15.3624C6.05865 15.2264 5.9974 15.0986 5.91309 14.9864C5.82878 14.8742 5.72308 14.7798 5.60209 14.7087C5.4811 14.6375 5.34721 14.5911 5.20817 14.572C5.06913 14.5529 4.92768 14.5616 4.792 14.5974C4.65632 14.6333 4.52909 14.6957 4.41766 14.7811C4.30624 14.8664 4.21282 14.973 4.14281 15.0946C4.0728 15.2162 4.02758 15.3505 4.00976 15.4898L6.11493 15.7787ZM27.4145 7.77883C22.0028 2.36717 13.2578 2.3105 7.88151 7.68817L9.38318 9.18983C13.9165 4.65792 21.3158 4.68483 25.9128 9.2805L27.4145 7.77883ZM7.97218 27.2212C13.3838 32.6328 22.1289 32.6895 27.5052 27.3118L26.0035 25.8102C21.4702 30.3421 14.0709 30.3152 9.47384 25.7195L7.97218 27.2212ZM27.5052 27.3118C32.8814 21.9356 32.8262 13.1905 27.4145 7.77883L25.9128 9.2805C30.5085 13.8776 30.5354 21.2768 26.0035 25.8102L27.5052 27.3118ZM7.88151 7.68817L6.08659 9.48167L7.58968 10.9833L9.38318 9.18983L7.88151 7.68817ZM6.83318 11.2964L10.44 11.3134L10.4499 9.18842L6.84451 9.17142L6.83318 11.2964ZM7.90134 10.2282L7.88293 6.62142L5.75793 6.63275L5.77634 10.2382L7.90134 10.2282ZM4.00834 15.4883C3.71728 17.617 3.9236 19.7841 4.61111 21.8196C5.29862 23.8551 6.4486 25.7035 7.97076 27.2197L9.47243 25.7181C8.18216 24.4336 7.20733 22.8674 6.62451 21.1425C6.0417 19.4177 5.86678 17.5812 6.11351 15.7773L4.00834 15.4883Z" fill="white"/>
</svg>
