<svg width="25" height="24" viewBox="0 0 25 24" fill="none" xmlns="http://www.w3.org/2000/svg">
<path d="M21.5 19.5C21.5 19.1022 21.342 18.7206 21.0607 18.4393C20.7794 18.158 20.3978 18 20 18C19.6022 18 19.2206 18.158 18.9393 18.4393C18.658 18.7206 18.5 19.1022 18.5 19.5C18.5 19.8978 18.658 20.2794 18.9393 20.5607C19.2206 20.842 19.6022 21 20 21C20.3978 21 20.7794 20.842 21.0607 20.5607C21.342 20.2794 21.5 19.8978 21.5 19.5ZM14 19.5C14 19.1022 13.842 18.7206 13.5607 18.4393C13.2794 18.158 12.8978 18 12.5 18C12.1022 18 11.7206 18.158 11.4393 18.4393C11.158 18.7206 11 19.1022 11 19.5C11 19.8978 11.158 20.2794 11.4393 20.5607C11.7206 20.842 12.1022 21 12.5 21C12.8978 21 13.2794 20.842 13.5607 20.5607C13.842 20.2794 14 19.8978 14 19.5ZM6.5 19.5C6.5 19.1022 6.34196 18.7206 6.06066 18.4393C5.77936 18.158 5.39782 18 5 18C4.60218 18 4.22064 18.158 3.93934 18.4393C3.65804 18.7206 3.5 19.1022 3.5 19.5C3.5 19.8978 3.65804 20.2794 3.93934 20.5607C4.22064 20.842 4.60218 21 5 21C5.39782 21 5.77936 20.842 6.06066 20.5607C6.34196 20.2794 6.5 19.8978 6.5 19.5ZM21.5 12C21.5 11.6022 21.342 11.2206 21.0607 10.9393C20.7794 10.658 20.3978 10.5 20 10.5C19.6022 10.5 19.2206 10.658 18.9393 10.9393C18.658 11.2206 18.5 11.6022 18.5 12C18.5 12.3978 18.658 12.7794 18.9393 13.0607C19.2206 13.342 19.6022 13.5 20 13.5C20.3978 13.5 20.7794 13.342 21.0607 13.0607C21.342 12.7794 21.5 12.3978 21.5 12ZM21.5 4.5C21.5 4.10218 21.342 3.72064 21.0607 3.43934C20.7794 3.15804 20.3978 3 20 3C19.6022 3 19.2206 3.15804 18.9393 3.43934C18.658 3.72064 18.5 4.10218 18.5 4.5C18.5 4.89782 18.658 5.27936 18.9393 5.56066C19.2206 5.84196 19.6022 6 20 6C20.3978 6 20.7794 5.84196 21.0607 5.56066C21.342 5.27936 21.5 4.89782 21.5 4.5ZM14 12C14 11.6022 13.842 11.2206 13.5607 10.9393C13.2794 10.658 12.8978 10.5 12.5 10.5C12.1022 10.5 11.7206 10.658 11.4393 10.9393C11.158 11.2206 11 11.6022 11 12C11 12.3978 11.158 12.7794 11.4393 13.0607C11.7206 13.342 12.1022 13.5 12.5 13.5C12.8978 13.5 13.2794 13.342 13.5607 13.0607C13.842 12.7794 14 12.3978 14 12ZM14 4.5C14 4.10218 13.842 3.72064 13.5607 3.43934C13.2794 3.15804 12.8978 3 12.5 3C12.1022 3 11.7206 3.15804 11.4393 3.43934C11.158 3.72064 11 4.10218 11 4.5C11 4.89782 11.158 5.27936 11.4393 5.56066C11.7206 5.84196 12.1022 6 12.5 6C12.8978 6 13.2794 5.84196 13.5607 5.56066C13.842 5.27936 14 4.89782 14 4.5ZM6.5 12C6.5 11.6022 6.34196 11.2206 6.06066 10.9393C5.77936 10.658 5.39782 10.5 5 10.5C4.60218 10.5 4.22064 10.658 3.93934 10.9393C3.65804 11.2206 3.5 11.6022 3.5 12C3.5 12.3978 3.65804 12.7794 3.93934 13.0607C4.22064 13.342 4.60218 13.5 5 13.5C5.39782 13.5 5.77936 13.342 6.06066 13.0607C6.34196 12.7794 6.5 12.3978 6.5 12ZM6.5 4.5C6.5 4.10218 6.34196 3.72064 6.06066 3.43934C5.77936 3.15804 5.39782 3 5 3C4.60218 3 4.22064 3.15804 3.93934 3.43934C3.65804 3.72064 3.5 4.10218 3.5 4.5C3.5 4.89782 3.65804 5.27936 3.93934 5.56066C4.22064 5.84196 4.60218 6 5 6C5.39782 6 5.77936 5.84196 6.06066 5.56066C6.34196 5.27936 6.5 4.89782 6.5 4.5Z" stroke="#9493AC" stroke-opacity="0.32" stroke-width="1.5" stroke-linecap="round" stroke-linejoin="round"/>
</svg>
