<svg width="24" height="25" viewBox="0 0 24 25" fill="none" xmlns="http://www.w3.org/2000/svg">
<path fill-rule="evenodd" clip-rule="evenodd" d="M0 6.1002C0 5.46368 0.252856 4.85323 0.702944 4.40314C1.15303 3.95305 1.76348 3.7002 2.4 3.7002H21.6C22.2365 3.7002 22.847 3.95305 23.2971 4.40314C23.7471 4.85323 24 5.46368 24 6.1002V18.9002C24 19.5367 23.7471 20.1472 23.2971 20.5973C22.847 21.0473 22.2365 21.3002 21.6 21.3002H2.4C1.76348 21.3002 1.15303 21.0473 0.702944 20.5973C0.252856 20.1472 0 19.5367 0 18.9002L0 6.1002ZM4.8 10.1002C4.8 9.2515 5.13714 8.43757 5.73726 7.83745C6.33737 7.23734 7.15131 6.9002 8 6.9002C8.84869 6.9002 9.66263 7.23734 10.2627 7.83745C10.8629 8.43757 11.2 9.2515 11.2 10.1002C11.2 10.9489 10.8629 11.7628 10.2627 12.3629C9.66263 12.9631 8.84869 13.3002 8 13.3002C7.15131 13.3002 6.33737 12.9631 5.73726 12.3629C5.13714 11.7628 4.8 10.9489 4.8 10.1002ZM19.2 10.1002H14.4V8.5002H19.2V10.1002ZM19.2 14.9002H14.4V13.3002H19.2V14.9002ZM8 14.9002C7.13027 14.9002 6.27772 15.1424 5.53789 15.5996C4.79805 16.0569 4.20016 16.7111 3.8112 17.489L3.2832 18.5418C3.22202 18.6639 3.19311 18.7996 3.19923 18.936C3.20534 19.0724 3.24628 19.205 3.31813 19.3212C3.38999 19.4373 3.49038 19.5331 3.60973 19.5994C3.72909 19.6658 3.86344 19.7005 4 19.7002H12C12.1364 19.7002 12.2706 19.6653 12.3897 19.5988C12.5089 19.5324 12.609 19.4366 12.6807 19.3205C12.7524 19.2044 12.7931 19.0719 12.7992 18.9356C12.8052 18.7993 12.7763 18.6638 12.7152 18.5418L12.1888 17.489C11.7998 16.7111 11.202 16.0569 10.4621 15.5996C9.72228 15.1424 8.86973 14.9002 8 14.9002Z" fill="#567596"/>
</svg>
