<svg width="24" height="24" viewBox="0 0 24 24" fill="none" xmlns="http://www.w3.org/2000/svg">
<path d="M3.86314 5.1497C3.46708 5.4007 3.14095 5.74783 2.9151 6.15876C2.68925 6.56969 2.57103 7.03108 2.57143 7.49998V16.5C2.57143 18.9857 4.58571 21 7.07143 21H16.0714C16.5406 21.0003 17.0023 20.8819 17.4135 20.6559C17.8247 20.4299 18.1721 20.1037 18.4234 19.7074L18.3189 19.7126L18.2143 19.7143H7.07143C6.21895 19.7143 5.40138 19.3756 4.79858 18.7728C4.19579 18.17 3.85714 17.3525 3.85714 16.5V5.35713C3.85714 5.2877 3.85886 5.21827 3.86314 5.1497ZM7.5 2.57141C6.76118 2.57141 6.05262 2.86491 5.5302 3.38733C5.00778 3.90975 4.71428 4.61831 4.71428 5.35713V16.0714C4.71428 16.4372 4.78634 16.7995 4.92633 17.1375C5.06633 17.4754 5.27152 17.7825 5.5302 18.0412C5.78888 18.2999 6.09597 18.5051 6.43395 18.6451C6.77193 18.7851 7.13417 18.8571 7.5 18.8571H18.2143C18.5801 18.8571 18.9424 18.7851 19.2803 18.6451C19.6183 18.5051 19.9254 18.2999 20.1841 18.0412C20.4428 17.7825 20.648 17.4754 20.788 17.1375C20.9279 16.7995 21 16.4372 21 16.0714V5.35713C21 4.61831 20.7065 3.90975 20.1841 3.38733C19.6617 2.86491 18.9531 2.57141 18.2143 2.57141H7.5ZM7.00114 17.4866L12.4071 12.1911C12.5158 12.0849 12.6586 12.0205 12.8102 12.0096C12.9617 11.9986 13.1123 12.0416 13.2351 12.1311L13.3071 12.1911L18.7123 17.4866C18.5523 17.5428 18.3839 17.5715 18.2143 17.5714H7.5C7.32514 17.5714 7.15714 17.5414 7.00114 17.4866ZM7.5 3.85713H18.2143C19.0423 3.85713 19.7143 4.52913 19.7143 5.35713V16.0714C19.7143 16.2497 19.6834 16.4211 19.626 16.5797L14.2071 11.2731C13.8651 10.9381 13.4107 10.7422 12.9322 10.7237C12.4537 10.7051 11.9855 10.8652 11.6186 11.1728L11.5071 11.2731L6.08828 16.5806C6.02957 16.4172 5.9997 16.245 6 16.0714V5.35713C6 4.52913 6.672 3.85713 7.5 3.85713ZM9.85714 6.6437C9.71395 6.63965 9.57139 6.66435 9.43791 6.71635C9.30443 6.76835 9.18273 6.84659 9.08002 6.94644C8.9773 7.0463 8.89565 7.16573 8.83989 7.29769C8.78414 7.42965 8.75541 7.57144 8.75541 7.7147C8.75541 7.85795 8.78414 7.99975 8.83989 8.1317C8.89565 8.26366 8.9773 8.3831 9.08002 8.48295C9.18273 8.5828 9.30443 8.66104 9.43791 8.71304C9.57139 8.76504 9.71395 8.78975 9.85714 8.7857C10.1359 8.77781 10.4007 8.66151 10.5951 8.46152C10.7895 8.26153 10.8983 7.99361 10.8983 7.7147C10.8983 7.43578 10.7895 7.16786 10.5951 6.96787C10.4007 6.76788 10.1359 6.65159 9.85714 6.6437Z" fill="#268025"/>
</svg>
