<svg width="21" height="21" viewBox="0 0 21 21" fill="none" xmlns="http://www.w3.org/2000/svg">
<path fill-rule="evenodd" clip-rule="evenodd" d="M5.47859 8.71333C6.97088 11.962 9.62235 14.5365 12.9136 15.9325L12.9236 15.9367L13.5603 16.22C13.9535 16.3954 14.3951 16.43 14.8109 16.3182C15.2267 16.2064 15.5914 15.9548 15.8436 15.6058L16.9053 14.1367C16.9365 14.0934 16.9499 14.0398 16.9428 13.9869C16.9356 13.9341 16.9085 13.886 16.8669 13.8525L15.0136 12.3567C14.9917 12.339 14.9665 12.326 14.9395 12.3183C14.9124 12.3107 14.8841 12.3086 14.8562 12.3122C14.8284 12.3158 14.8015 12.325 14.7773 12.3392C14.7531 12.3534 14.732 12.3724 14.7153 12.395L13.9936 13.3683C13.9086 13.4832 13.7868 13.5654 13.6485 13.6013C13.5102 13.6373 13.3638 13.6247 13.2336 13.5658C10.7678 12.4488 8.79229 10.4733 7.67525 8.0075C7.61634 7.87733 7.60381 7.7309 7.63975 7.59261C7.67569 7.45432 7.75792 7.33252 7.87275 7.2475L8.84525 6.525C8.86785 6.5083 8.88684 6.4872 8.90107 6.46297C8.9153 6.43874 8.92448 6.41188 8.92806 6.38401C8.93164 6.35614 8.92955 6.32783 8.92191 6.30079C8.91426 6.27375 8.90123 6.24854 8.88359 6.22667L7.38859 4.37333C7.35514 4.33178 7.30702 4.30463 7.25415 4.2975C7.20128 4.29037 7.14769 4.30379 7.10442 4.335L5.62692 5.40167C5.27559 5.65509 5.02284 6.02235 4.91164 6.44103C4.80044 6.85971 4.83764 7.30398 5.01692 7.69833L5.47859 8.71333ZM12.4203 17.0808C8.84451 15.5625 5.96409 12.7644 4.34275 9.23417L4.34109 9.2325L3.87942 8.21583C3.5806 7.5587 3.51851 6.81837 3.70369 6.12064C3.88887 5.42291 4.3099 4.81081 4.89525 4.38833L6.37275 3.32167C6.67536 3.10327 7.05018 3.00919 7.42006 3.05879C7.78993 3.1084 8.12672 3.29792 8.36109 3.58833L9.85692 5.4425C9.98036 5.59548 10.0716 5.77183 10.1252 5.96097C10.1787 6.1501 10.1935 6.34811 10.1686 6.5431C10.1437 6.73808 10.0796 6.92602 9.98022 7.09562C9.88083 7.26521 9.74819 7.41297 9.59025 7.53L9.03192 7.94333C9.9759 9.77362 11.4666 11.2644 13.2969 12.2083L13.7111 11.65C13.8281 11.4922 13.9758 11.3597 14.1454 11.2603C14.3149 11.161 14.5027 11.097 14.6976 11.0721C14.8925 11.0472 15.0904 11.0619 15.2795 11.1154C15.4685 11.1689 15.6448 11.26 15.7978 11.3833L17.6519 12.8792C17.9426 13.1136 18.1322 13.4505 18.1819 13.8206C18.2315 14.1907 18.1372 14.5657 17.9186 14.8683L16.8569 16.3383C16.4367 16.9199 15.8291 17.3392 15.1362 17.5257C14.4433 17.7122 13.7073 17.6546 13.0519 17.3625L12.4203 17.0808Z" fill="#09FF21"/>
<path fill-rule="evenodd" clip-rule="evenodd" d="M12.2459 8.44807C12.1292 8.33057 12.0625 8.1714 12.0625 8.0064L12.0625 4.81473C12.0625 4.64897 12.1284 4.49 12.2456 4.37279C12.3628 4.25558 12.5218 4.18973 12.6875 4.18973C12.8533 4.18973 13.0123 4.25558 13.1295 4.37279C13.2467 4.49 13.3125 4.64897 13.3125 4.81473L13.3125 6.49807L15.9459 3.86473C16.0035 3.80507 16.0725 3.75749 16.1488 3.72477C16.2251 3.69205 16.3071 3.67485 16.3901 3.67416C16.4731 3.67348 16.5553 3.68933 16.6321 3.7208C16.7089 3.75226 16.7787 3.7987 16.8374 3.85741C16.896 3.91612 16.9424 3.98592 16.9738 4.06275C17.0052 4.13957 17.0209 4.22188 17.0202 4.30487C17.0194 4.38785 17.0021 4.46986 16.9693 4.54609C16.9366 4.62233 16.8889 4.69127 16.8292 4.7489L14.1967 7.38223L15.8792 7.38223C16.0449 7.38223 16.2039 7.44808 16.3211 7.56529C16.4383 7.6825 16.5042 7.84147 16.5042 8.00723C16.5042 8.17299 16.4383 8.33196 16.3211 8.44917C16.2039 8.56638 16.0449 8.63223 15.8792 8.63223L12.6892 8.63223C12.5235 8.63209 12.3646 8.56614 12.2475 8.4489" fill="#09FF21"/>
</svg>
