<svg width="24" height="25" viewBox="0 0 24 25" fill="none" xmlns="http://www.w3.org/2000/svg">
<path d="M11.5 17H12.5V11.5H11.5V17ZM12 10.077C12.1747 10.077 12.3207 10.018 12.438 9.9C12.556 9.782 12.615 9.636 12.615 9.462C12.615 9.28733 12.556 9.141 12.438 9.023C12.3207 8.905 12.1747 8.846 12 8.846C11.8253 8.846 11.6793 8.905 11.562 9.023C11.444 9.141 11.385 9.28733 11.385 9.462C11.385 9.636 11.444 9.782 11.562 9.9C11.6793 10.018 11.8253 10.077 12 10.077ZM12.003 21.5C10.759 21.5 9.589 21.264 8.493 20.792C7.39767 20.3193 6.44467 19.678 5.634 18.868C4.82333 18.0587 4.18167 17.1067 3.709 16.012C3.23633 14.9173 3 13.7477 3 12.503C3 11.259 3.236 10.089 3.708 8.993C4.18067 7.89767 4.822 6.94467 5.632 6.134C6.44133 5.32333 7.39333 4.68167 8.488 4.209C9.58267 3.73633 10.7523 3.5 11.997 3.5C13.241 3.5 14.411 3.736 15.507 4.208C16.6023 4.68067 17.5553 5.322 18.366 6.132C19.1767 6.94133 19.8183 7.89333 20.291 8.988C20.7637 10.0827 21 11.2523 21 12.497C21 13.741 20.764 14.911 20.292 16.007C19.8193 17.1023 19.178 18.0553 18.368 18.866C17.5587 19.6767 16.6067 20.3183 15.512 20.791C14.4173 21.2637 13.2477 21.5 12.003 21.5ZM12 20.5C14.2333 20.5 16.125 19.725 17.675 18.175C19.225 16.625 20 14.7333 20 12.5C20 10.2667 19.225 8.375 17.675 6.825C16.125 5.275 14.2333 4.5 12 4.5C9.76667 4.5 7.875 5.275 6.325 6.825C4.775 8.375 4 10.2667 4 12.5C4 14.7333 4.775 16.625 6.325 18.175C7.875 19.725 9.76667 20.5 12 20.5Z" fill="#98F3FF"/>
</svg>
