<svg width="24" height="24" viewBox="0 0 24 24" fill="none" xmlns="http://www.w3.org/2000/svg">
<g clip-path="url(#clip0_2129_1456)">
<path d="M23.1429 12.0003C23.1429 14.9555 21.9689 17.7898 19.8792 19.8795C17.7895 21.9692 14.9553 23.1431 12 23.1431C9.04473 23.1431 6.21051 21.9692 4.12081 19.8795C2.03112 17.7898 0.857147 14.9555 0.857147 12.0003M23.1429 12.0003C23.1429 9.04501 21.9689 6.21078 19.8792 4.12109C17.7895 2.0314 14.9553 0.857422 12 0.857422C9.04473 0.857422 6.21051 2.0314 4.12081 4.12109C2.03112 6.21078 0.857147 9.04501 0.857147 12.0003M23.1429 12.0003H0.857147" stroke="white" stroke-linecap="round" stroke-linejoin="round"/>
<path d="M16.2857 12.0003C16.0752 16.0751 14.5743 19.9774 12 23.1431C9.4257 19.9774 7.92481 16.0751 7.71429 12.0003C7.92481 7.92544 9.4257 4.02311 12 0.857422C14.5743 4.02311 16.0752 7.92544 16.2857 12.0003Z" stroke="white" stroke-linecap="round" stroke-linejoin="round"/>
</g>
<defs>
<clipPath id="clip0_2129_1456">
<rect width="24" height="24" fill="white"/>
</clipPath>
</defs>
</svg>
