<svg width="30" height="30" viewBox="0 0 30 30" fill="none" xmlns="http://www.w3.org/2000/svg">
<path fill-rule="evenodd" clip-rule="evenodd" d="M9.18121 5.02121C13.0485 4.59254 16.9514 4.59254 20.8187 5.02121C22.96 5.26121 24.6875 6.94746 24.9387 9.09621C25.3974 13.0187 25.3974 16.9812 24.9387 20.9037C24.6875 23.0525 22.96 24.7387 20.8187 24.9787C16.9514 25.4075 13.0485 25.4075 9.18121 24.9787C7.03996 24.7387 5.31246 23.0525 5.06121 20.9037C4.60248 16.9817 4.60248 13.0195 5.06121 9.09746C5.18829 8.05355 5.66418 7.08314 6.41175 6.34352C7.15932 5.60389 8.13475 5.13839 9.17996 5.02246M15 8.75871C15.2486 8.75871 15.4871 8.85748 15.6629 9.0333C15.8387 9.20911 15.9375 9.44757 15.9375 9.69621V14.0625H20.3037C20.5523 14.0625 20.7908 14.1612 20.9666 14.337C21.1424 14.5129 21.2412 14.7513 21.2412 15C21.2412 15.2486 21.1424 15.4871 20.9666 15.6629C20.7908 15.8387 20.5523 15.9375 20.3037 15.9375H15.9375V20.3037C15.9375 20.5524 15.8387 20.7908 15.6629 20.9666C15.4871 21.1424 15.2486 21.2412 15 21.2412C14.7513 21.2412 14.5129 21.1424 14.337 20.9666C14.1612 20.7908 14.0625 20.5524 14.0625 20.3037V15.9375H9.69621C9.44757 15.9375 9.20911 15.8387 9.0333 15.6629C8.85748 15.4871 8.75871 15.2486 8.75871 15C8.75871 14.7513 8.85748 14.5129 9.0333 14.337C9.20911 14.1612 9.44757 14.0625 9.69621 14.0625H14.0625V9.69621C14.0625 9.44757 14.1612 9.20911 14.337 9.0333C14.5129 8.85748 14.7513 8.75871 15 8.75871Z" fill="white"/>
</svg>
