<svg width="35" height="35" viewBox="0 0 35 35" fill="none" xmlns="http://www.w3.org/2000/svg">
<path d="M10.61 24.5833V21.75H24.7767V24.5833H10.61ZM4.94336 18.9167V16.0833H7.77669V18.9167H4.94336ZM10.61 18.9167V16.0833H13.4434V18.9167H10.61ZM16.2767 18.9167V16.0833H19.11V18.9167H16.2767ZM21.9434 18.9167V16.0833H24.7767V18.9167H21.9434ZM27.61 18.9167V16.0833H30.4434V18.9167H27.61ZM4.94336 13.25V10.4167H7.77669V13.25H4.94336ZM10.61 13.25V10.4167H13.4434V13.25H10.61ZM16.2767 13.25V10.4167H19.11V13.25H16.2767ZM21.9434 13.25V10.4167H24.7767V13.25H21.9434ZM27.61 13.25V10.4167H30.4434V13.25H27.61Z" fill="#98F3FF"/>
</svg>
