<svg width="28" height="29" viewBox="0 0 28 29" fill="none" xmlns="http://www.w3.org/2000/svg">
<g filter="url(#filter0_d_1023_3540)">
<g clip-path="url(#clip0_1023_3540)">
<path fill-rule="evenodd" clip-rule="evenodd" d="M4 4.16699H24V24.5003H4V4.16699Z" fill="white"/>
<path fill-rule="evenodd" clip-rule="evenodd" d="M6.19141 11.3903L8.27208 8.27051L8.79205 8.61729L6.71138 11.7371L6.19141 11.3903ZM6.97138 11.9105L9.05203 8.79067L9.572 9.13745L7.49133 12.2573L6.97138 11.9105ZM7.75133 12.4307L9.832 9.31084L10.352 9.65762L8.2713 12.7774L7.75133 12.4307Z" fill="black"/>
<path fill-rule="evenodd" clip-rule="evenodd" d="M17.6309 19.0192L19.7115 15.8994L20.2315 16.2462L18.1508 19.366L17.6309 19.0192ZM18.4108 19.5394L20.4915 16.4196L21.0115 16.7663L18.9308 19.8862L18.4108 19.5394ZM19.1908 20.0596L21.2715 16.9397L21.7914 17.2865L19.7108 20.4063L19.1908 20.0596Z" fill="black"/>
<path d="M18.4102 17.2856L21.01 19.0195" stroke="white" stroke-width="1.25"/>
<path fill-rule="evenodd" clip-rule="evenodd" d="M10.8711 12.2577C11.4229 11.4303 12.2808 10.856 13.2561 10.6611C14.2314 10.4662 15.2441 10.6667 16.0716 11.2186C16.899 11.7704 17.4733 12.6283 17.6682 13.6036C17.8631 14.5789 17.6626 15.5916 17.1107 16.4191L10.8711 12.2577Z" fill="#CD2E3A"/>
<path fill-rule="evenodd" clip-rule="evenodd" d="M10.8716 12.2578C10.3198 13.0852 10.1193 14.098 10.3142 15.0733C10.509 16.0486 11.0834 16.9065 11.9108 17.4583C12.7382 18.0101 13.751 18.2107 14.7263 18.0158C15.7016 17.8209 16.5595 17.2466 17.1113 16.4191C17.3872 16.0054 17.4875 15.499 17.39 15.0114C17.2926 14.5238 17.0054 14.0948 16.5917 13.8189C16.178 13.543 15.6716 13.4427 15.184 13.5402C14.6963 13.6376 14.2674 13.9248 13.9915 14.3385L10.8716 12.2578Z" fill="#0047A0"/>
<path d="M13.9903 14.3379C14.5649 13.4764 14.3322 12.3122 13.4707 11.7376C12.6092 11.1631 11.445 11.3957 10.8705 12.2572C10.2959 13.1187 10.5285 14.2829 11.3901 14.8575C12.2516 15.432 13.4157 15.1994 13.9903 14.3379Z" fill="#CD2E3A"/>
<path fill-rule="evenodd" clip-rule="evenodd" d="M8.28123 20.4078L6.20056 17.288L6.72053 16.9412L8.8012 20.0611L8.28123 20.4078ZM9.06118 19.8877L6.98053 16.7678L7.50048 16.4211L9.58115 19.5409L9.06118 19.8877ZM9.84115 19.3675L7.76048 16.2477L8.28045 15.9009L10.3611 19.0207L9.84115 19.3675Z" fill="black"/>
<path fill-rule="evenodd" clip-rule="evenodd" d="M19.7207 12.7789L17.64 9.65908L18.16 9.31231L20.2407 12.4321L19.7207 12.7789ZM20.5006 12.2588L18.42 9.13892L18.94 8.79214L21.0206 11.912L20.5006 12.2588ZM21.2806 11.7386L19.1999 8.61875L19.7199 8.27197L21.8006 11.3918L21.2806 11.7386Z" fill="black"/>
<path d="M7.89062 18.4146L8.67058 17.8944M18.42 11.3923L19.33 10.7855M20.1099 10.2653L20.8899 9.74512" stroke="white" stroke-width="1.25"/>
</g>
</g>
<defs>
<filter id="filter0_d_1023_3540" x="0" y="0.5" width="28" height="28" filterUnits="userSpaceOnUse" color-interpolation-filters="sRGB">
<feFlood flood-opacity="0" result="BackgroundImageFix"/>
<feColorMatrix in="SourceAlpha" type="matrix" values="0 0 0 0 0 0 0 0 0 0 0 0 0 0 0 0 0 0 127 0" result="hardAlpha"/>
<feOffset/>
<feGaussianBlur stdDeviation="2"/>
<feComposite in2="hardAlpha" operator="out"/>
<feColorMatrix type="matrix" values="0 0 0 0 0 0 0 0 0 0 0 0 0 0 0 0 0 0 0.25 0"/>
<feBlend mode="normal" in2="BackgroundImageFix" result="effect1_dropShadow_1023_3540"/>
<feBlend mode="normal" in="SourceGraphic" in2="effect1_dropShadow_1023_3540" result="shape"/>
</filter>
<clipPath id="clip0_1023_3540">
<rect x="4" y="4.5" width="20" height="20" rx="10" fill="white"/>
</clipPath>
</defs>
</svg>
