<svg width="20" height="21" viewBox="0 0 20 21" fill="none" xmlns="http://www.w3.org/2000/svg">
<g clip-path="url(#clip0_928_2043)">
<path d="M6.11122 9.66675L5.55566 11.389H6.66678L6.11122 9.66675Z" fill="#567596"/>
<path d="M16.8334 2.16675H7.9445V4.94453H10.1667V6.05564H2.9445C2.00005 6.05564 1.27783 6.77786 1.27783 7.7223V13.8334C1.27783 14.7779 2.00005 15.5001 2.9445 15.5001H3.50005V18.3334L7.00005 15.5001H10.7223V11.6112H16.8334C17.7778 11.6112 18.5001 10.889 18.5001 9.94453V3.83341C18.5001 2.88897 17.7778 2.16675 16.8334 2.16675ZM7.27783 13.2223L7.00005 12.3334H5.27783L4.9445 13.2223H3.61117L5.4445 8.27786H6.77783L8.61117 13.2223H7.27783ZM15.7223 8.83342V9.94453C15.0001 9.94453 14.2223 9.7223 13.5556 9.38897C12.8889 9.7223 12.1112 9.88897 11.3334 9.94453L11.2778 8.83342C11.6667 8.83342 12.0556 8.77786 12.4445 8.66675C11.9445 8.16675 11.6112 7.55564 11.4445 6.88897H12.6112C12.7778 7.38897 13.1112 7.77786 13.5001 8.11119C14.1112 7.61119 14.5001 6.88897 14.5556 6.05564H11.2223V4.94453H12.8889V3.83341H14.0001V4.94453H15.8334L15.8889 5.50008C15.9445 6.66675 15.5001 7.83342 14.6667 8.66675C15.0556 8.77786 15.3889 8.83342 15.7223 8.83342Z" fill="#567596"/>
</g>
<defs>
<clipPath id="clip0_928_2043">
<rect width="20" height="20" fill="white" transform="translate(0 0.5)"/>
</clipPath>
</defs>
</svg>
