<svg width="15" height="16" viewBox="0 0 15 16" fill="none" xmlns="http://www.w3.org/2000/svg">
<path d="M10 11.125L13.125 8M13.125 8L10 4.875M13.125 8H5.625M7.5 11.125C7.5 11.7062 7.5 11.9968 7.43611 12.2353C7.26274 12.8823 6.75733 13.3877 6.11029 13.5611C5.87185 13.625 5.58123 13.625 5 13.625H4.6875C3.81386 13.625 3.37704 13.625 3.03247 13.4823C2.57304 13.292 2.20803 12.927 2.01773 12.4675C1.875 12.123 1.875 11.6861 1.875 10.8125V5.1875C1.875 4.31386 1.875 3.87704 2.01773 3.53247C2.20803 3.07304 2.57304 2.70803 3.03247 2.51773C3.37704 2.375 3.81386 2.375 4.6875 2.375H5C5.58123 2.375 5.87185 2.375 6.11029 2.43889C6.75733 2.61226 7.26274 3.11767 7.43611 3.76471C7.5 4.00315 7.5 4.29377 7.5 4.875" stroke="#FF7970" stroke-width="1.25" stroke-linecap="round" stroke-linejoin="round"/>
</svg>
