<svg width="18" height="19" viewBox="0 0 18 19" fill="none" xmlns="http://www.w3.org/2000/svg">
<path d="M15.6663 12.4999V6.2499L10.458 3.32031M7.54134 3.32031L2.33301 6.2499V12.4999M3.58301 14.4532L8.99967 17.4999L12.333 15.6249L14.4163 14.4532" stroke="black" stroke-width="1.75" stroke-linecap="round" stroke-linejoin="round"/>
<path d="M7.75 7.81315L6.5 8.54232V11.459L7.75 12.1882L9 12.9173L10.25 12.1882L11.5 11.459V8.54232L10.25 7.81315L9 7.08398L7.75 7.81315Z" fill="black" stroke="black" stroke-width="1.75" stroke-linecap="round" stroke-linejoin="round"/>
<path d="M8.99967 7.08366V4.16699M11.4997 11.2503L14.4163 12.917M6.49967 11.2503L3.58301 12.917" stroke="black" stroke-width="1.75" stroke-linecap="round" stroke-linejoin="round"/>
<path d="M9 4.16699C9.69036 4.16699 10.25 3.60735 10.25 2.91699C10.25 2.22664 9.69036 1.66699 9 1.66699C8.30964 1.66699 7.75 2.22664 7.75 2.91699C7.75 3.60735 8.30964 4.16699 9 4.16699Z" fill="black" stroke="black" stroke-width="1.75" stroke-linecap="round" stroke-linejoin="round"/>
<path d="M2.33301 15C3.02336 15 3.58301 14.4404 3.58301 13.75C3.58301 13.0596 3.02336 12.5 2.33301 12.5C1.64265 12.5 1.08301 13.0596 1.08301 13.75C1.08301 14.4404 1.64265 15 2.33301 15Z" fill="black" stroke="black" stroke-width="1.75" stroke-linecap="round" stroke-linejoin="round"/>
<path d="M15.666 15C16.3564 15 16.916 14.4404 16.916 13.75C16.916 13.0596 16.3564 12.5 15.666 12.5C14.9757 12.5 14.416 13.0596 14.416 13.75C14.416 14.4404 14.9757 15 15.666 15Z" fill="black" stroke="black" stroke-width="1.75" stroke-linecap="round" stroke-linejoin="round"/>
</svg>
