<svg width="24" height="25" viewBox="0 0 24 25" fill="none" xmlns="http://www.w3.org/2000/svg">
<path d="M15.7289 4.38389C17.1629 2.94389 19.2609 2.91389 20.4219 4.07989C21.5859 5.24789 21.5549 7.35989 20.1189 8.79989L17.6959 11.2329C17.5595 11.3745 17.4842 11.5641 17.4862 11.7608C17.4881 11.9574 17.5673 12.1454 17.7065 12.2843C17.8458 12.4231 18.034 12.5017 18.2307 12.5032C18.4273 12.5046 18.6167 12.4287 18.7579 12.2919L21.1819 9.85889C23.0929 7.93989 23.3329 4.87689 21.4849 3.02089C19.6349 1.16389 16.5779 1.40589 14.6649 3.32489L9.81895 8.19189C7.90795 10.1109 7.66795 13.1739 9.51595 15.0289C9.58497 15.1007 9.66759 15.158 9.759 15.1975C9.8504 15.237 9.94876 15.2579 10.0483 15.259C10.1479 15.2601 10.2467 15.2413 10.3389 15.2039C10.4312 15.1664 10.5151 15.1109 10.5856 15.0406C10.6562 14.9704 10.7121 14.8868 10.75 14.7947C10.788 14.7026 10.8072 14.6039 10.8065 14.5044C10.8059 14.4048 10.7855 14.3063 10.7464 14.2147C10.7073 14.1231 10.6504 14.0403 10.5789 13.9709C9.41495 12.8029 9.44695 10.6909 10.8819 9.25089L15.7289 4.38389Z" fill="#567596"/>
<path d="M14.485 9.97011C14.3444 9.82914 14.1536 9.74979 13.9545 9.74951C13.7555 9.74923 13.5644 9.82804 13.4235 9.96861C13.2825 10.1092 13.2032 10.3 13.2029 10.499C13.2026 10.6981 13.2814 10.8891 13.422 11.0301C14.586 12.1981 14.555 14.3091 13.119 15.7501L8.27197 20.6161C6.83697 22.0561 4.73897 22.0861 3.57797 20.9201C2.41397 19.7521 2.44597 17.6401 3.88097 16.2001L6.30497 13.7671C6.37451 13.6973 6.42961 13.6145 6.46714 13.5234C6.50467 13.4323 6.5239 13.3347 6.52371 13.2362C6.52353 13.1377 6.50394 13.0401 6.46606 12.9492C6.42819 12.8582 6.37277 12.7756 6.30297 12.7061C6.23317 12.6366 6.15036 12.5815 6.05927 12.5439C5.96817 12.5064 5.87058 12.4872 5.77206 12.4874C5.67353 12.4876 5.57601 12.5071 5.48506 12.545C5.39411 12.5829 5.31151 12.6383 5.24197 12.7081L2.81797 15.1411C0.906971 17.0611 0.666971 20.1231 2.51497 21.9791C4.36497 23.8371 7.42197 23.5941 9.33497 21.6751L14.182 16.8081C16.093 14.8901 16.333 11.8251 14.485 9.97011Z" fill="#567596"/>
</svg>
