<svg width="25" height="24" viewBox="0 0 25 24" fill="none" xmlns="http://www.w3.org/2000/svg">
<path d="M17.6189 18C19.9623 16.4151 21.5 13.7779 21.5 10.785C21.5 5.9333 17.4704 2 12.5 2C7.52958 2 3.5 5.9333 3.5 10.785C3.5 13.7779 5.03771 16.4151 7.38113 18M8.85967 14C8.01875 13.15 7.5 12.0086 7.5 10.7505C7.5 8.12711 9.73881 6 12.5 6C15.2612 6 17.5 8.12711 17.5 10.7505C17.5 12.0095 16.9813 13.15 16.1403 14M12.5 22C11.3954 22 10.5 21.1046 10.5 20V18C10.5 16.8954 11.3954 16 12.5 16C13.6046 16 14.5 16.8954 14.5 18V20C14.5 21.1046 13.6046 22 12.5 22ZM13.5 11C13.5 11.5523 13.0523 12 12.5 12C11.9477 12 11.5 11.5523 11.5 11C11.5 10.4477 11.9477 10 12.5 10C13.0523 10 13.5 10.4477 13.5 11Z" stroke="white" stroke-width="2" stroke-linecap="round" stroke-linejoin="round"/>
</svg>
