<svg width="25" height="24" viewBox="0 0 25 24" fill="none" xmlns="http://www.w3.org/2000/svg">
<path d="M5.5 17.7491V13.9831L9.56 16.6361C10.4344 17.2066 11.4559 17.5104 12.5 17.5104C13.5441 17.5104 14.5656 17.2066 15.44 16.6361L19.5 13.9831V17.7491C19.5 17.9114 19.4474 18.0693 19.35 18.1991L19.349 18.2011L19.348 18.2021L19.345 18.2061L19.336 18.2161L19.324 18.2321L19.311 18.2491L19.225 18.3501C19.1244 18.4649 19.0186 18.575 18.908 18.6801C18.631 18.9471 18.218 19.2941 17.658 19.6381C16.536 20.3281 14.838 20.9991 12.5 20.9991C10.162 20.9991 8.464 20.3291 7.341 19.6381C6.89149 19.3644 6.47245 19.0436 6.091 18.6811C5.93905 18.5355 5.79643 18.3806 5.664 18.2171L5.655 18.2071L5.652 18.2021V18.2001C5.55456 18.0702 5.50129 17.9115 5.5 17.7491ZM22.66 10.1281L14.62 15.3811C13.9895 15.7924 13.2529 16.0115 12.5 16.0115C11.7471 16.0115 11.0105 15.7924 10.38 15.3811L3.5 10.8851V16.2491C3.5 16.448 3.42098 16.6388 3.28033 16.7794C3.13968 16.9201 2.94891 16.9991 2.75 16.9991C2.55109 16.9991 2.36032 16.9201 2.21967 16.7794C2.07902 16.6388 2 16.448 2 16.2491V9.99907C2 9.91041 2.01433 9.82707 2.043 9.74907C1.98668 9.58968 1.98587 9.41594 2.04069 9.25602C2.0955 9.0961 2.20274 8.9594 2.345 8.86807L10.409 3.69807C11.0333 3.29868 11.7589 3.08643 12.5 3.08643C13.2411 3.08643 13.9667 3.29868 14.591 3.69807L22.655 8.86807C22.7603 8.93569 22.847 9.02859 22.9073 9.13831C22.9675 9.24802 22.9993 9.37106 22.9998 9.49621C23.0003 9.62137 22.9695 9.74466 22.9101 9.85485C22.8508 9.96504 22.7648 10.0586 22.66 10.1271" fill="#567596"/>
</svg>
