<svg width="25" height="25" viewBox="0 0 25 25" fill="none" xmlns="http://www.w3.org/2000/svg">
<path d="M12.017 4.5C14.217 4.5 16.017 6.3 16.017 8.5C16.017 10.6 13.917 14 12.017 16.4C10.117 13.9 8.01697 10.6 8.01697 8.5C8.01697 6.3 9.81697 4.5 12.017 4.5ZM12.017 2.5C8.71697 2.5 6.01697 5.2 6.01697 8.5C6.01697 13 12.017 19.5 12.017 19.5C12.017 19.5 18.017 12.9 18.017 8.5C18.017 5.2 15.317 2.5 12.017 2.5ZM12.017 6.5C10.917 6.5 10.017 7.4 10.017 8.5C10.017 9.6 10.917 10.5 12.017 10.5C13.117 10.5 14.017 9.6 14.017 8.5C14.017 7.4 13.117 6.5 12.017 6.5ZM20.017 19.5C20.017 21.7 16.417 23.5 12.017 23.5C7.61697 23.5 4.01697 21.7 4.01697 19.5C4.01697 18.2 5.21697 17.1 7.11697 16.3L7.71697 17.2C6.71697 17.7 6.01697 18.3 6.01697 19C6.01697 20.4 8.71697 21.5 12.017 21.5C15.317 21.5 18.017 20.4 18.017 19C18.017 18.3 17.317 17.7 16.217 17.2L16.817 16.3C18.817 17.1 20.017 18.2 20.017 19.5Z" fill="white"/>
</svg>
