<svg width="25" height="25" viewBox="0 0 25 25" fill="none" xmlns="http://www.w3.org/2000/svg">
<path fill-rule="evenodd" clip-rule="evenodd" d="M5.5 20.5C4.70435 20.5 3.94129 20.1839 3.37868 19.6213C2.81607 19.0587 2.5 18.2956 2.5 17.5V7.5C2.5 6.70435 2.81607 5.94129 3.37868 5.37868C3.94129 4.81607 4.70435 4.5 5.5 4.5H19.5C20.2956 4.5 21.0587 4.81607 21.6213 5.37868C22.1839 5.94129 22.5 6.70435 22.5 7.5V17.5C22.5 18.2956 22.1839 19.0587 21.6213 19.6213C21.0587 20.1839 20.2956 20.5 19.5 20.5H5.5ZM8.125 8.72C8.02313 8.63302 7.90483 8.56739 7.77711 8.527C7.6494 8.48662 7.51487 8.47231 7.38151 8.48491C7.24816 8.49752 7.11869 8.53679 7.00081 8.6004C6.88292 8.664 6.77901 8.75064 6.69525 8.85517C6.61149 8.9597 6.54959 9.08 6.51321 9.20891C6.47684 9.33783 6.46673 9.47274 6.4835 9.60564C6.50026 9.73853 6.54356 9.86671 6.61081 9.98255C6.67806 10.0984 6.7679 10.1995 6.875 10.28L10.625 13.281C11.1571 13.707 11.8184 13.9391 12.5 13.9391C13.1816 13.9391 13.8429 13.707 14.375 13.281L18.125 10.281C18.2276 10.1989 18.313 10.0975 18.3763 9.98237C18.4396 9.8673 18.4797 9.74087 18.4942 9.61031C18.5087 9.47975 18.4973 9.34762 18.4607 9.22145C18.4241 9.09529 18.3631 8.97756 18.281 8.875C18.1989 8.77244 18.0974 8.68705 17.9824 8.6237C17.8673 8.56035 17.7409 8.52029 17.6103 8.50581C17.4798 8.49132 17.3476 8.50269 17.2215 8.53927C17.0953 8.57585 16.9776 8.63692 16.875 8.719L13.125 11.719C12.9476 11.861 12.7272 11.9384 12.5 11.9384C12.2728 11.9384 12.0524 11.861 11.875 11.719L8.125 8.72Z" fill="#567596"/>
</svg>
