<svg width="24" height="24" viewBox="0 0 24 24" fill="none" xmlns="http://www.w3.org/2000/svg">
<path d="M9.462 13H18.154L15.396 9.346L12.942 12.423L11.354 10.538L9.462 13ZM3.615 19.77C3.16833 19.77 2.78733 19.6123 2.472 19.297C2.15733 18.9823 2 18.6013 2 18.154V7.077H3V18.154C3 18.334 3.05767 18.4813 3.173 18.596C3.28833 18.7107 3.43567 18.7683 3.615 18.769H19V19.769L3.615 19.77ZM6.615 16.77C6.16833 16.77 5.78733 16.6123 5.472 16.297C5.15733 15.9823 5 15.6013 5 15.154V4.615C5 4.16833 5.15733 3.78733 5.472 3.472C5.78667 3.15733 6.16767 3 6.615 3H11.577L13.577 5H20.385C20.8317 5 21.2127 5.15733 21.528 5.472C21.8427 5.78667 22 6.16767 22 6.615V15.154C22 15.6013 21.8427 15.9823 21.528 16.297C21.2133 16.6117 20.8323 16.769 20.385 16.769L6.615 16.77ZM6.615 15.77H20.385C20.5643 15.77 20.7117 15.712 20.827 15.596C20.9423 15.48 21 15.3327 21 15.154V6.615C21 6.43567 20.9423 6.28833 20.827 6.173C20.7117 6.05767 20.5643 6 20.385 6H13.175L11.175 4H6.615C6.43567 4 6.28833 4.05767 6.173 4.173C6.05767 4.28833 6 4.43567 6 4.615V15.154C6 15.334 6.05767 15.4813 6.173 15.596C6.28833 15.7107 6.43567 15.7683 6.615 15.769" fill="white"/>
</svg>
