<svg width="24" height="25" viewBox="0 0 24 25" fill="none" xmlns="http://www.w3.org/2000/svg">
<g clip-path="url(#clip0_899_1215)">
<path d="M23.4437 0.147064L13.1455 8.27496L15.0605 3.48496L23.4437 0.147064Z" fill="#E17726"/>
<path d="M0.58042 0.156662L8.94114 3.48556L10.7595 8.33836L0.58042 0.156662ZM19.2994 17.4329L23.851 17.5253L22.2603 23.2895L16.7063 21.6584L19.2994 17.4329ZM4.70054 17.4329L7.28401 21.6584L1.73936 23.2896L0.158264 17.5253L4.70054 17.4329Z" fill="#E27625"/>
<path d="M10.5123 7.10226L10.6983 13.5106L5.13226 13.2405L6.71551 10.6927L6.73558 10.6682L10.5123 7.10226ZM13.4301 7.03076L17.2645 10.6684L17.2843 10.6928L18.8676 13.2406L13.3028 13.5106L13.4301 7.03076ZM7.44704 17.4515L10.4862 19.9774L6.95579 21.7955L7.44704 17.4515ZM16.5535 17.4511L17.0346 21.7956L13.514 19.9772L16.5535 17.4511Z" fill="#E27625"/>
<path d="M13.5917 19.7393L17.1642 21.5845L13.8411 23.2691L13.8756 22.1557L13.5917 19.7393ZM10.4073 19.7401L10.1346 22.1375L10.157 23.2678L6.82605 21.5845L10.4073 19.7401Z" fill="#D5BFB2"/>
<path d="M9.37564 14.347L10.3092 16.4398L7.1308 15.4466L9.37564 14.347ZM14.6242 14.3472L16.8797 15.4466L13.6909 16.4395L14.6242 14.3472Z" fill="#233447"/>
<path d="M7.68995 17.4301L7.1762 21.9341L4.42249 17.5286L7.68995 17.4301ZM16.3103 17.4302L19.5778 17.5286L16.8138 21.9343L16.3103 17.4302ZM18.948 12.9858L16.57 15.5709L14.7366 14.6772L13.8588 16.6456L13.2834 13.2607L18.948 12.9858ZM5.0508 12.9858L10.7166 13.2607L10.141 16.6456L9.26308 14.6775L7.43936 15.571L5.0508 12.9858Z" fill="#CC6228"/>
<path d="M4.89056 12.4553L7.581 15.3674L7.67419 18.2423L4.89056 12.4553ZM19.1122 12.4501L16.3235 18.2474L16.4285 15.3674L19.1122 12.4501ZM10.585 12.6327L10.6933 13.3597L10.9609 15.1708L10.7888 20.7333L9.97556 16.2648L9.97528 16.2186L10.585 12.6327ZM13.4136 12.6226L14.0249 16.2186L14.0246 16.2648L13.2093 20.7445L13.177 19.624L13.0498 15.1378L13.4136 12.6226Z" fill="#E27525"/>
<path d="M16.6676 15.2517L16.5766 17.7495L13.7384 20.1082L13.1647 19.6758L13.8078 16.1423L16.6676 15.2517ZM7.34222 15.2517L10.1921 16.1423L10.8353 19.6758L10.2615 20.1082L7.42322 17.7493L7.34222 15.2517Z" fill="#F5841F"/>
<path d="M6.28296 21.0329L9.91408 22.8681L9.89871 22.0844L10.2026 21.7999H13.7964L14.1112 22.0834L14.0879 22.8665L17.6961 21.0375L15.9403 22.5851L13.8174 24.1404H10.1734L8.05183 22.5787L6.28296 21.0329Z" fill="#C0AC9D"/>
<path d="M13.3316 19.495L13.845 19.8819L14.1458 22.4423L13.7105 22.0502H10.2908L9.86371 22.4502L10.1547 19.8821L10.6683 19.495H13.3316Z" fill="#161616"/>
<path d="M22.7638 0.37207L24 4.32777L23.228 8.32747L23.7777 8.77977L23.0338 9.38517L23.5929 9.84577L22.8526 10.5649L23.3071 10.916L22.1009 12.4186L17.1537 10.8821L17.1109 10.8576L13.5458 7.64977L22.7638 0.37207ZM1.23619 0.37207L10.4543 7.64977L6.88912 10.8576L6.84628 10.8821L1.89909 12.4186L0.692906 10.916L1.14703 10.5652L0.407156 9.84577L0.965156 9.38567L0.210094 8.77857L0.780563 8.32597L0 4.32797L1.23619 0.37207Z" fill="#763E1A"/>
<path d="M16.9117 10.5461L22.1536 12.174L23.8566 17.7726H19.3637L16.268 17.8142L18.5194 13.1334L16.9117 10.5461ZM7.08824 10.5461L5.48033 13.1334L7.73192 17.8142L4.63771 17.7726H0.152893L1.8463 12.1741L7.08824 10.5461ZM15.3172 3.45827L13.8511 7.68217L13.5399 13.3882L13.4209 15.1767L13.4114 19.7455H10.5885L10.5793 15.1853L10.4599 13.3867L10.1486 7.68217L8.68264 3.45827H15.3172Z" fill="#F5841F"/>
</g>
<defs>
<clipPath id="clip0_899_1215">
<rect width="24" height="24" fill="white" transform="translate(0 0.147064)"/>
</clipPath>
</defs>
</svg>
