<svg width="24" height="24" viewBox="0 0 24 24" fill="none" xmlns="http://www.w3.org/2000/svg">
<path d="M16.945 20.6671V15.3331M18.505 15.3331V14.0001M18.505 22.0001V20.6671M16.945 18.0001H20.065M20.065 18.0001C20.583 18.0001 21.002 18.4481 21.002 19.0001V19.6671C21.002 20.2191 20.583 20.6671 20.066 20.6671H16.008M20.065 18.0001C20.582 18.0001 21.002 17.5521 21.002 17.0001V16.3331C21.002 15.7811 20.583 15.3331 20.066 15.3331H16.008M14.696 4.18606C13.296 3.31406 9.70098 1.64206 6.46298 2.06906C8.42198 3.43906 9.45198 4.17506 12.232 6.68906M18.567 8.11906C18.939 8.73506 19.562 9.92906 19.997 11.1721M16.103 10.6221C16.345 10.8971 16.639 11.3121 16.85 11.5561M10.355 10.4181L3.41498 17.4681C2.85198 18.0401 2.85998 18.9751 3.43398 19.5581C3.56679 19.6961 3.72581 19.8063 3.90173 19.8821C4.07765 19.958 4.26693 19.998 4.45849 19.9997C4.65005 20.0015 4.84004 19.965 5.01733 19.8924C5.19462 19.8199 5.35565 19.7127 5.49098 19.5771L12.431 12.5271M11.846 8.22606L14.59 11.0131C14.6615 11.0866 14.747 11.1451 14.8414 11.1851C14.9358 11.2251 15.0373 11.2459 15.1399 11.2462C15.2424 11.2465 15.344 11.2263 15.4386 11.1867C15.5333 11.1472 15.6191 11.0892 15.691 11.0161L19.091 7.56206C19.2367 7.41235 19.3181 7.21157 19.3177 7.00266C19.3173 6.79374 19.2352 6.59325 19.089 6.44406L16.345 3.65606C16.2734 3.58246 16.1878 3.52391 16.0932 3.48387C15.9987 3.44384 15.8971 3.42311 15.7944 3.42293C15.6917 3.42274 15.59 3.44309 15.4953 3.48279C15.4006 3.52248 15.3148 3.58072 15.243 3.65406L11.843 7.10706C11.697 7.25682 11.6154 7.45781 11.6158 7.66697C11.6162 7.87613 11.6994 8.07683 11.846 8.22606Z" stroke="white" stroke-width="1.5" stroke-linecap="round" stroke-linejoin="round"/>
</svg>
