<svg width="24" height="24" viewBox="0 0 24 24" fill="none" xmlns="http://www.w3.org/2000/svg">
<g id="game-icons:dig-dug">
<path id="Vector" d="M5.50312 0.833984L1.05469 5.34805C1.81406 6.24805 3.10312 7.01211 4.15781 7.23242C4.875 7.37305 5.59219 7.3168 6.1875 7.01211C7.56094 8.3668 8.91562 9.74492 10.2656 11.1324L11.3062 10.0871L7.2 5.98555C7.49531 5.39492 7.59844 4.67539 7.41094 3.9793C7.02656 2.54961 6.41719 1.74898 5.50312 0.833984ZM11.3672 1.2793C10.9312 1.28398 10.5 1.32148 10.0781 1.40586C15.5672 4.71055 19.6687 9.12617 22.9031 14.2355C23.0344 11.4605 21.9094 8.60117 20.1234 6.28086C19.4203 6.53867 18.5531 6.30898 17.9484 5.70898C17.3484 5.1043 17.1187 4.23711 17.3766 3.53398C15.5344 2.13242 13.425 1.26992 11.3672 1.2793ZM6.01875 2.82148C6.28594 3.2668 6.46406 3.72148 6.54844 4.14805C6.70312 4.92148 6.55781 5.55898 6.14531 5.97148C5.7375 6.3793 5.1 6.52461 4.32656 6.37461C3.9 6.29023 3.44531 6.11211 2.99531 5.84492L6.01875 2.82148ZM18.3703 3.5668C18.0328 3.8968 18.0609 4.5793 18.5719 5.08555C19.0781 5.59648 19.7578 5.61992 20.0953 5.28711C20.4281 4.94961 20.4187 4.25586 19.8937 3.76367C19.4859 3.38258 18.8109 3.13227 18.3703 3.5668ZM15.7312 6.9043L1.04531 21.5949C1.24219 22.134 1.54687 22.5512 2.19375 22.7621L16.8891 8.06211C16.5375 7.6543 16.1484 7.26992 15.7312 6.9043ZM13.7062 12.4871L12.6234 13.5699C14.1469 15.1637 15.6703 16.7715 17.1891 18.3746C16.4578 19.0543 15.7031 19.6496 15.0094 20.0668C17.6297 22.6918 20.8641 23.7277 22.6031 22.6215C23.6719 20.873 22.6547 17.6293 20.0484 15.023C19.5984 15.7262 19.0172 16.4621 18.3844 17.1652L13.7062 12.4871Z" fill="white"/>
</g>
</svg>
