<svg width="28" height="28" viewBox="0 0 28 28" fill="none" xmlns="http://www.w3.org/2000/svg">
<path d="M5.8997 3.78656C5.82286 3.69994 5.72959 3.62944 5.6253 3.57913C5.52101 3.52883 5.40777 3.49972 5.29215 3.4935C5.17652 3.48728 5.06082 3.50407 4.95173 3.5429C4.84265 3.58172 4.74235 3.64182 4.65666 3.71969C4.57097 3.79756 4.50159 3.89167 4.45254 3.99656C4.40348 4.10144 4.37574 4.21502 4.3709 4.33071C4.36607 4.4464 4.38425 4.5619 4.42438 4.67051C4.46451 4.77912 4.5258 4.87869 4.6047 4.96344L6.43563 6.97813C5.65679 8.31238 5.24754 9.83007 5.25001 11.375C5.25001 15.2403 4.34548 18.1978 3.73845 19.2434C3.58338 19.5093 3.5012 19.8114 3.50019 20.1193C3.49918 20.4271 3.57938 20.7297 3.7327 20.9966C3.88602 21.2636 4.10703 21.4853 4.37343 21.6395C4.63983 21.7937 4.94219 21.875 5.25001 21.875H9.7147C9.91605 22.8634 10.4528 23.7519 11.234 24.39C12.0152 25.0281 12.9929 25.3767 14.0016 25.3767C15.0104 25.3767 15.9881 25.0281 16.7693 24.39C17.5505 23.7519 18.0873 22.8634 18.2886 21.875H19.9784L22.1047 24.2134C22.1815 24.3001 22.2748 24.3706 22.3791 24.4209C22.4834 24.4712 22.5966 24.5003 22.7122 24.5065C22.8279 24.5127 22.9436 24.4959 23.0527 24.4571C23.1617 24.4183 23.262 24.3582 23.3477 24.2803C23.4334 24.2024 23.5028 24.1083 23.5519 24.0034C23.6009 23.8986 23.6287 23.785 23.6335 23.6693C23.6383 23.5536 23.6201 23.4381 23.58 23.3295C23.5399 23.2209 23.4786 23.1213 23.3997 23.0366L5.8997 3.78656ZM14 23.625C13.4571 23.6251 12.9276 23.4568 12.4843 23.1434C12.041 22.83 11.7058 22.3868 11.5249 21.875H16.4741C16.2932 22.3867 15.9581 22.8297 15.5151 23.1431C15.072 23.4565 14.5427 23.6248 14 23.625ZM23.5474 19.5333C23.3736 19.6413 23.1675 19.685 22.9649 19.6568C22.7623 19.6286 22.576 19.5304 22.4383 19.3791L9.4697 5.11219C9.38152 5.01486 9.31639 4.89893 9.27912 4.773C9.24186 4.64707 9.23342 4.51436 9.25443 4.38473C9.27544 4.25509 9.32536 4.13184 9.4005 4.02413C9.47563 3.91642 9.57405 3.827 9.68845 3.7625C11.0195 3.00878 12.5248 2.61715 14.0544 2.62666C15.584 2.63618 17.0844 3.04651 18.406 3.81673C19.7275 4.58696 20.8241 5.69016 21.5863 7.01635C22.3485 8.34254 22.7497 9.84538 22.75 11.375C22.75 15.2414 23.625 17.7833 23.8995 18.4713C23.9743 18.6613 23.9802 18.8715 23.9163 19.0655C23.8524 19.2594 23.7226 19.4249 23.5495 19.5333H23.5474Z" fill="white"/>
</svg>
