<svg width="24" height="25" viewBox="0 0 24 25" fill="none" xmlns="http://www.w3.org/2000/svg">
<g clip-path="url(#clip0_899_1234)">
<path d="M7 3.14706C7.55228 3.14706 8 2.69935 8 2.14706C8 1.59478 7.55228 1.14706 7 1.14706C6.44772 1.14706 6 1.59478 6 2.14706C6 2.69935 6.44772 3.14706 7 3.14706Z" fill="white"/>
<path d="M3 7.14706C3.55228 7.14706 4 6.69935 4 6.14706C4 5.59478 3.55228 5.14706 3 5.14706C2.44772 5.14706 2 5.59478 2 6.14706C2 6.69935 2.44772 7.14706 3 7.14706Z" fill="white"/>
<path d="M12 2.14706C12.5523 2.14706 13 1.69935 13 1.14706C13 0.594779 12.5523 0.147064 12 0.147064C11.4477 0.147064 11 0.594779 11 1.14706C11 1.69935 11.4477 2.14706 12 2.14706Z" fill="white"/>
<path d="M17 3.14706C17.5523 3.14706 18 2.69935 18 2.14706C18 1.59478 17.5523 1.14706 17 1.14706C16.4477 1.14706 16 1.59478 16 2.14706C16 2.69935 16.4477 3.14706 17 3.14706Z" fill="white"/>
<path d="M21 7.14706C21.5523 7.14706 22 6.69935 22 6.14706C22 5.59478 21.5523 5.14706 21 5.14706C20.4477 5.14706 20 5.59478 20 6.14706C20 6.69935 20.4477 7.14706 21 7.14706Z" fill="white"/>
<path d="M17.5 24.1471L17.381 24.1181C15.5939 23.6378 14.0086 22.5955 12.8595 21.1449C11.7105 19.6944 11.0585 17.9127 11 16.0631V11.8451L17.5 9.14706L24 11.8451V16.0631C23.9415 17.9127 23.2895 19.6944 22.1405 21.1449C20.9914 22.5955 19.4061 23.6378 17.619 24.1181L17.5 24.1471ZM13 13.0121V16.1621C13.0312 17.5017 13.4824 18.7976 14.2898 19.867C15.0972 20.9364 16.2201 21.7252 17.5 22.1221C18.7799 21.7252 19.9028 20.9364 20.7102 19.867C21.5176 18.7976 21.9688 17.5017 22 16.1621V13.0121L17.5 11.2191L13 13.0121Z" fill="white"/>
<path d="M12 24.1471C12.5523 24.1471 13 23.6993 13 23.1471C13 22.5948 12.5523 22.1471 12 22.1471C11.4477 22.1471 11 22.5948 11 23.1471C11 23.6993 11.4477 24.1471 12 24.1471Z" fill="white"/>
<path d="M10.3999 10.5471C10.612 10.5465 10.8151 10.4621 10.9651 10.3122C11.115 10.1623 11.1994 9.95908 11.1999 9.74707V8.14707H12.7999C13.2058 8.14533 13.5958 7.98942 13.891 7.71091C14.1862 7.43241 14.3646 7.05213 14.3899 6.64707C15.3182 7.05804 16.1275 7.69679 16.7429 8.50407L17.9999 7.98007L19.0799 8.43007C18.448 7.22342 17.5182 6.1982 16.3789 5.45162C15.2396 4.70503 13.9285 4.26183 12.5699 4.16404C11.2113 4.06625 9.85022 4.31711 8.61574 4.89283C7.38126 5.46855 6.3143 6.35005 5.51602 7.45375C4.71774 8.55745 4.21461 9.84676 4.05434 11.1994C3.89406 12.5521 4.08195 13.9233 4.60019 15.183C5.11843 16.4427 5.94984 17.5491 7.01559 18.3974C8.08134 19.2457 9.3461 19.8076 10.6899 20.0301C10.4063 19.3225 10.2083 18.5836 10.0999 17.8291C8.7247 17.3771 7.56091 16.4402 6.82578 15.1932C6.09065 13.9461 5.83443 12.4742 6.10495 11.0521L9.59995 14.5471V15.3471C9.60181 15.7324 9.74401 16.1039 9.99995 16.3921V12.1471H8.79995V10.5471H10.3999Z" fill="white"/>
<path d="M3 19.1471C3.55228 19.1471 4 18.6993 4 18.1471C4 17.5948 3.55228 17.1471 3 17.1471C2.44772 17.1471 2 17.5948 2 18.1471C2 18.6993 2.44772 19.1471 3 19.1471Z" fill="white"/>
<path d="M7 23.1471C7.55228 23.1471 8 22.6993 8 22.1471C8 21.5948 7.55228 21.1471 7 21.1471C6.44772 21.1471 6 21.5948 6 22.1471C6 22.6993 6.44772 23.1471 7 23.1471Z" fill="white"/>
<path d="M1 13.1471C1.55228 13.1471 2 12.6993 2 12.1471C2 11.5948 1.55228 11.1471 1 11.1471C0.447715 11.1471 0 11.5948 0 12.1471C0 12.6993 0.447715 13.1471 1 13.1471Z" fill="white"/>
</g>
<defs>
<clipPath id="clip0_899_1234">
<rect width="24" height="24" fill="white" transform="translate(0 0.147064)"/>
</clipPath>
</defs>
</svg>
