<svg width="30" height="30" viewBox="0 0 30 30" fill="none" xmlns="http://www.w3.org/2000/svg">
<path d="M24.375 25.7142H5.62497C4.73553 25.7143 3.87979 25.374 3.23329 24.7631C2.58679 24.1523 2.19854 23.3172 2.14818 22.4292L2.14282 22.2321V6.69636C2.14275 6.08551 2.37457 5.49741 2.79143 5.05091C3.2083 4.60441 3.77912 4.33281 4.38854 4.291L4.55354 4.28564H21.1607C21.7715 4.28557 22.3596 4.51739 22.8061 4.93425C23.2526 5.35112 23.5242 5.92194 23.566 6.53136L23.5714 6.69636V7.49993H25.4464C26.0572 7.49986 26.6453 7.73168 27.0918 8.14854C27.5383 8.5654 27.8099 9.13623 27.8518 9.74564L27.8571 9.91064V22.2321C27.8572 23.1215 27.5169 23.9772 26.906 24.6237C26.2952 25.2703 25.4601 25.6585 24.5721 25.7089L24.375 25.7142ZM5.62497 24.1071H24.375C24.8457 24.107 25.2992 23.9299 25.6454 23.611C25.9915 23.292 26.2051 22.8544 26.2435 22.3853L26.25 22.2321V9.91064C26.25 9.71646 26.1796 9.52885 26.052 9.3825C25.9244 9.23616 25.7481 9.14098 25.5557 9.11457L25.4464 9.10707H23.5714V20.6249C23.5714 20.8191 23.5011 21.0067 23.3734 21.1531C23.2458 21.2994 23.0695 21.3946 22.8771 21.421L22.7678 21.4285C22.5736 21.4285 22.386 21.3582 22.2397 21.2305C22.0933 21.1029 21.9982 20.9266 21.9718 20.7342L21.9643 20.6249V6.69636C21.9642 6.50218 21.8939 6.31456 21.7663 6.16822C21.6387 6.02187 21.4623 5.9267 21.27 5.90029L21.1607 5.89279H4.55354C4.35935 5.8928 4.17174 5.96312 4.0254 6.09075C3.87905 6.21839 3.78387 6.39469 3.75747 6.58707L3.74997 6.69636V22.2321C3.74998 22.7026 3.92693 23.156 4.24569 23.5021C4.56445 23.8483 5.00171 24.0619 5.47068 24.1006L5.62497 24.1071ZM10.9778 13.9328C11.7171 13.9328 12.3171 14.5328 12.3171 15.2721V19.0178C12.3171 19.7571 11.7171 20.3571 10.9778 20.3571H7.23211C6.49282 20.3571 5.89282 19.7571 5.89282 19.0178V15.2721C5.89282 14.5328 6.49282 13.9328 7.23211 13.9328H10.9778ZM15.2678 18.7499H19.0135C19.2171 18.75 19.4131 18.8273 19.5619 18.9663C19.7107 19.1053 19.8011 19.2956 19.815 19.4987C19.8289 19.7019 19.7651 19.9027 19.6366 20.0606C19.5082 20.2185 19.3245 20.3218 19.1228 20.3496L19.0135 20.3571H15.2678C15.0642 20.357 14.8682 20.2797 14.7195 20.1407C14.5707 20.0017 14.4802 19.8114 14.4664 19.6083C14.4525 19.4052 14.5162 19.2043 14.6447 19.0464C14.7732 18.8885 14.9568 18.7852 15.1585 18.7574L15.2678 18.7499ZM10.711 15.5399H7.49997V18.7499H10.711V15.5399ZM15.2678 13.9328H19.0135C19.2171 13.9328 19.4131 14.0102 19.5619 14.1492C19.7107 14.2882 19.8011 14.4785 19.815 14.6816C19.8289 14.8847 19.7651 15.0855 19.6366 15.2435C19.5082 15.4014 19.3245 15.5047 19.1228 15.5324L19.0135 15.5399H15.2678C15.0628 15.542 14.8647 15.4656 14.7141 15.3264C14.5636 15.1872 14.4719 14.9957 14.4579 14.7911C14.444 14.5866 14.5087 14.3844 14.639 14.226C14.7692 14.0676 14.9551 13.965 15.1585 13.9392L15.2678 13.9328ZM6.69211 9.10386H19.0135C19.2171 9.10392 19.4131 9.18126 19.5619 9.32026C19.7107 9.45925 19.8011 9.64954 19.815 9.85266C19.8289 10.0558 19.7651 10.2566 19.6366 10.4145C19.5082 10.5725 19.3245 10.6757 19.1228 10.7035L19.0135 10.711H6.69211C6.4886 10.7107 6.2928 10.6331 6.14424 10.4941C5.99568 10.355 5.90542 10.1647 5.89168 9.96167C5.87794 9.75863 5.94176 9.55794 6.07024 9.40011C6.19871 9.24229 6.38229 9.1391 6.58389 9.11136L6.69211 9.10386Z" fill="white"/>
</svg>
