<svg width="30" height="30" viewBox="0 0 30 30" fill="none" xmlns="http://www.w3.org/2000/svg">
<path fill-rule="evenodd" clip-rule="evenodd" d="M6.25 2.5C5.25544 2.5 4.30161 2.89509 3.59835 3.59835C2.89509 4.30161 2.5 5.25544 2.5 6.25V23.75C2.5 24.7446 2.89509 25.6984 3.59835 26.4017C4.30161 27.1049 5.25544 27.5 6.25 27.5H17.5V21.25C17.5 20.2554 17.8951 19.3016 18.5983 18.5983C19.3016 17.8951 20.2554 17.5 21.25 17.5H27.5V6.25C27.5 5.25544 27.1049 4.30161 26.4017 3.59835C25.6984 2.89509 24.7446 2.5 23.75 2.5H6.25ZM21.6162 26.4013C21.1669 26.8506 20.6108 27.1783 20 27.3537V21.25C20 20.9185 20.1317 20.6005 20.3661 20.3661C20.6005 20.1317 20.9185 20 21.25 20H27.3537C27.1783 20.6108 26.8506 21.1669 26.4013 21.6162L21.6162 26.4013ZM8.75 7.5C8.41848 7.5 8.10054 7.6317 7.86612 7.86612C7.6317 8.10054 7.5 8.41848 7.5 8.75C7.5 9.08152 7.6317 9.39946 7.86612 9.63388C8.10054 9.8683 8.41848 10 8.75 10H21.25C21.5815 10 21.8995 9.8683 22.1339 9.63388C22.3683 9.39946 22.5 9.08152 22.5 8.75C22.5 8.41848 22.3683 8.10054 22.1339 7.86612C21.8995 7.6317 21.5815 7.5 21.25 7.5H8.75ZM8.75 12.5C8.41848 12.5 8.10054 12.6317 7.86612 12.8661C7.6317 13.1005 7.5 13.4185 7.5 13.75C7.5 14.0815 7.6317 14.3995 7.86612 14.6339C8.10054 14.8683 8.41848 15 8.75 15H21.25C21.5815 15 21.8995 14.8683 22.1339 14.6339C22.3683 14.3995 22.5 14.0815 22.5 13.75C22.5 13.4185 22.3683 13.1005 22.1339 12.8661C21.8995 12.6317 21.5815 12.5 21.25 12.5H8.75ZM8.75 17.5C8.41848 17.5 8.10054 17.6317 7.86612 17.8661C7.6317 18.1005 7.5 18.4185 7.5 18.75C7.5 19.0815 7.6317 19.3995 7.86612 19.6339C8.10054 19.8683 8.41848 20 8.75 20H13.75C14.0815 20 14.3995 19.8683 14.6339 19.6339C14.8683 19.3995 15 19.0815 15 18.75C15 18.4185 14.8683 18.1005 14.6339 17.8661C14.3995 17.6317 14.0815 17.5 13.75 17.5H8.75Z" fill="white"/>
</svg>
