<svg width="24" height="25" viewBox="0 0 24 25" fill="none" xmlns="http://www.w3.org/2000/svg">
<path d="M6.00002 7.34706C6.00002 6.07402 6.50574 4.85312 7.40591 3.95295C8.30609 3.05277 9.52698 2.54706 10.8 2.54706C12.0731 2.54706 13.294 3.05277 14.1941 3.95295C15.0943 4.85312 15.6 6.07402 15.6 7.34706C15.6 8.6201 15.0943 9.841 14.1941 10.7412C13.294 11.6413 12.0731 12.1471 10.8 12.1471C9.52698 12.1471 8.30609 11.6413 7.40591 10.7412C6.50574 9.841 6.00002 8.6201 6.00002 7.34706ZM10.8 3.74706C9.84524 3.74706 8.92957 4.12634 8.25444 4.80147C7.57931 5.4766 7.20002 6.39228 7.20002 7.34706C7.20002 8.30184 7.57931 9.21751 8.25444 9.89264C8.92957 10.5678 9.84524 10.9471 10.8 10.9471C11.7548 10.9471 12.6705 10.5678 13.3456 9.89264C14.0207 9.21751 14.4 8.30184 14.4 7.34706C14.4 6.39228 14.0207 5.4766 13.3456 4.80147C12.6705 4.12634 11.7548 3.74706 10.8 3.74706ZM2.40002 15.7471C2.40002 14.4115 3.48362 13.3471 4.81082 13.3471H12.3084C12.0028 13.7172 11.7384 14.1196 11.52 14.5471H4.81082C4.13762 14.5471 3.60002 15.0835 3.60002 15.7471C3.60002 17.3179 4.34642 18.4879 5.60762 19.2907C6.89162 20.1103 8.71802 20.5471 10.8 20.5471C11.04 20.5471 11.2776 20.5411 11.5104 20.5291C11.718 20.9395 11.9676 21.3235 12.252 21.6787C11.778 21.7243 11.292 21.7471 10.8 21.7471C8.57402 21.7471 6.50042 21.2839 4.96202 20.3035C3.39962 19.3075 2.40002 17.7751 2.40002 15.7471ZM22.8 17.5471C22.8 18.9792 22.2311 20.3527 21.2184 21.3654C20.2057 22.3781 18.8322 22.9471 17.4 22.9471C15.9679 22.9471 14.5943 22.3781 13.5816 21.3654C12.569 20.3527 12 18.9792 12 17.5471C12 16.1149 12.569 14.7414 13.5816 13.7287C14.5943 12.716 15.9679 12.1471 17.4 12.1471C18.8322 12.1471 20.2057 12.716 21.2184 13.7287C22.2311 14.7414 22.8 16.1149 22.8 17.5471ZM19.6248 16.1719C19.7375 16.0592 19.8008 15.9064 19.8008 15.7471C19.8008 15.5877 19.7375 15.4349 19.6248 15.3223C19.5122 15.2096 19.3594 15.1463 19.2 15.1463C19.0407 15.1463 18.8879 15.2096 18.7752 15.3223L17.4 16.6987L16.0248 15.3223C15.9122 15.2096 15.7594 15.1463 15.6 15.1463C15.4407 15.1463 15.2879 15.2096 15.1752 15.3223C15.0626 15.4349 14.9993 15.5877 14.9993 15.7471C14.9993 15.9064 15.0626 16.0592 15.1752 16.1719L16.5516 17.5471L15.1752 18.9223C15.1194 18.978 15.0752 19.0443 15.045 19.1172C15.0148 19.19 14.9993 19.2682 14.9993 19.3471C14.9993 19.4259 15.0148 19.5041 15.045 19.577C15.0752 19.6498 15.1194 19.7161 15.1752 19.7719C15.231 19.8276 15.2972 19.8719 15.3701 19.9021C15.443 19.9323 15.5211 19.9478 15.6 19.9478C15.6789 19.9478 15.757 19.9323 15.8299 19.9021C15.9028 19.8719 15.969 19.8276 16.0248 19.7719L17.4 18.3955L18.7752 19.7719C18.831 19.8276 18.8972 19.8719 18.9701 19.9021C19.043 19.9323 19.1211 19.9478 19.2 19.9478C19.2789 19.9478 19.357 19.9323 19.4299 19.9021C19.5028 19.8719 19.569 19.8276 19.6248 19.7719C19.6806 19.7161 19.7249 19.6498 19.7551 19.577C19.7852 19.5041 19.8008 19.4259 19.8008 19.3471C19.8008 19.2682 19.7852 19.19 19.7551 19.1172C19.7249 19.0443 19.6806 18.978 19.6248 18.9223L18.2484 17.5471L19.6248 16.1719Z" fill="white"/>
</svg>
