<svg width="24" height="25" viewBox="0 0 24 25" fill="none" xmlns="http://www.w3.org/2000/svg">
<path d="M8.35714 1.86134C7.73199 1.86134 7.13244 2.10968 6.69039 2.55173C6.24834 2.99378 6 3.59333 6 4.21849V20.0756C6 20.7008 6.24834 21.3003 6.69039 21.7424C7.13244 22.1844 7.73199 22.4328 8.35714 22.4328H15.6429C16.268 22.4328 16.8676 22.1844 17.3096 21.7424C17.7517 21.3003 18 20.7008 18 20.0756V4.21849C18 3.59333 17.7517 2.99378 17.3096 2.55173C16.8676 2.10968 16.268 1.86134 15.6429 1.86134H8.35714ZM7.28571 4.21849C7.28571 3.62706 7.76571 3.14706 8.35714 3.14706H15.6429C16.2343 3.14706 16.7143 3.62706 16.7143 4.21849V20.0756C16.7143 20.6671 16.2343 21.1471 15.6429 21.1471H8.35714C7.76571 21.1471 7.28571 20.6671 7.28571 20.0756V4.21849ZM10.5 18.1471C10.3295 18.1471 10.166 18.2148 10.0454 18.3353C9.92487 18.4559 9.85714 18.6194 9.85714 18.7899C9.85714 18.9604 9.92487 19.1239 10.0454 19.2445C10.166 19.365 10.3295 19.4328 10.5 19.4328H13.5C13.6705 19.4328 13.834 19.365 13.9546 19.2445C14.0751 19.1239 14.1429 18.9604 14.1429 18.7899C14.1429 18.6194 14.0751 18.4559 13.9546 18.3353C13.834 18.2148 13.6705 18.1471 13.5 18.1471H10.5Z" fill="white"/>
</svg>
