<svg width="20" height="20" viewBox="0 0 20 20" fill="none" xmlns="http://www.w3.org/2000/svg">
<path fill-rule="evenodd" clip-rule="evenodd" d="M4.86666 8.21338C6.35896 11.4621 9.01042 14.0366 12.3017 15.4325L12.3117 15.4367L12.9483 15.7201C13.3416 15.8954 13.7832 15.9301 14.199 15.8183C14.6148 15.7064 14.9795 15.4549 15.2317 15.1059L16.2933 13.6367C16.3245 13.5935 16.338 13.5399 16.3308 13.487C16.3237 13.4341 16.2966 13.386 16.255 13.3526L14.4017 11.8567C14.3798 11.8391 14.3546 11.826 14.3275 11.8184C14.3005 11.8108 14.2722 11.8087 14.2443 11.8122C14.2164 11.8158 14.1896 11.825 14.1654 11.8392C14.1411 11.8535 14.12 11.8725 14.1033 11.8951L13.3817 12.8684C13.2966 12.9832 13.1748 13.0655 13.0366 13.1014C12.8983 13.1373 12.7518 13.1248 12.6217 13.0659C10.1559 11.9488 8.18037 9.97334 7.06333 7.50755C7.00442 7.37738 6.99189 7.23095 7.02783 7.09266C7.06376 6.95437 7.146 6.83257 7.26083 6.74755L8.23333 6.02505C8.25593 6.00835 8.27491 5.98725 8.28914 5.96302C8.30338 5.93879 8.31256 5.91193 8.31614 5.88406C8.31972 5.85619 8.31763 5.82788 8.30998 5.80084C8.30234 5.7738 8.2893 5.74859 8.27166 5.72672L6.77666 3.87338C6.74321 3.83183 6.69509 3.80468 6.64222 3.79755C6.58936 3.79042 6.53576 3.80384 6.4925 3.83505L5.015 4.90172C4.66366 5.15514 4.41092 5.5224 4.29972 5.94108C4.18851 6.35976 4.22571 6.80403 4.405 7.19838L4.86666 8.21338ZM11.8083 16.5809C8.23258 15.0626 5.35216 12.2645 3.73083 8.73422L3.72916 8.73255L3.2675 7.71588C2.96868 7.05875 2.90659 6.31842 3.09177 5.62069C3.27695 4.92296 3.69798 4.31086 4.28333 3.88838L5.76083 2.82172C6.06344 2.60332 6.43826 2.50924 6.80813 2.55884C7.17801 2.60845 7.5148 2.79797 7.74916 3.08838L9.245 4.94255C9.36844 5.09553 9.45968 5.27188 9.51324 5.46102C9.5668 5.65015 9.58156 5.84816 9.55666 6.04315C9.53175 6.23813 9.46768 6.42607 9.36829 6.59567C9.26891 6.76526 9.13627 6.91302 8.97833 7.03005L8.42 7.44338C9.36398 9.27367 10.8547 10.7644 12.685 11.7084L13.0992 11.1501C13.2162 10.9922 13.3639 10.8597 13.5334 10.7604C13.703 10.6611 13.8908 10.5971 14.0857 10.5722C14.2806 10.5472 14.4785 10.562 14.6675 10.6155C14.8566 10.6689 15.0329 10.7601 15.1858 10.8834L17.04 12.3792C17.3306 12.6136 17.5203 12.9506 17.5699 13.3206C17.6195 13.6907 17.5253 14.0657 17.3067 14.3684L16.245 15.8384C15.8247 16.42 15.2171 16.8393 14.5243 17.0258C13.8314 17.2123 13.0954 17.1546 12.44 16.8626L11.8083 16.5809Z" fill="#09FF21"/>
<path fill-rule="evenodd" clip-rule="evenodd" d="M11.6339 7.94816C11.5173 7.83066 11.4506 7.67149 11.4506 7.50649L11.4506 4.31482C11.4506 4.14906 11.5164 3.99009 11.6336 3.87288C11.7509 3.75567 11.9098 3.68982 12.0756 3.68982C12.2413 3.68982 12.4003 3.75567 12.5175 3.87288C12.6347 3.99009 12.7006 4.14906 12.7006 4.31482L12.7006 5.99816L15.3339 3.36482C15.3916 3.30516 15.4606 3.25758 15.5369 3.22486C15.6131 3.19214 15.6951 3.17494 15.7781 3.17425C15.8611 3.17357 15.9434 3.18943 16.0202 3.22089C16.097 3.25235 16.1668 3.29879 16.2254 3.3575C16.2841 3.41621 16.3304 3.48602 16.3618 3.56284C16.3932 3.63966 16.409 3.72197 16.4082 3.80496C16.4075 3.88794 16.3902 3.96995 16.3574 4.04619C16.3246 4.12242 16.277 4.19136 16.2172 4.24899L13.5848 6.88232L15.2673 6.88232C15.433 6.88232 15.592 6.94817 15.7092 7.06538C15.8264 7.18259 15.8923 7.34156 15.8923 7.50732C15.8923 7.67308 15.8264 7.83206 15.7092 7.94927C15.592 8.06648 15.433 8.13232 15.2673 8.13232L12.0773 8.13232C11.9115 8.13218 11.7527 8.06623 11.6356 7.94899" fill="#09FF21"/>
</svg>
