<svg width="24" height="24" viewBox="0 0 24 24" fill="none" xmlns="http://www.w3.org/2000/svg">
<path d="M6.7758 5.16588C6.79583 5.07644 6.79805 4.98394 6.78233 4.89365C6.76661 4.80335 6.73325 4.71704 6.68418 4.63964C6.6351 4.56223 6.57126 4.49526 6.49629 4.44253C6.42133 4.3898 6.33671 4.35235 6.24728 4.33232C6.15784 4.31229 6.06534 4.31007 5.97504 4.32579C5.88475 4.34151 5.79844 4.37486 5.72104 4.42394C5.64363 4.47302 5.57665 4.53686 5.52392 4.61183C5.47119 4.68679 5.43374 4.7714 5.41372 4.86084L6.7758 5.16588ZM8.4454 2.07384C8.36718 2.12161 8.29913 2.18433 8.24515 2.2584C8.19116 2.33247 8.15229 2.41645 8.13076 2.50554C8.10922 2.59463 8.10545 2.68709 8.11965 2.77764C8.13385 2.86819 8.16575 2.95506 8.21352 3.03328C8.2613 3.11151 8.32401 3.17955 8.39808 3.23354C8.47215 3.28753 8.55612 3.3264 8.64522 3.34793C8.73431 3.36946 8.82677 3.37323 8.91732 3.35903C9.00787 3.34483 9.09474 3.31293 9.17296 3.26516L8.4454 2.07384ZM9.53725 17.5422C9.59923 17.6117 9.6745 17.668 9.75861 17.708C9.84272 17.7479 9.93398 17.7706 10.027 17.7748C10.12 17.7789 10.2129 17.7644 10.3002 17.732C10.3876 17.6997 10.4675 17.6502 10.5354 17.5865C10.6033 17.5227 10.6578 17.4461 10.6956 17.361C10.7334 17.2759 10.7538 17.1841 10.7555 17.091C10.7573 16.9979 10.7404 16.9054 10.7059 16.8189C10.6714 16.7325 10.6199 16.6538 10.5545 16.5875L9.53725 17.5422ZM13.2809 18.6454C13.1987 18.605 13.1092 18.5811 13.0178 18.5752C12.9263 18.5693 12.8345 18.5814 12.7477 18.611C12.661 18.6406 12.5809 18.6869 12.512 18.7474C12.4431 18.8079 12.3869 18.8814 12.3464 18.9637C12.3059 19.0459 12.2821 19.1354 12.2762 19.2269C12.2702 19.3183 12.2824 19.4101 12.312 19.4969C12.3415 19.5836 12.3879 19.6638 12.4484 19.7326C12.5089 19.8015 12.5824 19.8578 12.6647 19.8982L13.2809 18.6454ZM14.8238 15.0325L15.324 14.7265L14.5964 13.5352L14.0963 13.8412L14.8238 15.0325ZM16.6037 14.8685L17.9651 16.2106L18.9441 15.2157L17.5832 13.8744L16.6037 14.8685ZM17.7314 18.1428L16.1699 19.0981L16.8978 20.2881L18.4585 19.3333L17.7314 18.1428ZM8.54135 13.7482C6.22438 9.47831 6.4876 6.44734 6.7758 5.16588L5.41372 4.86084C5.05662 6.45279 4.82761 9.8314 7.31502 14.4132L8.54135 13.7482ZM11.2795 8.50091L11.5947 8.30818L10.8663 7.11733L10.5503 7.31052L11.2795 8.50091ZM12.6856 5.13668L12.037 3.35834L10.7252 3.83638L11.3746 5.61425L12.6856 5.13668ZM10.9153 7.90548L10.5503 7.31052L10.5374 7.31796L10.5222 7.32888C10.4789 7.35772 10.4379 7.39001 10.3997 7.42543C10.3196 7.49849 10.2479 7.58024 10.1859 7.66917C10.0005 7.94354 9.88502 8.25914 9.84968 8.5884C9.74741 9.38438 9.96418 10.5376 10.8832 12.2318L12.1112 11.5658C11.2579 9.99479 11.1846 9.14973 11.2342 8.76663C11.2572 8.58144 11.3105 8.49696 11.3277 8.47092C11.3373 8.45784 11.3422 8.45505 11.335 8.46131C11.3242 8.4708 11.3126 8.47931 11.3003 8.48674L11.2903 8.49359L11.2806 8.49917C11.2798 8.49964 11.279 8.5001 10.9148 7.90468M10.8836 12.2305C11.8006 13.9193 12.6365 14.714 13.3641 15.0309C13.7373 15.1936 14.0663 15.2238 14.3311 15.1913C14.4779 15.1733 14.6209 15.1321 14.7547 15.0691C14.7759 15.0587 14.7966 15.0474 14.8169 15.0354L14.8217 15.0326C14.8226 15.0321 14.8238 15.0325 14.4596 14.4371C14.0963 13.8412 14.0958 13.8404 14.0974 13.8394L14.1014 13.8371C14.1202 13.8262 14.1397 13.8164 14.1597 13.8078C14.1703 13.8038 14.1708 13.8046 14.1608 13.806C14.0779 13.8092 13.9955 13.7904 13.9221 13.7516C13.611 13.6165 12.966 13.1412 12.1102 11.5642L10.8836 12.2305ZM12.0365 3.35754C11.4986 1.88058 9.79507 1.24842 8.4454 2.07384L9.1733 3.26389C9.74536 2.9132 10.4796 3.15964 10.7256 3.83511L12.0365 3.35754ZM16.1699 19.0981C15.8643 19.2852 15.584 19.3504 15.3455 19.3151L15.1349 20.6936C15.7962 20.7952 16.4093 20.5863 16.8978 20.2881L16.1699 19.0981ZM11.5947 8.30818C12.6609 7.65607 13.1128 6.31018 12.6856 5.13668L11.3746 5.61425C11.5802 6.17876 11.352 6.81976 10.8663 7.11733L11.5947 8.30818ZM17.9651 16.2106C18.5127 16.7496 18.4033 17.7323 17.7306 18.1433L18.459 19.3341C19.8951 18.4556 20.1463 16.3994 18.9441 15.2157L17.9651 16.2106ZM15.3248 14.7261C15.7453 14.4683 16.2595 14.5291 16.6037 14.8685L17.5832 13.8744C17.1959 13.4905 16.6901 13.2475 16.1483 13.1861C15.6065 13.1247 15.0597 13.2477 14.5964 13.5352L15.3248 14.7261ZM10.5557 16.5878C9.86992 15.8558 9.18197 14.9285 8.54135 13.7482L7.31502 14.4132C8.01077 15.6928 8.76599 16.7199 9.53725 17.5422L10.5557 16.5878ZM15.3451 19.3143C14.6271 19.1972 13.9311 18.9717 13.2809 18.6454L12.6642 19.8974C13.4425 20.2863 14.2754 20.5545 15.1344 20.6928L15.3451 19.3143Z" fill="white"/>
</svg>
