<svg width="20" height="21" viewBox="0 0 20 21" fill="none" xmlns="http://www.w3.org/2000/svg">
<path fill-rule="evenodd" clip-rule="evenodd" d="M4.86665 8.71333C6.35894 11.962 9.01041 14.5365 12.3016 15.9325L12.3116 15.9367L12.9483 16.22C13.3416 16.3954 13.7832 16.43 14.199 16.3182C14.6148 16.2064 14.9794 15.9548 15.2316 15.6058L16.2933 14.1367C16.3245 14.0934 16.3379 14.0398 16.3308 13.9869C16.3237 13.9341 16.2965 13.886 16.255 13.8525L14.4016 12.3567C14.3798 12.339 14.3546 12.326 14.3275 12.3183C14.3005 12.3107 14.2722 12.3086 14.2443 12.3122C14.2164 12.3158 14.1896 12.325 14.1653 12.3392C14.1411 12.3534 14.12 12.3724 14.1033 12.395L13.3816 13.3683C13.2966 13.4832 13.1748 13.5654 13.0365 13.6013C12.8982 13.6373 12.7518 13.6247 12.6216 13.5658C10.1559 12.4488 8.18035 10.4733 7.06332 8.0075C7.0044 7.87733 6.99187 7.7309 7.02781 7.59261C7.06375 7.45432 7.14598 7.33252 7.26082 7.2475L8.23332 6.525C8.25591 6.5083 8.2749 6.4872 8.28913 6.46297C8.30336 6.43874 8.31254 6.41188 8.31612 6.38401C8.3197 6.35614 8.31761 6.32783 8.30997 6.30079C8.30232 6.27375 8.28929 6.24854 8.27165 6.22667L6.77665 4.37333C6.7432 4.33178 6.69508 4.30463 6.64221 4.2975C6.58934 4.29037 6.53575 4.30379 6.49248 4.335L5.01498 5.40167C4.66365 5.65509 4.4109 6.02235 4.2997 6.44103C4.1885 6.85971 4.2257 7.30398 4.40498 7.69833L4.86665 8.71333ZM11.8083 17.0808C8.23257 15.5625 5.35215 12.7644 3.73082 9.23417L3.72915 9.2325L3.26748 8.21583C2.96867 7.5587 2.90657 6.81837 3.09175 6.12064C3.27693 5.42291 3.69797 4.81081 4.28332 4.38833L5.76082 3.32167C6.06342 3.10327 6.43824 3.00919 6.80812 3.05879C7.178 3.1084 7.51478 3.29792 7.74915 3.58833L9.24498 5.4425C9.36842 5.59548 9.45967 5.77183 9.51322 5.96097C9.56678 6.1501 9.58155 6.34811 9.55664 6.5431C9.53173 6.73808 9.46766 6.92602 9.36828 7.09562C9.26889 7.26521 9.13625 7.41297 8.97832 7.53L8.41998 7.94333C9.36396 9.77362 10.8547 11.2644 12.685 12.2083L13.0991 11.65C13.2162 11.4922 13.3639 11.3597 13.5334 11.2603C13.7029 11.161 13.8908 11.097 14.0857 11.0721C14.2806 11.0472 14.4785 11.0619 14.6675 11.1154C14.8566 11.1689 15.0329 11.26 15.1858 11.3833L17.04 12.8792C17.3306 13.1136 17.5203 13.4505 17.5699 13.8206C17.6195 14.1907 17.5253 14.5657 17.3066 14.8683L16.245 16.3383C15.8247 16.9199 15.2171 17.3392 14.5242 17.5257C13.8314 17.7122 13.0954 17.6546 12.44 17.3625L11.8083 17.0808Z" fill="#09FF21"/>
<path fill-rule="evenodd" clip-rule="evenodd" d="M16.225 3.85833C16.3416 3.97583 16.4083 4.135 16.4083 4.3V7.49167C16.4083 7.65743 16.3425 7.8164 16.2252 7.93361C16.108 8.05082 15.9491 8.11667 15.7833 8.11667C15.6175 8.11667 15.4586 8.05082 15.3414 7.93361C15.2242 7.8164 15.1583 7.65743 15.1583 7.49167V5.80833L12.525 8.44167C12.4673 8.50133 12.3983 8.54891 12.322 8.58163C12.2458 8.61435 12.1637 8.63156 12.0808 8.63224C11.9978 8.63292 11.9155 8.61707 11.8387 8.5856C11.7619 8.55414 11.6921 8.5077 11.6335 8.44899C11.5748 8.39028 11.5284 8.32048 11.4971 8.24365C11.4657 8.16683 11.4499 8.08452 11.4506 8.00153C11.4514 7.91855 11.4687 7.83654 11.5015 7.76031C11.5343 7.68407 11.5819 7.61513 11.6416 7.5575L14.2741 4.92417H12.5916C12.4259 4.92417 12.2669 4.85832 12.1497 4.74111C12.0325 4.6239 11.9666 4.46493 11.9666 4.29917C11.9666 4.13341 12.0325 3.97444 12.1497 3.85723C12.2669 3.74002 12.4259 3.67417 12.5916 3.67417H15.7816C15.9473 3.67431 16.1062 3.74026 16.2233 3.8575" fill="#09FF21"/>
</svg>
