<svg width="16" height="22" viewBox="0 0 16 22" fill="none" xmlns="http://www.w3.org/2000/svg">
<path d="M2.78742 1.26703L4.21027 0.838458C4.85798 0.64305 5.55466 0.690029 6.17027 0.970624C6.78587 1.25122 7.27833 1.74625 7.5557 2.36332L8.44113 4.33303C8.67972 4.86365 8.74618 5.45566 8.6312 6.02598C8.51621 6.5963 8.22554 7.11631 7.79999 7.51303L6.25285 8.9556C6.23433 8.97399 6.21873 8.99509 6.20656 9.01817C6.04456 9.34903 6.29056 10.2327 7.06113 11.5682C7.93027 13.0733 8.60142 13.6682 8.91256 13.5765L10.9431 12.955C11.4992 12.7852 12.0945 12.7937 12.6456 12.9792C13.1966 13.1647 13.6758 13.518 14.016 13.9896L15.2743 15.7322C15.6693 16.2793 15.8523 16.9513 15.7892 17.6232C15.7262 18.2951 15.4214 18.9212 14.9314 19.3853L13.8488 20.4096C13.4724 20.7662 13.0153 21.0264 12.5164 21.1681C12.0176 21.3097 11.492 21.3286 10.9843 21.223C7.9697 20.5956 5.26885 18.1682 2.85856 13.9939C0.447418 9.81703 -0.304297 6.25989 0.664275 3.33446C0.826409 2.84469 1.10405 2.40115 1.47374 2.0413C1.84343 1.68146 2.29345 1.41589 2.78742 1.26703ZM3.16027 2.49789C2.86388 2.58716 2.59333 2.74647 2.37149 2.96234C2.14965 3.17822 1.98302 3.44432 1.8857 3.73817C1.05085 6.25903 1.72713 9.46132 3.97285 13.351C6.21685 17.2382 8.64942 19.4239 11.2474 19.9639C11.552 20.0271 11.8674 20.0157 12.1667 19.9306C12.466 19.8455 12.7402 19.6893 12.966 19.4753L14.0477 18.4519C14.3116 18.2021 14.4759 17.8649 14.5099 17.5031C14.544 17.1413 14.4455 16.7794 14.2328 16.4847L12.9746 14.7413C12.7914 14.4874 12.5335 14.2972 12.2368 14.1973C11.9402 14.0974 11.6197 14.0928 11.3203 14.1842L9.28456 14.8073C8.15828 15.1425 7.09885 14.2039 5.94856 12.2102C4.97399 10.5233 4.63627 9.30446 5.05285 8.45332C5.13399 8.2876 5.24199 8.1416 5.37685 8.01532L6.92399 6.57274C7.15322 6.35913 7.30981 6.07909 7.37176 5.77194C7.43371 5.46479 7.39793 5.14595 7.26942 4.86017L6.38313 2.89132C6.23378 2.55897 5.96856 2.29234 5.63701 2.14123C5.30545 1.99013 4.93023 1.96487 4.58142 2.07017L3.16027 2.49789Z" fill="black"/>
</svg>
