<svg width="20" height="20" viewBox="0 0 20 20" fill="none" xmlns="http://www.w3.org/2000/svg">
<path d="M16.6667 3.3335L13.3333 6.66683M13.3333 3.3335L16.6667 6.66683" stroke="#FF0404" stroke-width="1.5" stroke-linecap="round"/>
<path d="M13.0375 12.9526L13.4167 12.5526L12.51 11.6917L12.1308 12.0926L13.0375 12.9526ZM14.6658 12.3842L16.2575 13.3017L16.8817 12.2176L15.2892 11.3009L14.6658 12.3842ZM16.565 15.2009L15.3817 16.4467L16.2875 17.3084L17.4708 16.0626L16.565 15.2009ZM14.6692 16.8467C13.4733 16.9642 10.3525 16.8642 6.96584 13.2992L6.06 14.1592C9.75083 18.0451 13.2717 18.2417 14.7917 18.0909L14.6692 16.8467ZM6.96584 13.2992C3.73583 9.8984 3.19417 7.02923 3.12667 5.7709L1.87833 5.8384C1.96167 7.38006 2.615 10.5326 6.06 14.1592L6.96584 13.2992ZM8.1125 7.76756L8.35083 7.5159L7.445 6.65506L7.20583 6.90673L8.1125 7.76756ZM8.53917 4.38256L7.48833 2.89756L6.4675 3.61923L7.5175 5.10506L8.53917 4.38256ZM3.93083 2.5759L2.62417 3.95423L3.53083 4.81506L4.83917 3.43756L3.93083 2.5759ZM7.65917 7.33673C7.50919 7.19219 7.35779 7.04913 7.205 6.90756L7.20333 6.90923L7.20083 6.91173C7.1862 6.92719 7.1723 6.94331 7.15917 6.96006C7.07748 7.06819 7.01284 7.18819 6.9675 7.3159C6.88583 7.54506 6.8425 7.8484 6.8975 8.22673C7.00584 8.97006 7.49333 9.96923 8.76583 11.3101L9.6725 10.4484C8.4825 9.1959 8.18917 8.42506 8.13417 8.04506C8.1075 7.86173 8.13417 7.7659 8.145 7.73506L8.15167 7.71923C8.14487 7.73021 8.13705 7.74053 8.12833 7.75006C8.12344 7.75571 8.11844 7.76127 8.11333 7.76673C8.11333 7.76673 8.11167 7.76673 7.65917 7.33673ZM8.76583 11.3101C10.035 12.6467 10.9933 13.1709 11.7242 13.2901C12.1 13.3509 12.4042 13.3017 12.6342 13.2109C12.7616 13.1609 12.8801 13.0905 12.985 13.0026C12.9953 12.9934 13.0053 12.9839 13.015 12.9742L13.0267 12.9626C13.0286 12.9609 13.0306 12.9593 13.0325 12.9576L13.035 12.9551L13.0358 12.9534C13.0358 12.9534 13.0375 12.9526 12.5842 12.5217C12.1308 12.0917 12.1317 12.0909 12.1317 12.0901L12.1333 12.0892L12.135 12.0867C12.1364 12.0854 12.1378 12.084 12.1392 12.0826L12.1475 12.0742C12.1573 12.0648 12.1676 12.0559 12.1783 12.0476C12.1867 12.0426 12.1858 12.0442 12.175 12.0484C12.1583 12.0551 12.0833 12.0817 11.925 12.0559C11.59 12.0009 10.8667 11.7059 9.6725 10.4484L8.76583 11.3101ZM7.48833 2.89756C6.64333 1.70256 4.95333 1.50006 3.93167 2.57673L4.83667 3.43756C5.2725 2.97923 6.04083 3.01506 6.4675 3.61923L7.48833 2.89756ZM3.12667 5.7709C3.10833 5.43756 3.25417 5.10506 3.53083 4.81506L2.62417 3.95423C2.1775 4.42423 1.8375 5.07673 1.87833 5.8384L3.12667 5.7709ZM15.3808 16.4476C15.1483 16.6926 14.9058 16.8234 14.6692 16.8467L14.7917 18.0909C15.4142 18.0301 15.9183 17.6976 16.2875 17.3084L15.3808 16.4476ZM8.35083 7.51673C9.1575 6.66756 9.21417 5.33923 8.53917 4.3834L7.51833 5.10506C7.87 5.60256 7.81583 6.26506 7.445 6.65506L8.35083 7.51673ZM16.2575 13.3017C16.9417 13.6959 17.0758 14.6642 16.565 15.2017L17.4708 16.0626C18.5583 14.9176 18.2417 13.0009 16.8817 12.2176L16.2575 13.3017ZM13.4167 12.5534C13.7375 12.2151 14.2383 12.1392 14.6658 12.3851L15.2892 11.3017C14.3733 10.7751 13.2392 10.9267 12.51 11.6934L13.4167 12.5534Z" fill="#FF0404"/>
</svg>
