<svg width="24" height="25" viewBox="0 0 24 25" fill="none" xmlns="http://www.w3.org/2000/svg">
<path fill-rule="evenodd" clip-rule="evenodd" d="M16.475 4.87525L19.647 8.05125C20.655 9.05925 21.471 9.87625 21.997 10.5863C22.538 11.3163 22.888 12.0863 22.698 12.9633C22.508 13.8423 21.872 14.3973 21.078 14.8383C20.305 15.2673 19.224 15.6733 17.891 16.1743L15.914 16.9173C15.119 17.2153 14.903 17.3083 14.742 17.4473C14.662 17.5179 14.59 17.5969 14.526 17.6843C14.402 17.8573 14.329 18.0812 14.104 18.9002L14.091 18.9452C13.863 19.7762 13.674 20.4622 13.467 20.9772C13.257 21.5002 12.974 21.9952 12.465 22.2862C12.1116 22.4877 11.7118 22.5935 11.305 22.5933C10.718 22.5933 10.227 22.3013 9.786 21.9513C9.352 21.6052 8.85 21.1012 8.241 20.4912L6.653 18.9032L2.531 23.0303C2.39043 23.1711 2.19968 23.2503 2.0007 23.2505C1.80173 23.2507 1.61083 23.1718 1.47 23.0312C1.32917 22.8907 1.24994 22.6999 1.24976 22.501C1.24957 22.302 1.32843 22.1111 1.469 21.9702L5.593 17.8422L4.058 16.3053C3.453 15.7003 2.954 15.2003 2.61 14.7683C2.261 14.3303 1.972 13.8423 1.968 13.2603C1.96573 12.8455 2.07375 12.4375 2.281 12.0783C2.571 11.5733 3.063 11.2923 3.583 11.0833C4.095 10.8783 4.776 10.6903 5.601 10.4633L5.646 10.4503C6.466 10.2243 6.691 10.1503 6.863 10.0263C6.953 9.96158 7.03366 9.88758 7.105 9.80425C7.243 9.64125 7.335 9.42425 7.628 8.62425L8.344 6.66825C8.839 5.31925 9.239 4.22625 9.664 3.44625C10.101 2.64325 10.654 1.99825 11.536 1.80425C12.418 1.60925 13.191 1.96225 13.925 2.50625C14.637 3.03625 15.46 3.85925 16.475 4.87525ZM13.03 3.71025C12.428 3.26225 12.109 3.21225 11.859 3.26725C11.609 3.32225 11.34 3.50225 10.981 4.16225C10.616 4.83225 10.252 5.82025 9.731 7.24325L9.036 9.14025L8.996 9.24825C8.763 9.88825 8.582 10.3843 8.246 10.7773C8.09666 10.9533 7.928 11.1089 7.74 11.2443C7.32 11.5463 6.813 11.6853 6.155 11.8663L6.045 11.8963C5.163 12.1393 4.565 12.3063 4.142 12.4763C3.717 12.6463 3.615 12.7663 3.58 12.8263C3.50578 12.9552 3.46713 13.1015 3.468 13.2503C3.468 13.3203 3.498 13.4753 3.784 13.8343C4.068 14.1913 4.506 14.6313 5.152 15.2783L9.269 19.3983C9.919 20.0503 10.362 20.4912 10.721 20.7782C11.081 21.0642 11.237 21.0933 11.306 21.0933C11.4519 21.0938 11.5954 21.0558 11.722 20.9832C11.782 20.9492 11.903 20.8472 12.075 20.4193C12.247 19.9913 12.413 19.3892 12.657 18.5023L12.687 18.3923C12.867 17.7353 13.007 17.2283 13.307 16.8093C13.4383 16.6266 13.5893 16.4613 13.76 16.3133C14.15 15.9763 14.642 15.7913 15.279 15.5533L15.386 15.5133L17.303 14.7933C18.711 14.2633 19.686 13.8953 20.349 13.5273C21 13.1663 21.178 12.8973 21.232 12.6473C21.286 12.3963 21.235 12.0773 20.792 11.4793C20.34 10.8693 19.605 10.1302 18.541 9.06625L15.459 5.98025C14.388 4.90825 13.643 4.16625 13.03 3.71025Z" fill="#868686"/>
</svg>
