<svg width="33" height="34" viewBox="0 0 33 34" fill="none" xmlns="http://www.w3.org/2000/svg">
<g clip-path="url(#clip0_905_1388)">
<path d="M32.7892 7.62708C32.7189 7.18096 32.5148 6.76673 32.2037 6.43931C31.8927 6.11189 31.4894 5.88675 31.0475 5.79375L25.6667 4.61125C25.0896 4.4854 24.4923 4.48493 23.9151 4.60986C23.3379 4.7348 22.7942 4.98222 22.3208 5.33541L6.41667 16.9221L1.96167 16.7387C1.60354 16.7259 1.25048 16.8263 0.95263 17.0255C0.654779 17.2248 0.427285 17.5128 0.302459 17.8488C0.177633 18.1847 0.161822 18.5514 0.257271 18.8968C0.35272 19.2422 0.554577 19.5488 0.834171 19.7729L5.4175 23.3754C5.9675 24.0446 6.33417 23.9162 15.4367 18.9571L16.2892 27.5921C16.3034 27.8276 16.3841 28.0543 16.522 28.2458C16.66 28.4373 16.8494 28.5857 17.0683 28.6737C17.2259 28.736 17.394 28.7671 17.5633 28.7654C17.9043 28.755 18.2299 28.6215 18.48 28.3896L20.6708 26.3912C20.889 26.1891 21.0367 25.9225 21.0925 25.6304L23.1 14.7221C26.3725 12.8887 29.4708 11.1654 31.68 9.90958C32.0752 9.68726 32.3932 9.3496 32.5914 8.94173C32.7896 8.53386 32.8586 8.07521 32.7892 7.62708ZM30.7725 8.31458C28.4808 9.61625 25.2725 11.4404 21.8258 13.3287L21.45 13.5396L19.3142 25.1537L17.9667 26.3821L16.9583 16.0237L15.7392 16.6471C9.16667 20.3137 6.97584 21.3771 6.22417 21.7071L2.2825 18.5812L6.93917 18.7829L23.4392 6.81125C23.6985 6.61735 23.9959 6.48038 24.3118 6.4093C24.6277 6.33822 24.9551 6.33462 25.2725 6.39875L30.635 7.55375C30.7176 7.56873 30.7933 7.60971 30.851 7.67072C30.9088 7.73173 30.9455 7.80958 30.9558 7.89291C30.9747 7.97357 30.9671 8.05816 30.934 8.13412C30.901 8.21008 30.8444 8.27337 30.7725 8.31458Z" fill="white"/>
<path d="M6.41669 11.6421L9.68002 12.5587L11.1834 11.4679L7.51669 10.4046L9.16669 9.39625L14.1809 9.24958L16.2892 7.71875L9.16669 7.93875C8.94214 7.9266 8.71899 7.9808 8.52502 8.09458L6.11419 9.49708C5.91488 9.61516 5.75497 9.78959 5.65464 9.99839C5.55431 10.2072 5.51803 10.441 5.55038 10.6704C5.58273 10.8998 5.68226 11.1145 5.83642 11.2874C5.99059 11.4603 6.1925 11.5837 6.41669 11.6421Z" fill="white"/>
</g>
<defs>
<clipPath id="clip0_905_1388">
<rect width="33" height="33" fill="white" transform="translate(0 0.147095)"/>
</clipPath>
</defs>
</svg>
