<svg width="19" height="19" viewBox="0 0 19 19" fill="none" xmlns="http://www.w3.org/2000/svg">
<path d="M17.8125 9.50037C17.813 9.70197 17.7613 9.90026 17.6625 10.076C17.5636 10.2517 17.421 10.3988 17.2484 10.5031L6.555 17.0447C6.37471 17.1551 6.16822 17.2154 5.95685 17.2193C5.74549 17.2232 5.53691 17.1706 5.35266 17.067C5.17016 16.9649 5.01813 16.8161 4.91222 16.6359C4.8063 16.4556 4.7503 16.2504 4.75 16.0413V2.95947C4.7503 2.75039 4.8063 2.54516 4.91222 2.36488C5.01813 2.18461 5.17016 2.03581 5.35266 1.93377C5.53691 1.83012 5.74549 1.77754 5.95685 1.78145C6.16822 1.78537 6.37471 1.84564 6.555 1.95603L17.2484 8.49767C17.421 8.60193 17.5636 8.74907 17.6625 8.92477C17.7613 9.10048 17.813 9.29877 17.8125 9.50037Z" fill="white"/>
</svg>
