<svg width="20" height="19" viewBox="0 0 20 19" fill="none" xmlns="http://www.w3.org/2000/svg">
<path d="M10 4.75C10.1575 4.75 10.3085 4.81256 10.4198 4.92391C10.5312 5.03526 10.5938 5.18628 10.5938 5.34375V8.90625H14.1562C14.3137 8.90625 14.4647 8.96881 14.5761 9.08016C14.6874 9.1915 14.75 9.34253 14.75 9.5C14.75 9.65747 14.6874 9.8085 14.5761 9.91985C14.4647 10.0312 14.3137 10.0938 14.1562 10.0938H10.5938V13.6562C10.5938 13.8137 10.5312 13.9647 10.4198 14.0761C10.3085 14.1874 10.1575 14.25 10 14.25C9.84253 14.25 9.6915 14.1874 9.58016 14.0761C9.46881 13.9647 9.40625 13.8137 9.40625 13.6562V10.0938H5.84375C5.68628 10.0938 5.53526 10.0312 5.42391 9.91985C5.31256 9.8085 5.25 9.65747 5.25 9.5C5.25 9.34253 5.31256 9.1915 5.42391 9.08016C5.53526 8.96881 5.68628 8.90625 5.84375 8.90625H9.40625V5.34375C9.40625 5.18628 9.46881 5.03526 9.58016 4.92391C9.6915 4.81256 9.84253 4.75 10 4.75Z" fill="white"/>
</svg>
