<svg width="22" height="6" viewBox="0 0 22 6" fill="none" xmlns="http://www.w3.org/2000/svg">
<path d="M3.125 0.75C2.78028 0.75 2.43894 0.817897 2.12046 0.949816C1.80198 1.08173 1.5126 1.27509 1.26884 1.51884C1.02509 1.7626 0.831735 2.05198 0.699816 2.37046C0.567898 2.68894 0.5 3.03028 0.5 3.375C0.5 3.71972 0.567898 4.06106 0.699816 4.37954C0.831735 4.69802 1.02509 4.9874 1.26884 5.23116C1.5126 5.47491 1.80198 5.66826 2.12046 5.80018C2.43894 5.9321 2.78028 6 3.125 6C3.82119 6 4.48887 5.72344 4.98116 5.23116C5.47344 4.73887 5.75 4.07119 5.75 3.375C5.75 2.67881 5.47344 2.01113 4.98116 1.51884C4.48887 1.02656 3.82119 0.75 3.125 0.75ZM3.125 2.25C3.42337 2.25 3.70952 2.36853 3.9205 2.5795C4.13147 2.79048 4.25 3.07663 4.25 3.375C4.25 3.67337 4.13147 3.95952 3.9205 4.17049C3.70952 4.38147 3.42337 4.5 3.125 4.5C2.82663 4.5 2.54048 4.38147 2.3295 4.17049C2.11853 3.95952 2 3.67337 2 3.375C2 3.07663 2.11853 2.79048 2.3295 2.5795C2.54048 2.36853 2.82663 2.25 3.125 2.25ZM11 0.75C11.3447 0.75 11.6861 0.817897 12.0045 0.949816C12.323 1.08173 12.6124 1.27509 12.8562 1.51884C13.0999 1.7626 13.2933 2.05198 13.4252 2.37046C13.5571 2.68894 13.625 3.03028 13.625 3.375C13.625 3.71972 13.5571 4.06106 13.4252 4.37954C13.2933 4.69802 13.0999 4.9874 12.8562 5.23116C12.6124 5.47491 12.323 5.66826 12.0045 5.80018C11.6861 5.9321 11.3447 6 11 6C10.3038 6 9.63613 5.72344 9.14384 5.23116C8.65156 4.73887 8.375 4.07119 8.375 3.375C8.375 2.67881 8.65156 2.01113 9.14384 1.51884C9.63613 1.02656 10.3038 0.75 11 0.75ZM11 2.25C10.7016 2.25 10.4155 2.36853 10.2045 2.5795C9.99353 2.79048 9.875 3.07663 9.875 3.375C9.875 3.67337 9.99353 3.95952 10.2045 4.17049C10.4155 4.38147 10.7016 4.5 11 4.5C11.2984 4.5 11.5845 4.38147 11.7955 4.17049C12.0065 3.95952 12.125 3.67337 12.125 3.375C12.125 3.07663 12.0065 2.79048 11.7955 2.5795C11.5845 2.36853 11.2984 2.25 11 2.25ZM18.875 0.75C19.2197 0.75 19.5611 0.817897 19.8795 0.949816C20.198 1.08173 20.4874 1.27509 20.7312 1.51884C20.9749 1.7626 21.1683 2.05198 21.3002 2.37046C21.4321 2.68894 21.5 3.03028 21.5 3.375C21.5 3.71972 21.4321 4.06106 21.3002 4.37954C21.1683 4.69802 20.9749 4.9874 20.7312 5.23116C20.4874 5.47491 20.198 5.66826 19.8795 5.80018C19.5611 5.9321 19.2197 6 18.875 6C18.1788 6 17.5111 5.72344 17.0188 5.23116C16.5266 4.73887 16.25 4.07119 16.25 3.375C16.25 2.67881 16.5266 2.01113 17.0188 1.51884C17.5111 1.02656 18.1788 0.75 18.875 0.75ZM18.875 2.25C18.5766 2.25 18.2905 2.36853 18.0795 2.5795C17.8685 2.79048 17.75 3.07663 17.75 3.375C17.75 3.67337 17.8685 3.95952 18.0795 4.17049C18.2905 4.38147 18.5766 4.5 18.875 4.5C19.1734 4.5 19.4595 4.38147 19.6705 4.17049C19.8815 3.95952 20 3.67337 20 3.375C20 3.07663 19.8815 2.79048 19.6705 2.5795C19.4595 2.36853 19.1734 2.25 18.875 2.25Z" fill="black"/>
</svg>
