<svg width="16" height="15" viewBox="0 0 16 15" fill="none" xmlns="http://www.w3.org/2000/svg">
<path d="M7.99925 13.9998H14.7493M11.2812 1.7163C11.5798 1.41773 11.9848 1.25 12.407 1.25C12.8292 1.25 13.2342 1.41773 13.5328 1.7163C13.8313 2.01487 13.9991 2.41981 13.9991 2.84205C13.9991 3.26429 13.8313 3.66923 13.5328 3.9678L4.52525 12.9761C4.34682 13.1545 4.12627 13.285 3.884 13.3556L1.73 13.9841C1.66546 14.0029 1.59705 14.004 1.53193 13.9873C1.46681 13.9706 1.40737 13.9368 1.35984 13.8892C1.3123 13.8417 1.27842 13.7822 1.26173 13.7171C1.24505 13.652 1.24618 13.5836 1.265 13.5191L1.8935 11.3651C1.96417 11.1231 2.09469 10.9028 2.273 10.7246L11.2812 1.7163Z" stroke="#A4A4A4" stroke-linecap="round" stroke-linejoin="round"/>
</svg>
