<svg width="25" height="24" viewBox="0 0 25 24" fill="none" xmlns="http://www.w3.org/2000/svg">
<g id="mdi:location-radius-outline">
<path id="Vector" d="M12.5 4C14.7 4 16.5 5.8 16.5 8C16.5 10.1 14.4 13.5 12.5 15.9C10.6 13.4 8.5 10.1 8.5 8C8.5 5.8 10.3 4 12.5 4ZM12.5 2C9.2 2 6.5 4.7 6.5 8C6.5 12.5 12.5 19 12.5 19C12.5 19 18.5 12.4 18.5 8C18.5 4.7 15.8 2 12.5 2ZM12.5 6C11.4 6 10.5 6.9 10.5 8C10.5 9.1 11.4 10 12.5 10C13.6 10 14.5 9.1 14.5 8C14.5 6.9 13.6 6 12.5 6ZM20.5 19C20.5 21.2 16.9 23 12.5 23C8.1 23 4.5 21.2 4.5 19C4.5 17.7 5.7 16.6 7.6 15.8L8.2 16.7C7.2 17.2 6.5 17.8 6.5 18.5C6.5 19.9 9.2 21 12.5 21C15.8 21 18.5 19.9 18.5 18.5C18.5 17.8 17.8 17.2 16.7 16.7L17.3 15.8C19.3 16.6 20.5 17.7 20.5 19Z" fill="white"/>
</g>
</svg>
