<svg width="24" height="25" viewBox="0 0 24 25" fill="none" xmlns="http://www.w3.org/2000/svg">
<path d="M9.89699 8.01968C9.93013 8.0051 9.96639 7.99907 10.0025 8.00217C10.0385 8.00526 10.0733 8.01737 10.1034 8.03738C10.1336 8.05739 10.1582 8.08467 10.1751 8.1167C10.192 8.14873 10.2005 8.18448 10.2 8.22068V9.95018C10.2 10.1491 10.279 10.3399 10.4197 10.4805C10.5603 10.6212 10.7511 10.7002 10.95 10.7002C11.9505 10.7002 13.9695 10.7077 15.9 11.9332C17.376 12.8692 18.885 14.5732 19.7925 17.7472C18.2625 16.2727 16.515 15.4732 14.985 15.0487C14.0447 14.7884 13.0781 14.6345 12.1035 14.5897C11.7046 14.5709 11.3049 14.5749 10.9065 14.6017H10.887L10.8795 14.6032L10.95 15.3502L10.875 14.6032C10.6899 14.6218 10.5183 14.7085 10.3935 14.8466C10.2688 14.9846 10.1998 15.1641 10.2 15.3502V17.0797C10.2 17.2417 10.035 17.3437 9.89699 17.2807L3.92099 12.8812L3.85799 12.8392C3.82538 12.8196 3.79839 12.7919 3.77965 12.7588C3.76091 12.7256 3.75107 12.6882 3.75107 12.6502C3.75107 12.6121 3.76091 12.5747 3.77965 12.5416C3.79839 12.5085 3.82538 12.4808 3.85799 12.4612L3.92099 12.4192L9.89699 8.01968ZM11.7 16.0792C11.803 16.0792 11.9145 16.0822 12.0345 16.0882C12.6855 16.1182 13.5855 16.2172 14.5845 16.4947C16.5735 17.0467 18.9285 18.2977 20.4945 21.1147C20.5792 21.2667 20.7141 21.3846 20.8762 21.4481C21.0382 21.5116 21.2173 21.5167 21.3828 21.4626C21.5482 21.4086 21.6897 21.2986 21.7829 21.1517C21.8762 21.0047 21.9155 20.8299 21.894 20.6572C21.198 15.0922 19.065 12.1642 16.704 10.6672C14.8365 9.48218 12.9135 9.25418 11.7 9.21068V8.22068C11.7001 7.91179 11.6169 7.60858 11.459 7.34305C11.3012 7.07753 11.0746 6.85953 10.8032 6.71207C10.5318 6.56461 10.2256 6.49314 9.9169 6.50522C9.60824 6.51729 9.30857 6.61246 9.04949 6.78068L3.05849 11.1907C2.81081 11.3453 2.60655 11.5604 2.46494 11.8157C2.32333 12.071 2.24902 12.3582 2.24902 12.6502C2.24902 12.9422 2.32333 13.2293 2.46494 13.4847C2.60655 13.74 2.81081 13.9551 3.05849 14.1097L9.04949 18.5197C9.30857 18.6879 9.60824 18.7831 9.9169 18.7951C10.2256 18.8072 10.5318 18.7358 10.8032 18.5883C11.0746 18.4408 11.3012 18.2228 11.459 17.9573C11.6169 17.6918 11.7001 17.3886 11.7 17.0797V16.0792Z" fill="#868686"/>
</svg>
