<svg width="29" height="22" viewBox="0 0 29 22" fill="none" xmlns="http://www.w3.org/2000/svg">
<path d="M11.0221 2.65272C11.0691 2.63206 11.1204 2.62352 11.1715 2.62791C11.2226 2.63229 11.2718 2.64944 11.3146 2.67779C11.3573 2.70614 11.3922 2.74478 11.4161 2.79016C11.44 2.83553 11.4522 2.88619 11.4514 2.93747V5.3876C11.4514 5.66939 11.5633 5.93964 11.7626 6.1389C11.9618 6.33815 12.2321 6.4501 12.5139 6.4501C13.9312 6.4501 16.7915 6.46072 19.5264 8.19685C21.6174 9.52285 23.7551 11.9368 25.0407 16.4333C22.8732 14.3445 20.3976 13.2118 18.2301 12.6105C16.898 12.2418 15.5287 12.0237 14.148 11.9602C13.5829 11.9336 13.0167 11.9393 12.4522 11.9772H12.4246L12.414 11.9793L12.5139 13.0376L12.4076 11.9793C12.1454 12.0057 11.9023 12.1286 11.7255 12.3242C11.5488 12.5197 11.4511 12.774 11.4514 13.0376V15.4877C11.4514 15.7172 11.2176 15.8617 11.0221 15.7725L2.55612 9.53985L2.46687 9.48035C2.42067 9.45258 2.38243 9.41333 2.35589 9.36641C2.32934 9.31949 2.31539 9.2665 2.31539 9.2126C2.31539 9.15869 2.32934 9.1057 2.35589 9.05878C2.38243 9.01186 2.42067 8.97261 2.46687 8.94485L2.55612 8.88535L11.0221 2.65272ZM13.5764 14.0703C13.7223 14.0703 13.8802 14.0746 14.0502 14.0831C14.9725 14.1256 16.2475 14.2658 17.6627 14.659C20.4805 15.441 23.8167 17.2132 26.0352 21.204C26.1552 21.4194 26.3464 21.5864 26.576 21.6763C26.8055 21.7662 27.0593 21.7735 27.2936 21.6969C27.528 21.6203 27.7284 21.4646 27.8606 21.2564C27.9927 21.0482 28.0483 20.8005 28.0179 20.5558C27.0319 12.6721 24.0101 8.5241 20.6654 6.40335C18.0197 4.7246 15.2955 4.4016 13.5764 4.33997V2.93747C13.5766 2.49987 13.4586 2.07032 13.235 1.69416C13.0114 1.318 12.6904 1.00918 12.3059 0.80027C11.9214 0.591363 11.4876 0.490122 11.0503 0.50723C10.6131 0.524338 10.1885 0.65916 9.8215 0.897471L1.33425 7.14497C0.983366 7.36399 0.693996 7.66871 0.49338 8.03043C0.292763 8.39215 0.1875 8.79897 0.1875 9.2126C0.1875 9.62622 0.292763 10.033 0.49338 10.3948C0.693996 10.7565 0.983366 11.0612 1.33425 11.2802L9.8215 17.5277C10.1885 17.766 10.6131 17.9009 11.0503 17.918C11.4876 17.9351 11.9214 17.8338 12.3059 17.6249C12.6904 17.416 13.0114 17.1072 13.235 16.731C13.4586 16.3549 13.5766 15.9253 13.5764 15.4877V14.0703Z" fill="#18C234"/>
</svg>
