<svg width="25" height="25" viewBox="0 0 25 25" fill="none" xmlns="http://www.w3.org/2000/svg">
<g clip-path="url(#clip0_899_1202)">
<path d="M11.5421 3.86667C12.9862 3.86535 14.3982 4.29236 15.5996 5.0937C16.8009 5.89503 17.7376 7.03467 18.2912 8.36846C18.8447 9.70224 18.9902 11.1702 18.7093 12.5867C18.4284 14.0032 17.7337 15.3046 16.713 16.3262C15.6923 17.3478 14.3916 18.0437 12.9754 18.3259C11.5591 18.6081 10.091 18.4639 8.75672 17.9116C7.42243 17.3593 6.28193 16.4236 5.4795 15.223C4.67707 14.0224 4.24876 12.6108 4.24876 11.1667C4.25752 9.23444 5.02852 7.38374 6.3942 6.01681C7.75989 4.64988 9.60988 3.87719 11.5421 3.86667ZM11.5421 2.5C9.82799 2.5 8.15238 3.00829 6.72716 3.9606C5.30193 4.9129 4.1911 6.26645 3.53514 7.85008C2.87918 9.4337 2.70755 11.1763 3.04196 12.8575C3.37636 14.5386 4.20178 16.0829 5.41384 17.2949C6.62589 18.507 8.17015 19.3324 9.85132 19.6668C11.5325 20.0012 13.2751 19.8296 14.8587 19.1736C16.4423 18.5177 17.7959 17.4068 18.7482 15.9816C19.7005 14.5564 20.2088 12.8808 20.2088 11.1667C20.2088 8.86812 19.2957 6.66372 17.6704 5.03841C16.045 3.41309 13.8406 2.5 11.5421 2.5Z" fill="white"/>
<path d="M23.9888 22.6933L19.0755 17.7467L18.1288 18.6867L23.0421 23.6333C23.1038 23.6955 23.1772 23.7449 23.258 23.7787C23.3388 23.8125 23.4255 23.8301 23.5131 23.8304C23.6007 23.8307 23.6875 23.8137 23.7685 23.7805C23.8496 23.7473 23.9233 23.6984 23.9855 23.6367C24.0476 23.5749 24.097 23.5016 24.1308 23.4208C24.1646 23.34 24.1822 23.2533 24.1825 23.1657C24.1828 23.0781 24.1659 22.9913 24.1326 22.9102C24.0994 22.8292 24.0505 22.7555 23.9888 22.6933Z" fill="white"/>
</g>
<defs>
<clipPath id="clip0_899_1202">
<rect width="24" height="24" fill="white" transform="translate(0.655457 0.5)"/>
</clipPath>
</defs>
</svg>
