<svg width="17" height="18" viewBox="0 0 17 18" fill="none" xmlns="http://www.w3.org/2000/svg">
<path d="M16.3752 16.8752L12.5751 13.0751M12.5751 13.0751C13.2251 12.425 13.7407 11.6533 14.0925 10.804C14.4443 9.95473 14.6254 9.04446 14.6254 8.12518C14.6254 7.2059 14.4443 6.29563 14.0925 5.44633C13.7407 4.59703 13.2251 3.82533 12.5751 3.17531C11.925 2.52528 11.1533 2.00965 10.304 1.65786C9.45473 1.30607 8.54446 1.125 7.62518 1.125C6.7059 1.125 5.79563 1.30607 4.94633 1.65786C4.09703 2.00965 3.32533 2.52528 2.67531 3.17531C1.36252 4.48809 0.625 6.26862 0.625 8.12518C0.625 9.98174 1.36252 11.7623 2.67531 13.0751C3.98809 14.3878 5.76862 15.1254 7.62518 15.1254C9.48174 15.1254 11.2623 14.3878 12.5751 13.0751Z" stroke="#A4A4A4" stroke-linecap="round" stroke-linejoin="round"/>
</svg>
