<svg width="28" height="28" viewBox="0 0 28 28" fill="none" xmlns="http://www.w3.org/2000/svg">
<path d="M24.9969 12.9441L5.16355 3.61078C4.96384 3.51681 4.74156 3.48142 4.52254 3.50871C4.30351 3.53601 4.09673 3.62488 3.92619 3.765C3.75565 3.90512 3.62836 4.09074 3.55909 4.30031C3.48983 4.50988 3.48144 4.7348 3.53489 4.94895L4.94889 10.6061L13.9999 14L4.94889 17.3938L3.53489 23.051C3.48043 23.2653 3.48812 23.4906 3.55707 23.7007C3.62601 23.9108 3.75335 24.0969 3.9242 24.2373C4.09504 24.3777 4.30233 24.4665 4.52181 24.4934C4.74128 24.5203 4.96388 24.4841 5.16355 24.3891L24.9969 15.0558C25.1973 14.9616 25.3668 14.8123 25.4855 14.6253C25.6042 14.4383 25.6672 14.2214 25.6672 14C25.6672 13.7785 25.6042 13.5616 25.4855 13.3746C25.3668 13.1877 25.1973 13.0383 24.9969 12.9441Z" fill="#104883"/>
</svg>
