<svg width="25" height="24" viewBox="0 0 25 24" fill="none" xmlns="http://www.w3.org/2000/svg">
<path d="M20.3999 12.6599C20.2396 12.4774 20.1512 12.2428 20.1512 11.9999C20.1512 11.757 20.2396 11.5224 20.3999 11.3399L21.6799 9.89989C21.8209 9.74256 21.9085 9.5446 21.9301 9.3344C21.9516 9.12421 21.9061 8.91258 21.7999 8.72989L19.7999 5.2699C19.6948 5.08742 19.5348 4.94277 19.3426 4.85658C19.1505 4.77039 18.9361 4.74705 18.7299 4.7899L16.8499 5.1699C16.6107 5.21932 16.3616 5.17948 16.1498 5.0579C15.9379 4.93631 15.7779 4.74138 15.6999 4.5099L15.0899 2.6799C15.0228 2.48127 14.895 2.30876 14.7245 2.18674C14.5541 2.06471 14.3495 1.99935 14.1399 1.9999H10.1399C9.92183 1.98851 9.70603 2.04882 9.52546 2.17161C9.34489 2.2944 9.20948 2.47291 9.1399 2.6799L8.5799 4.5099C8.5019 4.74138 8.34187 4.93631 8.13001 5.0579C7.91815 5.17948 7.66911 5.21932 7.4299 5.1699L5.4999 4.7899C5.30445 4.76228 5.1052 4.79312 4.92724 4.87853C4.74929 4.96395 4.6006 5.10012 4.4999 5.2699L2.4999 8.72989C2.39106 8.91054 2.34212 9.12098 2.36008 9.33112C2.37804 9.54126 2.46198 9.74034 2.5999 9.89989L3.8699 11.3399C4.03022 11.5224 4.11863 11.757 4.11863 11.9999C4.11863 12.2428 4.03022 12.4774 3.8699 12.6599L2.5999 14.0999C2.46198 14.2595 2.37804 14.4585 2.36008 14.6687C2.34212 14.8788 2.39106 15.0892 2.4999 15.2699L4.4999 18.7299C4.60499 18.9124 4.76502 19.057 4.95715 19.1432C5.14928 19.2294 5.36372 19.2527 5.5699 19.2099L7.4499 18.8299C7.68911 18.7805 7.93815 18.8203 8.15001 18.9419C8.36187 19.0635 8.5219 19.2584 8.5999 19.4899L9.2099 21.3199C9.27948 21.5269 9.41489 21.7054 9.59546 21.8282C9.77603 21.951 9.99183 22.0113 10.2099 21.9999H14.2099C14.4195 22.0004 14.6241 21.9351 14.7945 21.8131C14.965 21.691 15.0928 21.5185 15.1599 21.3199L15.7699 19.4899C15.8479 19.2584 16.0079 19.0635 16.2198 18.9419C16.4316 18.8203 16.6807 18.7805 16.9199 18.8299L18.7999 19.2099C19.0061 19.2527 19.2205 19.2294 19.4126 19.1432C19.6048 19.057 19.7648 18.9124 19.8699 18.7299L21.8699 15.2699C21.9761 15.0872 22.0216 14.8756 22.0001 14.6654C21.9785 14.4552 21.8909 14.2572 21.7499 14.0999L20.3999 12.6599ZM18.9099 13.9999L19.7099 14.8999L18.4299 17.1199L17.2499 16.8799C16.5297 16.7327 15.7805 16.855 15.1445 17.2237C14.5085 17.5924 14.03 18.1817 13.7999 18.8799L13.4199 19.9999H10.8599L10.4999 18.8599C10.2698 18.1617 9.79128 17.5724 9.1553 17.2037C8.51932 16.835 7.77012 16.7127 7.0499 16.8599L5.8699 17.0999L4.5699 14.8899L5.3699 13.9899C5.86185 13.4399 6.13383 12.7278 6.13383 11.9899C6.13383 11.252 5.86185 10.5399 5.3699 9.98989L4.5699 9.0899L5.8499 6.88989L7.0299 7.1299C7.75012 7.27712 8.49932 7.15478 9.1353 6.78609C9.77128 6.41741 10.2498 5.82805 10.4799 5.1299L10.8599 3.9999H13.4199L13.7999 5.13989C14.03 5.83805 14.5085 6.42741 15.1445 6.79609C15.7805 7.16478 16.5297 7.28712 17.2499 7.13989L18.4299 6.8999L19.7099 9.11989L18.9099 10.0199C18.4235 10.5687 18.1549 11.2766 18.1549 12.0099C18.1549 12.7432 18.4235 13.4511 18.9099 13.9999ZM12.1399 7.9999C11.3488 7.9999 10.5754 8.23449 9.91761 8.67402C9.25982 9.11354 8.74713 9.73826 8.44438 10.4692C8.14163 11.2001 8.06241 12.0043 8.21675 12.7803C8.3711 13.5562 8.75206 14.2689 9.31147 14.8283C9.87088 15.3877 10.5836 15.7687 11.3595 15.923C12.1355 16.0774 12.9397 15.9982 13.6706 15.6954C14.4015 15.3927 15.0262 14.88 15.4658 14.2222C15.9053 13.5644 16.1399 12.791 16.1399 11.9999C16.1399 10.939 15.7185 9.92161 14.9683 9.17147C14.2182 8.42132 13.2008 7.9999 12.1399 7.9999ZM12.1399 13.9999C11.7443 13.9999 11.3577 13.8826 11.0288 13.6628C10.6999 13.4431 10.4435 13.1307 10.2921 12.7653C10.1408 12.3998 10.1012 11.9977 10.1783 11.6097C10.2555 11.2218 10.446 10.8654 10.7257 10.5857C11.0054 10.306 11.3618 10.1155 11.7497 10.0383C12.1377 9.96115 12.5398 10.0008 12.9053 10.1521C13.2707 10.3035 13.5831 10.5599 13.8028 10.8888C14.0226 11.2177 14.1399 11.6043 14.1399 11.9999C14.1399 12.5303 13.9292 13.039 13.5541 13.4141C13.179 13.7892 12.6703 13.9999 12.1399 13.9999Z" fill="white"/>
</svg>
