<svg width="19" height="19" viewBox="0 0 19 19" fill="none" xmlns="http://www.w3.org/2000/svg">
<path d="M11.9865 4.75L16.3549 8.66875C16.44 8.74663 16.5079 8.84136 16.5544 8.94692C16.6009 9.05248 16.6249 9.16656 16.6249 9.2819C16.6249 9.39723 16.6009 9.51131 16.5544 9.61687C16.5079 9.72243 16.44 9.81716 16.3549 9.89504L11.9121 13.923M7.04018 11.3786V12.6572C7.02595 12.8032 7.05472 12.9501 7.12295 13.08C7.19118 13.2098 7.2959 13.3169 7.42421 13.388C7.55251 13.4591 7.69881 13.4911 7.84509 13.4801C7.99137 13.4691 8.13124 13.4156 8.24748 13.3261L12.2913 9.96075C12.3834 9.87904 12.4572 9.77872 12.5077 9.66641C12.5582 9.5541 12.5844 9.43236 12.5844 9.30921C12.5844 9.18606 12.5582 9.06431 12.5077 8.952C12.4572 8.83969 12.3834 8.73937 12.2913 8.65767L8.24748 5.29229C8.13118 5.20275 7.99123 5.14919 7.84487 5.13821C7.69851 5.12723 7.55214 5.15932 7.42379 5.23052C7.29545 5.30173 7.19074 5.40892 7.12258 5.53891C7.05441 5.66889 7.02577 5.81598 7.04018 5.96204V7.30787C4.41818 7.30787 2.29018 9.66625 2.29018 12.5756V13.6278C2.272 13.7618 2.30349 13.8979 2.37872 14.0103C2.45394 14.1228 2.5677 14.2038 2.69855 14.2382C2.8294 14.2726 2.9683 14.2579 3.08907 14.1969C3.20985 14.1359 3.30414 14.0329 3.35418 13.9072C3.65743 13.1747 4.1669 12.546 4.82069 12.0975C5.47447 11.6491 6.24444 11.4001 7.03702 11.381L7.04018 11.3786Z" stroke="white" stroke-linecap="round" stroke-linejoin="round"/>
</svg>
