<svg width="18" height="17" viewBox="0 0 18 17" fill="none" xmlns="http://www.w3.org/2000/svg">
<path d="M8.04894 1.05205C8.3483 0.130738 9.6517 0.13074 9.95106 1.05205L11.2451 5.03483C11.379 5.44685 11.763 5.72581 12.1962 5.72581H16.3839C17.3527 5.72581 17.7554 6.96543 16.9717 7.53483L13.5838 9.99632C13.2333 10.251 13.0866 10.7023 13.2205 11.1144L14.5146 15.0971C14.8139 16.0184 13.7595 16.7846 12.9757 16.2152L9.58778 13.7537C9.2373 13.499 8.7627 13.499 8.41221 13.7537L5.02426 16.2152C4.24054 16.7846 3.18607 16.0184 3.48542 15.0971L4.7795 11.1144C4.91338 10.7023 4.76672 10.251 4.41623 9.99632L1.02827 7.53483C0.244561 6.96543 0.647338 5.72581 1.61606 5.72581H5.8038C6.23703 5.72581 6.62099 5.44685 6.75486 5.03483L8.04894 1.05205Z" fill="#FFE000"/>
</svg>
