<svg width="24" height="24" viewBox="0 0 24 24" fill="none" xmlns="http://www.w3.org/2000/svg">
<path d="M16 10.5C16 11.328 15.552 12 15 12C14.448 12 14 11.328 14 10.5C14 9.672 14.448 9 15 9C15.552 9 16 9.672 16 10.5ZM10 10.5C10 11.328 9.552 12 9 12C8.448 12 8 11.328 8 10.5C8 9.672 8.448 9 9 9C9.552 9 10 9.672 10 10.5Z" fill="black"/>
<path fill-rule="evenodd" clip-rule="evenodd" d="M11.943 1.25H12.057C14.366 1.25 16.175 1.25 17.587 1.44C19.031 1.634 20.171 2.04 21.066 2.934C21.961 3.829 22.366 4.969 22.56 6.414C22.75 7.825 22.75 9.634 22.75 11.943V15C22.75 17.0554 21.9335 19.0267 20.4801 20.4801C19.0267 21.9335 17.0554 22.75 15 22.75H11.943C9.634 22.75 7.825 22.75 6.413 22.56C4.969 22.366 3.829 21.96 2.934 21.066C2.039 20.171 1.634 19.031 1.44 17.586C1.25 16.175 1.25 14.366 1.25 12.057V11.943C1.25 9.634 1.25 7.825 1.44 6.413C1.634 4.969 2.04 3.829 2.934 2.934C3.829 2.039 4.969 1.634 6.414 1.44C7.825 1.25 9.634 1.25 11.943 1.25ZM6.613 2.926C5.335 3.098 4.564 3.426 3.995 3.995C3.425 4.565 3.098 5.335 2.926 6.614C2.752 7.914 2.75 9.622 2.75 12C2.75 14.378 2.752 16.086 2.926 17.386C3.098 18.665 3.426 19.436 3.995 20.006C4.565 20.575 5.335 20.902 6.614 21.074C7.914 21.248 9.622 21.25 12 21.25H14.25C14.254 19.884 14.284 18.986 14.531 18.223C14.7039 17.6909 14.9535 17.187 15.272 16.727C14.3106 17.3925 13.1693 17.7493 12 17.75C10.7573 17.7488 9.54827 17.3461 8.553 16.602C8.47145 16.5443 8.40227 16.4708 8.3495 16.386C8.29674 16.3011 8.26146 16.2066 8.24574 16.1079C8.23002 16.0092 8.23417 15.9084 8.25796 15.8114C8.28174 15.7143 8.32468 15.623 8.38424 15.5428C8.44381 15.4626 8.51881 15.3951 8.60483 15.3442C8.69084 15.2934 8.78615 15.2603 8.88516 15.2468C8.98416 15.2333 9.08486 15.2397 9.18134 15.2657C9.27782 15.2916 9.36814 15.3366 9.447 15.398C10.175 15.938 11.054 16.25 12 16.25C12.946 16.25 13.825 15.937 14.553 15.398C14.6743 15.3081 14.82 15.2569 14.9709 15.2512C15.1218 15.2454 15.2709 15.2854 15.3987 15.3658C15.5265 15.4462 15.6271 15.5633 15.6873 15.7018C15.7475 15.8403 15.7645 15.9937 15.736 16.142C16.4101 15.3973 17.2676 14.8422 18.223 14.532C18.986 14.284 19.883 14.254 21.25 14.25V12C21.25 9.622 21.248 7.914 21.074 6.614C20.902 5.335 20.574 4.564 20.005 3.994C19.435 3.425 18.665 3.098 17.386 2.926C16.086 2.752 14.378 2.75 12 2.75C9.622 2.75 7.913 2.752 6.613 2.926ZM21.206 15.751C19.849 15.757 19.207 15.789 18.688 15.958C18.05 16.1652 17.4702 16.5206 16.9959 16.9949C16.5216 17.4692 16.1662 18.049 15.959 18.687C15.79 19.207 15.759 19.848 15.752 21.205C17.14 21.0365 18.4314 20.4077 19.4201 19.4191C20.4087 18.4304 21.0375 17.139 21.206 15.751Z" fill="black"/>
</svg>
