<svg width="21" height="22" viewBox="0 0 21 22" fill="none" xmlns="http://www.w3.org/2000/svg">
<path d="M15.7495 9.31226V5.37476L13.9033 6.30226C14.0278 6.81716 14.0337 7.35361 13.9208 7.87117C13.8078 8.38873 13.5788 8.87389 13.2511 9.29008C12.9233 9.70628 12.5054 10.0426 12.0288 10.2738C11.5521 10.505 11.0293 10.625 10.4995 10.6248C9.96977 10.625 9.44688 10.505 8.97025 10.2738C8.49362 10.0426 8.07568 9.70628 7.74795 9.29008C7.42022 8.87389 7.19124 8.38873 7.07826 7.87117C6.96529 7.35361 6.97127 6.81716 7.09576 6.30226L4.37451 4.93726L10.4995 1.87476L16.6245 4.93726V9.31226H15.7495ZM10.4995 7.99976L8.74951 7.12476C8.74951 8.08726 9.53701 8.87476 10.4995 8.87476C11.462 8.87476 12.2495 8.08726 12.2495 7.12476L10.4995 7.99976ZM12.9058 4.86726L10.6395 3.71226L8.28576 4.91101L10.5608 6.06601L12.9058 4.86726ZM10.4995 11.4998C12.8358 11.4998 17.4995 12.6635 17.4995 14.9998V17.6248H3.49951V14.9998C3.49951 12.6635 8.16326 11.4998 10.4995 11.4998ZM10.4995 13.1623C7.87451 13.1623 5.16201 14.4398 5.16201 14.9998V15.9623H15.837V14.9998C15.837 14.4398 13.0983 13.1623 10.4995 13.1623Z" fill="#124984"/>
</svg>
