<svg width="58" height="57" viewBox="0 0 58 57" fill="none" xmlns="http://www.w3.org/2000/svg">
<g clip-path="url(#clip0_177_2526)">
<path d="M41.9976 16.5601L44.5024 19.0649L23.6562 39.9111L13.4976 29.7524L16.0024 27.2476L23.6562 34.9014L41.9976 16.5601ZM29 0C31.6162 0 34.1396 0.333984 36.5703 1.00195C39.001 1.66992 41.2739 2.62549 43.3892 3.86865C45.5044 5.11182 47.4248 6.59619 49.1504 8.32178C50.876 10.0474 52.3604 11.9771 53.6035 14.1108C54.8467 16.2446 55.8022 18.5176 56.4702 20.9297C57.1382 23.3418 57.4814 25.8652 57.5 28.5C57.5 31.1162 57.166 33.6396 56.498 36.0703C55.8301 38.501 54.8745 40.7739 53.6313 42.8892C52.3882 45.0044 50.9038 46.9248 49.1782 48.6504C47.4526 50.376 45.5229 51.8604 43.3892 53.1035C41.2554 54.3467 38.9824 55.3022 36.5703 55.9702C34.1582 56.6382 31.6348 56.9814 29 57C26.3838 57 23.8604 56.666 21.4297 55.998C18.999 55.3301 16.7261 54.3745 14.6108 53.1313C12.4956 51.8882 10.5752 50.4038 8.84961 48.6782C7.12402 46.9526 5.63965 45.0229 4.39648 42.8892C3.15332 40.7554 2.19775 38.4917 1.52979 36.0981C0.861816 33.7046 0.518555 31.1719 0.5 28.5C0.5 25.8838 0.833984 23.3604 1.50195 20.9297C2.16992 18.499 3.12549 16.2261 4.36865 14.1108C5.61182 11.9956 7.09619 10.0752 8.82178 8.34961C10.5474 6.62402 12.4771 5.13965 14.6108 3.89648C16.7446 2.65332 19.0083 1.69775 21.4019 1.02979C23.7954 0.361816 26.3281 0.0185547 29 0ZM29 53.4375C31.2822 53.4375 33.481 53.1406 35.5962 52.5469C37.7114 51.9531 39.6968 51.1182 41.5522 50.042C43.4077 48.9658 45.0962 47.6577 46.6177 46.1177C48.1392 44.5776 49.438 42.8984 50.5142 41.0801C51.5903 39.2617 52.4346 37.2764 53.0469 35.124C53.6592 32.9717 53.9561 30.7637 53.9375 28.5C53.9375 26.2178 53.6406 24.019 53.0469 21.9038C52.4531 19.7886 51.6182 17.8032 50.542 15.9478C49.4658 14.0923 48.1577 12.4038 46.6177 10.8823C45.0776 9.36084 43.3984 8.06201 41.5801 6.98584C39.7617 5.90967 37.7764 5.06543 35.624 4.45312C33.4717 3.84082 31.2637 3.54395 29 3.5625C26.7178 3.5625 24.519 3.85938 22.4038 4.45312C20.2886 5.04688 18.3032 5.88184 16.4478 6.95801C14.5923 8.03418 12.9038 9.34229 11.3823 10.8823C9.86084 12.4224 8.56201 14.1016 7.48584 15.9199C6.40967 17.7383 5.56543 19.7236 4.95312 21.876C4.34082 24.0283 4.04395 26.2363 4.0625 28.5C4.0625 30.7822 4.35938 32.981 4.95312 35.0962C5.54688 37.2114 6.38184 39.1968 7.45801 41.0522C8.53418 42.9077 9.84229 44.5962 11.3823 46.1177C12.9224 47.6392 14.6016 48.938 16.4199 50.0142C18.2383 51.0903 20.2236 51.9346 22.376 52.5469C24.5283 53.1592 26.7363 53.4561 29 53.4375Z" fill="#69CCE2"/>
</g>
<defs>
<clipPath id="clip0_177_2526">
<rect width="57" height="57" fill="white" transform="translate(0.5)"/>
</clipPath>
</defs>
</svg>
