<svg width="25" height="24" viewBox="0 0 25 24" fill="none" xmlns="http://www.w3.org/2000/svg">
<path d="M12.4996 17.4002C11.8962 17.4003 11.315 17.1732 10.8715 16.764C10.4281 16.3548 10.1551 15.7936 10.1068 15.1922C8.50623 14.6256 7.15727 13.5119 6.29804 12.0474C5.43881 10.583 5.12456 8.86211 5.41076 7.18852C5.69696 5.51492 6.56522 3.99625 7.86226 2.90057C9.1593 1.8049 10.8017 1.20267 12.4996 1.2002C14.3055 1.19993 16.0455 1.8783 17.3747 3.10079C18.7039 4.32327 19.5251 6.0006 19.6756 7.8002C19.6806 7.87825 19.6693 7.9565 19.6425 8.02997C19.6156 8.10343 19.5738 8.17051 19.5196 8.22694C19.4655 8.28336 19.4001 8.32791 19.3278 8.35773C19.2555 8.38756 19.1778 8.40202 19.0996 8.4002C18.9389 8.39617 18.7854 8.33253 18.6689 8.22164C18.5525 8.11075 18.4815 7.96054 18.4696 7.8002C18.3627 6.7392 17.975 5.72585 17.3464 4.86448C16.7178 4.00311 15.8709 3.32484 14.893 2.8995C13.9152 2.47416 12.8416 2.31711 11.7829 2.44453C10.7242 2.57195 9.71852 2.97922 8.8695 3.62443C8.02047 4.26964 7.35874 5.12947 6.95243 6.1154C6.54612 7.10132 6.40991 8.17772 6.55782 9.23378C6.70573 10.2898 7.13242 11.2874 7.79396 12.1238C8.4555 12.9601 9.32799 13.6051 10.3216 13.9922C10.5024 13.6015 10.7849 13.2667 11.1396 13.0228C11.4943 12.7788 11.908 12.6348 12.3375 12.6057C12.767 12.5766 13.1964 12.6636 13.5807 12.8575C13.9651 13.0514 14.2901 13.3451 14.522 13.7078C14.7538 14.0705 14.8838 14.4889 14.8983 14.9191C14.9128 15.3493 14.8114 15.7755 14.6046 16.1531C14.3978 16.5306 14.0933 16.8456 13.723 17.065C13.3526 17.2844 12.9301 17.4002 12.4996 17.4002ZM6.51041 14.4002H6.61961C7.08761 14.8574 7.60721 15.2606 8.17001 15.6002H6.51041C5.83721 15.6002 5.29961 16.1366 5.29961 16.8002C5.29961 18.371 6.04601 19.541 7.30721 20.3438C8.59121 21.1634 10.4176 21.6002 12.4996 21.6002C14.5816 21.6002 16.408 21.1634 17.692 20.3438C18.952 19.5398 19.6996 18.3722 19.6996 16.8002C19.6996 16.4819 19.5732 16.1767 19.3481 15.9517C19.1231 15.7266 18.8179 15.6002 18.4996 15.6002H16.0504C16.1175 15.203 16.1175 14.7974 16.0504 14.4002H18.4996C19.1361 14.4002 19.7466 14.6531 20.1967 15.1031C20.6468 15.5532 20.8996 16.1637 20.8996 16.8002C20.8996 18.8294 19.9 20.3594 18.3376 21.3566C16.7992 22.337 14.7256 22.8002 12.4996 22.8002C10.2736 22.8002 8.20001 22.337 6.66161 21.3566C5.09921 20.3606 4.09961 18.8282 4.09961 16.8002C4.09961 15.4646 5.18321 14.4002 6.51041 14.4002ZM17.2996 8.4002C17.2999 9.21216 17.0941 10.0109 16.7017 10.7217C16.3092 11.4326 15.7429 12.0322 15.0556 12.4646C14.7353 12.1416 14.3566 11.8822 13.9396 11.7002C14.6976 11.3694 15.3186 10.7876 15.6982 10.0528C16.0777 9.31796 16.1926 8.47485 16.0237 7.66523C15.8547 6.85561 15.4121 6.12886 14.7703 5.60719C14.1285 5.08552 13.3267 4.80074 12.4996 4.80074C11.6725 4.80074 10.8707 5.08552 10.2289 5.60719C9.58712 6.12886 9.14452 6.85561 8.97555 7.66523C8.80657 8.47485 8.92152 9.31796 9.30106 10.0528C9.6806 10.7876 10.3016 11.3694 11.0596 11.7002C10.6396 11.8838 10.2616 12.1442 9.94361 12.4646C9.03211 11.8914 8.33982 11.0283 7.97801 10.0142C7.79343 9.49612 7.69926 8.95017 7.69961 8.4002C7.69961 7.12716 8.20532 5.90626 9.1055 5.00608C10.0057 4.10591 11.2266 3.6002 12.4996 3.6002C13.7726 3.6002 14.9935 4.10591 15.8937 5.00608C16.7939 5.90626 17.2996 7.12716 17.2996 8.4002Z" fill="white"/>
</svg>
