<svg width="20" height="20" viewBox="0 0 20 20" fill="none" xmlns="http://www.w3.org/2000/svg">
<path d="M11.9202 8.99387L11.7069 8.78053C11.3204 8.39394 10.8142 8.14998 10.271 8.08859C9.72781 8.02719 9.17987 8.15199 8.71685 8.44257C8.25383 8.73315 7.90316 9.17229 7.72223 9.68812C7.5413 10.2039 7.54082 10.7659 7.72087 11.2821C7.90093 11.7982 8.25085 12.2379 8.71337 12.5293C9.17589 12.8207 9.72361 12.9464 10.2669 12.8859C10.8102 12.8255 11.3169 12.5824 11.704 12.1964C12.0911 11.8105 12.3358 11.3046 12.398 10.7615M11.9202 8.99387L10.7621 9.23768M11.9202 8.99387V7.71387" stroke="white" stroke-width="1.5" stroke-linecap="round" stroke-linejoin="round"/>
<path d="M2.3811 11.039C2.3811 8.70376 2.3811 7.53652 2.95177 6.69842C3.19951 6.33397 3.51699 6.02219 3.88587 5.78109C4.43444 5.42071 5.12168 5.29195 6.17387 5.24623C6.67596 5.24623 7.10796 4.8729 7.20625 4.38909C7.28136 4.0347 7.47652 3.71712 7.75874 3.49C8.04097 3.26289 8.39295 3.14018 8.7552 3.14261H11.2451C11.9979 3.14261 12.6462 3.66452 12.7941 4.38909C12.8923 4.8729 13.3243 5.24623 13.8264 5.24623C14.8779 5.29195 15.5651 5.42147 16.1144 5.78109C16.484 6.02338 16.8017 6.33499 17.0485 6.69842C17.6192 7.53652 17.6192 8.70376 17.6192 11.039C17.6192 13.3735 17.6192 14.5407 17.0485 15.3796C16.8004 15.7437 16.483 16.0554 16.1144 16.2969C15.2603 16.8569 14.071 16.8569 11.6931 16.8569H8.3072C5.92929 16.8569 4.73996 16.8569 3.88587 16.2969C3.51752 16.0551 3.20037 15.7431 2.95253 15.3788C2.7874 15.132 2.66552 14.8589 2.59215 14.5712" stroke="white" stroke-width="1.5" stroke-linecap="round"/>
</svg>
