<?xml version="1.0" standalone="no"?>
<!DOCTYPE svg PUBLIC "-//W3C//DTD SVG 20010904//EN"
 "http://www.w3.org/TR/2001/REC-SVG-20010904/DTD/svg10.dtd">
<svg version="1.0" xmlns="http://www.w3.org/2000/svg"
 width="32.000000pt" height="32.000000pt" viewBox="0 0 32.000000 32.000000"
 preserveAspectRatio="xMidYMid meet">

<g transform="translate(0.000000,32.000000) scale(0.100000,-0.100000)"
fill="#000000" stroke="none">
<path d="M7 314 c-4 -4 -7 -43 -7 -87 0 -70 2 -79 20 -84 11 -3 20 -14 20 -24
0 -25 21 -24 54 2 16 12 31 18 36 13 5 -5 10 -36 12 -69 l3 -60 85 0 85 0 3
83 c3 77 1 84 -18 89 -11 3 -20 14 -20 24 0 25 -21 24 -54 -2 -16 -12 -31 -18
-36 -13 -5 5 -10 36 -12 69 l-3 60 -80 3 c-45 1 -84 0 -88 -4z m158 -89 l0
-70 -35 -3 c-19 -2 -43 -11 -53 -19 -15 -14 -17 -14 -17 -1 0 9 -9 18 -20 21
-18 5 -20 14 -20 77 l0 71 73 -3 72 -3 0 -70z m116 -58 c17 -4 19 -14 19 -77
l0 -71 -72 3 -73 3 -3 48 c-3 39 1 53 20 72 13 14 30 25 39 25 9 0 23 7 30 17
12 14 14 14 17 1 2 -9 12 -18 23 -21z"/>
<path d="M68 263 c-19 -5 -25 -23 -8 -23 6 0 10 -9 10 -20 0 -11 -4 -20 -10
-20 -5 0 -10 -4 -10 -8 0 -5 20 -9 45 -9 25 0 45 4 45 9 0 4 -7 8 -15 8 -20 0
-19 14 1 35 9 9 15 17 13 19 -9 7 -55 13 -71 9z m32 -33 c0 -5 -2 -10 -4 -10
-3 0 -8 5 -11 10 -3 6 -1 10 4 10 6 0 11 -4 11 -10z"/>
<path d="M200 100 c-11 -21 -20 -41 -20 -42 0 -2 20 -3 45 -3 25 0 45 5 45 10
0 12 -38 75 -45 75 -2 0 -14 -18 -25 -40z m35 -10 c3 -5 1 -10 -4 -10 -6 0
-11 5 -11 10 0 6 2 10 4 10 3 0 8 -4 11 -10z"/>
<path d="M220 305 c-10 -12 -10 -18 0 -30 10 -12 15 -13 21 -4 11 19 40 2 52
-31 11 -29 27 -41 27 -20 0 23 -24 59 -49 71 -14 8 -29 18 -32 22 -3 4 -12 1
-19 -8z"/>
<path d="M0 100 c0 -23 24 -59 49 -71 14 -8 29 -18 32 -22 3 -4 12 -1 19 8 10
12 10 18 0 30 -10 12 -15 13 -20 4 -11 -17 -49 7 -56 36 -6 24 -24 35 -24 15z"/>
</g>
</svg>
