<svg width="24" height="25" viewBox="0 0 24 25" fill="none" xmlns="http://www.w3.org/2000/svg">
<path d="M7.42854 12.1471H13.1428M7.42854 14.4328H15.4285M7.42854 16.7185H10.8571M18.8571 17.8614V9.86135L13.1428 4.14706H7.42854C6.82233 4.14706 6.24095 4.38788 5.81229 4.81653C5.38364 5.24519 5.14282 5.82657 5.14282 6.43278V17.8614C5.14282 18.4676 5.38364 19.0489 5.81229 19.4776C6.24095 19.9062 6.82233 20.1471 7.42854 20.1471H16.5714C17.1776 20.1471 17.759 19.9062 18.1876 19.4776C18.6163 19.0489 18.8571 18.4676 18.8571 17.8614Z" stroke="white" stroke-linecap="round" stroke-linejoin="round"/>
<path d="M13.1428 4.14706V7.57564C13.1428 8.18184 13.3836 8.76323 13.8123 9.19188C14.2409 9.62053 14.8223 9.86135 15.4285 9.86135H18.8571" stroke="white" stroke-linecap="round" stroke-linejoin="round"/>
</svg>
