<svg width="35" height="35" viewBox="0 0 35 35" fill="none" xmlns="http://www.w3.org/2000/svg">
<path d="M17.6934 17.5C19.4817 17.5 20.9315 16.0503 20.9315 14.2619C20.9315 12.4736 19.4817 11.0238 17.6934 11.0238C15.905 11.0238 14.4553 12.4736 14.4553 14.2619C14.4553 16.0503 15.905 17.5 17.6934 17.5Z" stroke="white" stroke-linecap="round" stroke-linejoin="round"/>
<path d="M6.36005 11.0238H7.97909V9.40476C7.97909 8.54597 8.32025 7.72234 8.92751 7.11508C9.53477 6.50782 10.3584 6.16667 11.2172 6.16667H24.1696C25.0284 6.16667 25.852 6.50782 26.4592 7.11508C27.0665 7.72234 27.4077 8.54597 27.4077 9.40476V25.5952C27.4077 26.454 27.0665 27.2777 26.4592 27.8849C25.852 28.4922 25.0284 28.8333 24.1696 28.8333H11.2172C10.3584 28.8333 9.53477 28.4922 8.92751 27.8849C8.32025 27.2777 7.97909 26.454 7.97909 25.5952V23.9762H6.36005M6.36005 17.5H7.97909M6.36005 14.2619H7.97909M6.36005 20.7381H7.97909" stroke="white" stroke-linecap="round" stroke-linejoin="round"/>
<path fill-rule="evenodd" clip-rule="evenodd" d="M22.5505 22.3571V20.7381C22.5505 19.8793 22.2094 19.0557 21.6021 18.4484C20.9949 17.8412 20.1712 17.5 19.3124 17.5H16.0743C15.2155 17.5 14.3919 17.8412 13.7847 18.4484C13.1774 19.0557 12.8362 19.8793 12.8362 20.7381V22.3571C12.8362 22.7865 13.0068 23.1984 13.3105 23.502C13.6141 23.8056 14.0259 23.9762 14.4553 23.9762H20.9315C21.3609 23.9762 21.7727 23.8056 22.0763 23.502C22.38 23.1984 22.5505 22.7865 22.5505 22.3571Z" stroke="white" stroke-linecap="round" stroke-linejoin="round"/>
</svg>
