<svg width="24" height="24" viewBox="0 0 24 24" fill="none" xmlns="http://www.w3.org/2000/svg">
<g clip-path="url(#clip0_376_4431)">
<path fill-rule="evenodd" clip-rule="evenodd" d="M16.475 4.37525L19.647 7.55125C20.655 8.55925 21.471 9.37625 21.997 10.0863C22.538 10.8163 22.888 11.5863 22.698 12.4633C22.508 13.3423 21.872 13.8973 21.078 14.3383C20.305 14.7673 19.224 15.1733 17.891 15.6743L15.914 16.4173C15.119 16.7153 14.903 16.8083 14.742 16.9473C14.662 17.0179 14.59 17.0969 14.526 17.1843C14.402 17.3573 14.329 17.5812 14.104 18.4002L14.091 18.4452C13.863 19.2762 13.674 19.9622 13.467 20.4772C13.257 21.0002 12.974 21.4952 12.465 21.7862C12.1116 21.9877 11.7118 22.0935 11.305 22.0933C10.718 22.0933 10.227 21.8013 9.786 21.4513C9.352 21.1052 8.85 20.6012 8.241 19.9912L6.653 18.4032L2.531 22.5303C2.39043 22.6711 2.19968 22.7503 2.0007 22.7505C1.80173 22.7507 1.61083 22.6718 1.47 22.5312C1.32917 22.3907 1.24994 22.1999 1.24976 22.001C1.24957 21.802 1.32843 21.6111 1.469 21.4702L5.593 17.3422L4.058 15.8053C3.453 15.2003 2.954 14.7003 2.61 14.2683C2.261 13.8303 1.972 13.3423 1.968 12.7603C1.96573 12.3455 2.07375 11.9375 2.281 11.5783C2.571 11.0733 3.063 10.7923 3.583 10.5833C4.095 10.3783 4.776 10.1903 5.601 9.96325L5.646 9.95025C6.466 9.72425 6.691 9.65025 6.863 9.52625C6.953 9.46158 7.03366 9.38758 7.105 9.30425C7.243 9.14125 7.335 8.92425 7.628 8.12425L8.344 6.16825C8.839 4.81925 9.239 3.72625 9.664 2.94625C10.101 2.14325 10.654 1.49825 11.536 1.30425C12.418 1.10925 13.191 1.46225 13.925 2.00625C14.637 2.53625 15.46 3.35925 16.475 4.37525ZM13.03 3.21025C12.428 2.76225 12.109 2.71225 11.859 2.76725C11.609 2.82225 11.34 3.00225 10.981 3.66225C10.616 4.33225 10.252 5.32025 9.731 6.74325L9.036 8.64025L8.996 8.74825C8.763 9.38825 8.582 9.88425 8.246 10.2773C8.09666 10.4533 7.928 10.6089 7.74 10.7443C7.32 11.0463 6.813 11.1853 6.155 11.3663L6.045 11.3963C5.163 11.6393 4.565 11.8063 4.142 11.9763C3.717 12.1463 3.615 12.2663 3.58 12.3263C3.50578 12.4552 3.46713 12.6015 3.468 12.7503C3.468 12.8203 3.498 12.9753 3.784 13.3343C4.068 13.6913 4.506 14.1313 5.152 14.7783L9.269 18.8983C9.919 19.5503 10.362 19.9912 10.721 20.2782C11.081 20.5642 11.237 20.5933 11.306 20.5933C11.4519 20.5938 11.5954 20.5558 11.722 20.4832C11.782 20.4492 11.903 20.3472 12.075 19.9193C12.247 19.4913 12.413 18.8892 12.657 18.0023L12.687 17.8923C12.867 17.2353 13.007 16.7283 13.307 16.3093C13.4383 16.1266 13.5893 15.9613 13.76 15.8133C14.15 15.4763 14.642 15.2913 15.279 15.0533L15.386 15.0133L17.303 14.2933C18.711 13.7633 19.686 13.3953 20.349 13.0273C21 12.6663 21.178 12.3973 21.232 12.1473C21.286 11.8963 21.235 11.5773 20.792 10.9793C20.34 10.3693 19.605 9.63025 18.541 8.56625L15.459 5.48025C14.388 4.40825 13.643 3.66625 13.03 3.21025Z" fill="#868686"/>
<line x1="0.353553" y1="-0.353553" x2="23.3536" y2="22.6464" stroke="#868686"/>
</g>
<defs>
<clipPath id="clip0_376_4431">
<rect width="24" height="24" fill="white"/>
</clipPath>
</defs>
</svg>
