<svg width="83" height="82" viewBox="0 0 83 82" fill="none" xmlns="http://www.w3.org/2000/svg">
<g id="solar:user-broken">
<g id="Group">
<path id="Vector" d="M41.738 34.1668C49.2858 34.1668 55.4046 28.0481 55.4046 20.5002C55.4046 12.9523 49.2858 6.8335 41.738 6.8335C34.1901 6.8335 28.0713 12.9523 28.0713 20.5002C28.0713 28.0481 34.1901 34.1668 41.738 34.1668Z" stroke="white" stroke-width="1.5"/>
<path id="Vector_2" d="M69.0645 61.5003C69.0713 60.94 69.0713 60.3694 69.0713 59.792C69.0713 51.3016 56.8328 44.417 41.738 44.417C26.6432 44.417 14.4047 51.3016 14.4047 59.792C14.4047 68.2824 14.4047 75.167 41.738 75.167C49.3606 75.167 54.858 74.6306 58.8213 73.6739" stroke="white" stroke-width="1.5" stroke-linecap="round"/>
</g>
</g>
</svg>
