<svg width="24" height="24" viewBox="0 0 24 24" fill="none" xmlns="http://www.w3.org/2000/svg">
<path d="M12 10C14.2091 10 16 8.20914 16 6C16 3.79086 14.2091 2 12 2C9.79086 2 8 3.79086 8 6C8 8.20914 9.79086 10 12 10Z" stroke="white" stroke-width="1.5"/>
<path d="M15.5 13.535C14.47 13.195 13.275 13 12 13C8.134 13 5 14.79 5 17C5 17.345 5 17.68 5.027 18M13 20.987C12.684 20.996 12.35 21 12 21C10.278 21 8.98 20.892 8 20.695M19.95 17.05L16.05 20.95" stroke="white" stroke-width="1.5" stroke-linecap="round"/>
<path d="M18 22C19.6569 22 21 20.6569 21 19C21 17.3431 19.6569 16 18 16C16.3431 16 15 17.3431 15 19C15 20.6569 16.3431 22 18 22Z" stroke="white" stroke-width="1.5"/>
</svg>
