<svg width="24" height="24" viewBox="0 0 24 24" fill="none" xmlns="http://www.w3.org/2000/svg">
<path d="M17 9.50001L17.658 9.17101C19.604 8.19801 20.578 7.71101 21.288 8.15101C22 8.59101 22 9.67901 22 11.854V12.146C22 14.322 22 15.409 21.289 15.849C20.577 16.289 19.604 15.802 17.659 14.829L17 14.5V9.50001Z" stroke="#0047FF" stroke-width="1.5"/>
<path d="M7 12H9.5M9.5 12H12M9.5 12V14.5M9.5 12V9.5M2 11.5V12.5C2 15.787 2 17.431 2.908 18.538C3.07409 18.7404 3.25965 18.9259 3.462 19.092C4.57 20 6.212 20 9.5 20C12.787 20 14.431 20 15.538 19.092C15.74 18.926 15.926 18.74 16.092 18.538C17 17.43 17 15.788 17 12.5V11.5C17 8.213 17 6.569 16.092 5.462C15.9259 5.25965 15.7404 5.07409 15.538 4.908C14.43 4 12.788 4 9.5 4C6.213 4 4.569 4 3.462 4.908C3.25965 5.07409 3.07409 5.25965 2.908 5.462C2.48 5.984 2.254 6.624 2.134 7.5" stroke="#0047FF" stroke-width="1.5" stroke-linecap="round"/>
</svg>
