<svg width="24" height="24" viewBox="0 0 24 24" fill="none" xmlns="http://www.w3.org/2000/svg">
<path d="M3.28308 2.21991C3.21442 2.14622 3.13162 2.08712 3.03962 2.04613C2.94762 2.00514 2.84831 1.98309 2.74761 1.98132C2.6469 1.97954 2.54687 1.99807 2.45349 2.03579C2.3601 2.07351 2.27526 2.12965 2.20404 2.20087C2.13283 2.27209 2.07668 2.35692 2.03896 2.45031C2.00124 2.5437 1.98271 2.64373 1.98449 2.74443C1.98627 2.84513 2.00831 2.94445 2.0493 3.03645C2.09029 3.12845 2.1494 3.21125 2.22308 3.27991L4.13808 5.19591C3.51198 5.42459 2.97134 5.84025 2.58943 6.38655C2.20753 6.93284 2.00283 7.58336 2.00308 8.24991V15.7499C2.00308 16.6119 2.34549 17.4385 2.95499 18.048C3.56448 18.6575 4.39113 18.9999 5.25308 18.9999H12.7531C14.1561 18.9999 15.3521 18.1099 15.8071 16.8649L20.7221 21.7809C20.8628 21.9216 21.0536 22.0007 21.2526 22.0007C21.4516 22.0007 21.6424 21.9216 21.7831 21.7809C21.9238 21.6402 22.0028 21.4494 22.0028 21.2504C22.0028 21.0514 21.9238 20.8606 21.7831 20.7199L3.28308 2.21991ZM14.5031 15.5599V15.7499C14.5031 16.214 14.3187 16.6592 13.9905 16.9873C13.6623 17.3155 13.2172 17.4999 12.7531 17.4999H5.25308C4.78895 17.4999 4.34384 17.3155 4.01565 16.9873C3.68746 16.6592 3.50308 16.214 3.50308 15.7499V8.24991C3.50308 7.28391 4.28708 6.49991 5.25308 6.49991H5.44308L14.5031 15.5599ZM14.5031 8.24991V11.3179L16.0031 12.8179V10.3839L20.1131 7.54591C20.1506 7.52 20.1945 7.50486 20.2401 7.50212C20.2856 7.49938 20.331 7.50915 20.3714 7.53036C20.4118 7.55158 20.4456 7.58344 20.4691 7.62249C20.4927 7.66154 20.5051 7.7063 20.5051 7.75191V16.2469C20.5051 16.2925 20.4927 16.3373 20.4691 16.3763C20.4456 16.4154 20.4118 16.4472 20.3714 16.4685C20.331 16.4897 20.2856 16.4994 20.2401 16.4967C20.1945 16.494 20.1506 16.4788 20.1131 16.4529L18.5781 15.3929L21.0101 17.8259C21.5801 17.5519 22.0051 16.9769 22.0051 16.2469V7.75191C22.0051 6.34191 20.4211 5.50991 19.2611 6.31191L16.0031 8.56191V8.24991C16.0031 7.38796 15.6607 6.56131 15.0512 5.95181C14.4417 5.34232 13.615 4.99991 12.7531 4.99991H8.18508L9.68508 6.49991H12.7531C13.7191 6.49991 14.5031 7.28391 14.5031 8.24991Z" fill="black"/>
</svg>
