<svg width="22" height="16" viewBox="0 0 22 16" fill="none" xmlns="http://www.w3.org/2000/svg">
<path d="M11 1.32034H5.09501C4.62223 1.32034 4.1541 1.41359 3.71741 1.59475C3.28072 1.77592 2.88406 2.04144 2.55013 2.37611C2.2162 2.71079 1.95156 3.10804 1.77136 3.54513C1.59117 3.98222 1.49896 4.45056 1.50001 4.92334V11.0853C1.50001 12.0388 1.87877 12.9532 2.55296 13.6274C2.88679 13.9612 3.2831 14.226 3.71926 14.4067C4.15543 14.5873 4.62291 14.6803 5.09501 14.6803H11C11.9535 14.6803 12.8679 14.3016 13.5421 13.6274C14.2163 12.9532 14.595 12.0388 14.595 11.0853V4.92434C14.5965 4.45136 14.5045 3.98274 14.3245 3.54536C14.1445 3.10798 13.8799 2.71044 13.5459 2.37553C13.2119 2.04061 12.8151 1.77492 12.3782 1.59367C11.9413 1.41243 11.473 1.3192 11 1.31934M20.5 5.43834V10.5733C20.5 10.8233 20.429 11.0693 20.295 11.2813C20.1595 11.4941 19.9673 11.6649 19.74 11.7743C19.5144 11.8873 19.2603 11.9304 19.01 11.8983C18.7633 11.8689 18.5292 11.7728 18.333 11.6203L15.108 9.03234C14.9529 8.90505 14.8275 8.74538 14.7406 8.56451C14.6537 8.38365 14.6074 8.18597 14.605 7.98534C14.605 7.78534 14.65 7.58834 14.738 7.41034C14.83 7.24234 14.956 7.09534 15.108 6.97834L18.333 4.41134C18.5293 4.25838 18.7638 4.16223 19.011 4.13334C19.261 4.10134 19.515 4.14434 19.74 4.25634C19.964 4.36331 20.1537 4.53056 20.288 4.73934C20.4222 4.94812 20.4956 5.19016 20.5 5.43834Z" stroke="black" stroke-width="1.5" stroke-linecap="round" stroke-linejoin="round"/>
</svg>
