<svg width="20" height="21" viewBox="0 0 20 21" fill="none" xmlns="http://www.w3.org/2000/svg">
<g clip-path="url(#clip0_1023_4158)">
<g clip-path="url(#clip1_1023_4158)">
<mask id="mask0_1023_4158" style="mask-type:luminance" maskUnits="userSpaceOnUse" x="-4" y="0" width="28" height="21">
<path d="M23.3333 0.5H-3.33337V20.5H23.3333V0.5Z" fill="white"/>
</mask>
<g mask="url(#mask0_1023_4158)">
<mask id="mask1_1023_4158" style="mask-type:luminance" maskUnits="userSpaceOnUse" x="-4" y="0" width="28" height="21">
<path d="M-3.33337 0.5H23.3307V20.5H-3.33337V0.5Z" fill="white"/>
</mask>
<g mask="url(#mask1_1023_4158)">
<path fill-rule="evenodd" clip-rule="evenodd" d="M-5 0.5H25V20.5H-5V0.5Z" fill="#DA251D"/>
<path fill-rule="evenodd" clip-rule="evenodd" d="M13.6563 15.3828L10.1563 12.7773L6.67969 15.4062L7.96872 11.125L4.49219 8.48047L8.79295 8.4414L10.1289 4.16797L11.4844 8.4297L15.7852 8.4336L12.3281 11.1055L13.6523 15.3867L13.6563 15.3828Z" fill="#FFFF00"/>
</g>
</g>
</g>
</g>
<defs>
<clipPath id="clip0_1023_4158">
<rect y="0.5" width="20" height="20" rx="10" fill="white"/>
</clipPath>
<clipPath id="clip1_1023_4158">
<rect width="26.6667" height="20" fill="white" transform="translate(-3.33337 0.5)"/>
</clipPath>
</defs>
</svg>
