<svg width="33" height="34" viewBox="0 0 33 34" fill="none" xmlns="http://www.w3.org/2000/svg">
<path d="M8.25 11.1471H13.75" stroke="white" stroke-width="1.5" stroke-linecap="round" stroke-linejoin="round"/>
<path d="M30.25 14.5846C30.25 14.4787 30.25 13.8517 30.2472 13.8077C30.1977 13.1188 29.6079 12.5702 28.8654 12.5248C28.8186 12.5221 28.7622 12.5221 28.6467 12.5221H25.069C22.6133 12.5221 20.625 14.3687 20.625 16.6471C20.625 18.9255 22.6146 20.7721 25.0662 20.7721H28.6454C28.7609 20.7721 28.8173 20.7721 28.8654 20.7693C29.6079 20.724 30.1991 20.1753 30.2472 19.4865C30.25 19.4425 30.25 18.8155 30.25 18.7096" stroke="white" stroke-width="1.5" stroke-linecap="round"/>
<path d="M24.75 18.0221C25.5094 18.0221 26.125 17.4065 26.125 16.6471C26.125 15.8877 25.5094 15.2721 24.75 15.2721C23.9906 15.2721 23.375 15.8877 23.375 16.6471C23.375 17.4065 23.9906 18.0221 24.75 18.0221Z" fill="white"/>
<path d="M17.875 5.64709C23.0601 5.64709 25.6534 5.64709 27.2635 7.25859C28.3759 8.36959 28.721 9.94809 28.8269 12.5221M13.75 27.6471H17.875C23.0601 27.6471 25.6534 27.6471 27.2635 26.0356C28.3759 24.9246 28.721 23.3461 28.8269 20.7721M12.375 5.64709C8.09325 5.66084 5.82312 5.79559 4.3615 7.25859C2.75 8.86872 2.75 11.462 2.75 16.6471C2.75 21.8322 2.75 24.4255 4.3615 26.0356C5.25937 26.9348 6.4625 27.3322 8.25 27.5068" stroke="white" stroke-width="1.5" stroke-linecap="round"/>
</svg>
