<svg width="24" height="24" viewBox="0 0 24 24" fill="none" xmlns="http://www.w3.org/2000/svg">
<path d="M21.9918 18.3937L12.4199 23.8125V19.5919L18.3749 16.3125L21.9918 18.3937ZM22.6481 17.8013V6.47812L19.1456 8.50312V15.78L22.6462 17.7994L22.6481 17.8013ZM2.00806 18.3937L11.5706 23.8088V19.5919L5.61368 16.3125L2.00806 18.3937ZM1.35181 17.8013V6.47812L4.85431 8.50312V15.78L1.35181 17.8013ZM1.76243 5.745L11.5799 0.1875V4.2675L5.28931 7.72687L5.23868 7.755L1.76243 5.745ZM22.2337 5.745L12.4199 0.1875V4.2675L18.7106 7.725L18.7612 7.75312L22.2374 5.745H22.2337ZM11.5799 18.6319L5.69431 15.3937V8.985L11.5799 12.375V18.6319ZM12.4199 18.6319L18.3056 15.3975V8.985L12.4199 12.375V18.6319ZM6.09368 8.25L11.9999 4.99875L17.9062 8.25L11.9999 11.655L6.09368 8.25Z" fill="#1FBB83"/>
</svg>
