<svg width="20" height="21" viewBox="0 0 20 21" fill="none" xmlns="http://www.w3.org/2000/svg">
<path d="M3.33317 18.0001C2.87484 18.0001 2.48262 17.837 2.1565 17.5109C1.83039 17.1848 1.66706 16.7923 1.6665 16.3334V7.16675C1.6665 6.70841 1.82984 6.31619 2.1565 5.99008C2.48317 5.66397 2.87539 5.50064 3.33317 5.50008H6.6665V3.83341C6.6665 3.37508 6.82984 2.98286 7.1565 2.65675C7.48317 2.33064 7.87539 2.1673 8.33317 2.16675H11.6665C12.1248 2.16675 12.5173 2.33008 12.844 2.65675C13.1707 2.98341 13.3337 3.37564 13.3332 3.83341V5.50008H16.6665C17.1248 5.50008 17.5173 5.66341 17.844 5.99008C18.1707 6.31675 18.3337 6.70897 18.3332 7.16675V16.3334C18.3332 16.7917 18.1701 17.1842 17.844 17.5109C17.5179 17.8376 17.1254 18.0006 16.6665 18.0001H3.33317ZM8.33317 5.50008H11.6665V3.83341H8.33317V5.50008Z" fill="#567596"/>
</svg>
